SplineFontDB: 3.2
FontName: unaScript
FullName: Una Script
FamilyName: Una
Weight: Regular
Copyright: Lol, take it, see if I fucking care. - Una Ada
UComments: "2020-7-9: Created with FontForge (http://fontforge.org)"
Version: 001.000
ItalicAngle: 0
UnderlinePosition: -100
UnderlineWidth: 50
Ascent: 800
Descent: 200
InvalidEm: 0
LayerCount: 2
Layer: 0 0 "Back" 1
Layer: 1 0 "Fore" 0
XUID: [1021 809 -1299049482 11933]
OS2Version: 0
OS2_WeightWidthSlopeOnly: 0
OS2_UseTypoMetrics: 1
CreationTime: 1594321298
ModificationTime: 1594332986
OS2TypoAscent: 0
OS2TypoAOffset: 1
OS2TypoDescent: 0
OS2TypoDOffset: 1
OS2TypoLinegap: 0
OS2WinAscent: 0
OS2WinAOffset: 1
OS2WinDescent: 0
OS2WinDOffset: 1
HheadAscent: 0
HheadAOffset: 1
HheadDescent: 0
HheadDOffset: 1
OS2Vendor: 'PfEd'
Lookup: 258 0 0 "I am going to die." { "I am going to die.-1" [150,15,0] "I am going to die.-2" [150,15,0] "I am going to die.-3" [150,15,0] "I am going to die.-4" [150,15,0] } []
MarkAttachClasses: 1
DEI: 91125
KernClass2: 94 93 "I am going to die.-1"
 6 exclam
 8 quotedbl
 10 numbersign
 6 dollar
 7 percent
 9 ampersand
 11 quotesingle
 9 parenleft
 10 parenright
 8 asterisk
 4 plus
 5 comma
 6 hyphen
 6 period
 5 slash
 4 zero
 3 one
 3 two
 5 three
 4 four
 4 five
 3 six
 5 seven
 5 eight
 4 nine
 5 colon
 9 semicolon
 4 less
 5 equal
 7 greater
 8 question
 2 at
 1 A
 1 B
 1 C
 1 D
 1 E
 1 F
 1 G
 1 H
 1 I
 1 J
 1 K
 1 L
 1 M
 1 N
 1 O
 1 P
 1 Q
 1 R
 1 S
 1 T
 1 U
 1 V
 1 W
 1 X
 1 Y
 1 Z
 11 bracketleft
 9 backslash
 12 bracketright
 11 asciicircum
 10 underscore
 5 grave
 1 a
 1 b
 1 c
 1 d
 1 e
 1 f
 1 g
 1 h
 1 i
 1 j
 1 k
 1 l
 1 m
 1 n
 1 o
 1 p
 1 q
 1 r
 1 s
 1 t
 1 u
 1 v
 1 w
 1 x
 1 y
 1 z
 9 braceleft
 3 bar
 10 braceright
 6 exclam
 8 quotedbl
 10 numbersign
 6 dollar
 7 percent
 9 ampersand
 11 quotesingle
 9 parenleft
 10 parenright
 8 asterisk
 4 plus
 5 comma
 6 hyphen
 6 period
 5 slash
 4 zero
 3 one
 3 two
 5 three
 4 four
 4 five
 3 six
 5 seven
 5 eight
 4 nine
 5 colon

StartChar: exclam
Encoding: 33 33 0
Width: 222
Flags: W
LayerCount: 2
Fore
SplineSet
116.693359375 390.208984375 m 0
 93.291015625 390.208984375 73.5361328125 408.31640625 71.8515625 432.022460938 c 0
 66.177734375 511.879882812 51.2919921875 584.158203125 29.9365234375 635.541015625 c 0
 20.3994140625 658.491210938 31.271484375 684.827148438 54.220703125 694.365234375 c 0
 77.171875 703.90234375 103.5078125 693.03125 113.044921875 670.081054688 c 0
 138.390625 609.096679688 155.190429688 528.983398438 161.625 438.400390625 c 0
 163.38671875 413.610351562 144.717773438 392.0859375 119.927734375 390.32421875 c 0
 118.84375 390.247070312 117.763671875 390.208984375 116.693359375 390.208984375 c 0
152.55078125 235.5078125 m 0
 137.48828125 235.5078125 122.774414062 243.06640625 114.255859375 256.810546875 c 2
 105.838867188 270.396484375 l 2
 92.748046875 291.522460938 99.26171875 319.259765625 120.38671875 332.350585938 c 0
 141.514648438 345.443359375 169.250976562 338.926757812 182.341796875 317.801757812 c 2
 190.759765625 304.216796875 l 2
 203.849609375 283.091796875 197.3359375 255.352539062 176.2109375 242.26171875 c 0
 168.830078125 237.688476562 160.638671875 235.5078125 152.55078125 235.5078125 c 0
EndSplineSet
EndChar

StartChar: quotedbl
Encoding: 34 34 1
Width: 302
Flags: W
HStem: 489.795 206.241
VStem: 39.1943 221.997
LayerCount: 2
Fore
SplineSet
108.180664062 489.794921875 m 0
 84.98828125 489.794921875 65.3037109375 507.607421875 63.380859375 531.130859375 c 0
 61.953125 548.59765625 54.8486328125 586.438476562 39.1943359375 640.2578125 c 0
 32.2529296875 664.122070312 45.970703125 689.09375 69.8359375 696.036132812 c 0
 93.7001953125 702.973632812 118.671875 689.258789062 125.61328125 665.393554688 c 0
 140.720703125 613.452148438 150.733398438 567.188476562 153.081054688 538.462890625 c 0
 155.106445312 513.693359375 136.66796875 491.970703125 111.897460938 489.946289062 c 0
 110.65234375 489.845703125 109.409179688 489.794921875 108.180664062 489.794921875 c 0
217.563476562 504.90625 m 0
 197.495117188 504.90625 179.203125 518.42578125 174 538.762695312 c 0
 172.647460938 544.047851562 171.103515625 550.375 169.470703125 557.07421875 c 0
 163.961914062 579.65625 154.743164062 617.450195312 147.774414062 632.879882812 c 0
 137.54296875 655.529296875 147.610351562 682.18359375 170.259765625 692.415039062 c 0
 192.908203125 702.646484375 219.564453125 692.579101562 229.794921875 669.928710938 c 0
 239.41796875 648.624023438 247.766601562 615.873046875 256.907226562 578.40234375 c 0
 258.478515625 571.956054688 259.96484375 565.8671875 261.19140625 561.0703125 c 0
 267.350585938 536.9921875 252.826171875 512.481445312 228.749023438 506.3203125 c 0
 225.008789062 505.364257812 221.25390625 504.90625 217.563476562 504.90625 c 0
EndSplineSet
EndChar

StartChar: numbersign
Encoding: 35 35 2
Width: 518
Flags: W
HStem: 510.19 89.9697<62.3197 100.46> 607.67 21G<237.385 241.005> 617.31 21G<350.16 360.33>
LayerCount: 2
Fore
SplineSet
416.23046875 533.41015625 m 0xc0
 440.940429688 536.009765625 458.870117188 558.16015625 456.259765625 582.879882812 c 0
 453.66015625 607.58984375 431.509765625 625.509765625 406.790039062 622.91015625 c 0
 387.91015625 620.919921875 369.41015625 619.059570312 351.25 617.309570312 c 1xa0
 349.0703125 638.83984375 331.580078125 656.25 309.26953125 657.629882812 c 0
 284.48046875 659.1796875 263.110351562 640.3203125 261.559570312 615.509765625 c 0
 261.440429688 613.509765625 261.309570312 611.5 261.16015625 609.490234375 c 0
 253.040039062 608.849609375 245 608.25 237.009765625 607.669921875 c 1
 237.759765625 611.389648438 238.51953125 615.16015625 239.280273438 618.969726562 c 0
 244.139648438 643.349609375 228.3203125 667.040039062 203.950195312 671.900390625 c 0
 179.5703125 676.759765625 155.879882812 660.950195312 151.01953125 636.5703125 c 0
 148.650390625 624.700195312 146.3203125 613.190429688 144.01953125 602.040039062 c 1
 128.76953125 601.309570312 113.740234375 600.6796875 98.91015625 600.16015625 c 0
 74.080078125 599.290039062 54.650390625 578.450195312 55.51953125 553.620117188 c 0
 56.3701171875 529.309570312 76.33984375 510.190429688 100.459960938 510.190429688 c 0
 100.990234375 510.190429688 101.530273438 510.200195312 102.0703125 510.219726562 c 0
 109.400390625 510.48046875 116.76953125 510.759765625 124.200195312 511.0703125 c 1
 121.150390625 497.940429688 118.16015625 485.549804688 115.25 473.900390625 c 0
 114.860351562 473.969726562 114.48046875 474.049804688 114.099609375 474.129882812 c 0
 89.75 479.099609375 65.98046875 463.400390625 61.009765625 439.049804688 c 0
 56.4296875 416.6796875 69.3203125 394.799804688 90.330078125 387.530273438 c 1
 84.3701171875 370.469726562 78.75 357.33984375 73.4296875 348.040039062 c 0
 61.08984375 326.469726562 68.580078125 298.969726562 90.150390625 286.639648438 c 0
 97.2001953125 282.610351562 104.870117188 280.690429688 112.450195312 280.690429688 c 0
 128.0703125 280.690429688 143.25 288.830078125 151.549804688 303.360351562 c 0
 159.860351562 317.889648438 169.400390625 338.330078125 181.23046875 375.5 c 1
 193.969726562 374.830078125 207.120117188 374.5 220.709960938 374.5 c 0
 222.040039062 374.5 223.379882812 374.5 224.73046875 374.509765625 c 1
 220.040039062 354.139648438 214.889648438 333.08984375 209.240234375 311.200195312 c 0
 203.030273438 287.139648438 217.5 262.599609375 241.5703125 256.389648438 c 0
 245.33984375 255.419921875 249.120117188 254.950195312 252.83984375 254.950195312 c 0
 272.870117188 254.950195312 291.150390625 268.4296875 296.379882812 288.719726562 c 0
 304.559570312 320.419921875 311.759765625 350.509765625 318.040039062 379.379882812 c 1
 343.719726562 381.76953125 370.809570312 385.040039062 399.459960938 389.190429688 c 0
 424.049804688 392.759765625 441.099609375 415.58984375 437.530273438 440.1796875 c 0
 433.969726562 464.780273438 411.129882812 481.830078125 386.540039062 478.259765625 c 0
 368.919921875 475.700195312 351.990234375 473.509765625 335.700195312 471.66015625 c 1
 338.709960938 490.16015625 341.3203125 508.290039062 343.549804688 526.190429688 c 1
 367.190429688 528.389648438 391.400390625 530.790039062 416.23046875 533.41015625 c 0xc0
243.240234375 464.790039062 m 1
 230.23046875 464.419921875 217.719726562 464.360351562 205.66015625 464.620117188 c 1
 209.469726562 480.23046875 213.459960938 497.330078125 217.66015625 516.120117188 c 1
 228.900390625 516.870117188 240.259765625 517.66015625 251.759765625 518.509765625 c 1
 249.3203125 500.959960938 246.490234375 483.099609375 243.240234375 464.790039062 c 1
EndSplineSet
EndChar

StartChar: dollar
Encoding: 36 36 3
Width: 428
Flags: W
HStem: 276.55 90.8301<67.5204 207.099>
VStem: 201.94 83.1094<183.33 271.749> 207.97 90.0303<208.126 277.48>
LayerCount: 2
Fore
SplineSet
370.23046875 336.129882812 m 0xa0
 355.030273438 315.719726562 330.73046875 300.690429688 296.75 290.830078125 c 1
 298 291 l 1xa0
 299.16015625 284.790039062 302.509765625 248.1796875 285.049804688 206.16015625 c 0
 277.860351562 188.860351562 261.110351562 178.419921875 243.469726562 178.419921875 c 0
 237.719726562 178.419921875 231.870117188 179.530273438 226.219726562 181.879882812 c 0
 203.26953125 191.419921875 192.400390625 217.75 201.940429688 240.700195312 c 0xc0
 208.83984375 257.309570312 208.049804688 269.650390625 207.83984375 271.860351562 c 1
 207.900390625 271.469726562 207.950195312 275.259765625 207.969726562 277.48046875 c 1
 207.110351562 277.440429688 206.240234375 277.389648438 205.370117188 277.349609375 c 0
 193.4296875 276.76953125 181.780273438 276.549804688 170.83984375 276.549804688 c 0
 131.51953125 276.549804688 101.349609375 279.469726562 99.75 279.629882812 c 0
 75.01953125 282.0703125 56.9404296875 304.099609375 59.3896484375 328.830078125 c 0
 61.830078125 353.559570312 83.849609375 371.629882812 108.58984375 369.190429688 c 0
 109.01953125 369.150390625 154.709960938 364.76953125 203.740234375 367.379882812 c 0
 276.240234375 371.23046875 294.700195312 386.450195312 297.639648438 389.440429688 c 0
 297.549804688 390.540039062 297.139648438 392.919921875 295.509765625 396.889648438 c 0
 279.259765625 436.599609375 226.620117188 444.76953125 159.490234375 451.330078125 c 0
 134.650390625 453.75 111.1796875 456.040039062 91.9599609375 461.9296875 c 0
 41.1396484375 477.509765625 36.1298828125 514.490234375 36.330078125 529.669921875 c 0
 36.5703125 547.540039062 42.6904296875 574.440429688 70.4697265625 601.030273438 c 0
 84.3603515625 614.330078125 102.8203125 626.75 125.330078125 637.959960938 c 0
 133.690429688 642.129882812 142.030273438 645.830078125 149.91015625 649.0703125 c 1
 147.969726562 651.5 146.25 654.169921875 144.809570312 657.0703125 c 2
 118.610351562 709.639648438 l 2
 107.51953125 731.879882812 116.559570312 758.900390625 138.799804688 769.990234375 c 0
 161.049804688 781.0703125 188.0703125 772.030273438 199.150390625 749.790039062 c 2
 225.360351562 697.219726562 l 2
 230.919921875 686.0703125 231.419921875 673.719726562 227.73046875 662.780273438 c 1
 239.450195312 657.370117188 248.759765625 646.969726562 252.33984375 633.51953125 c 0
 258.73046875 609.51953125 244.469726562 584.889648438 220.490234375 578.469726562 c 0
 220.110351562 578.370117188 195.240234375 571.58984375 169.66015625 559.450195312 c 0
 157.629882812 553.73046875 148.6796875 548.349609375 142.129882812 543.6796875 c 1
 150.990234375 542.580078125 160.469726562 541.66015625 168.240234375 540.900390625 c 0
 201.059570312 537.700195312 241.91015625 533.709960938 278.959960938 520.610351562 c 0
 327.959960938 503.290039062 361.559570312 473.129882812 378.809570312 430.98046875 c 0
 397.959960938 384.169921875 381.66015625 351.459960938 370.23046875 336.129882812 c 0xa0
EndSplineSet
EndChar

StartChar: percent
Encoding: 37 37 4
Width: 680
Flags: W
VStem: 355.765 89.9404<329.239 381.392>
LayerCount: 2
Fore
SplineSet
222.041992188 279.671875 m 0
 214.098632812 279.671875 206.056640625 281.775390625 198.767578125 286.19140625 c 0
 177.51171875 299.069335938 170.719726562 326.740234375 183.59765625 347.99609375 c 0
 251.880859375 460.702148438 307.823242188 546.779296875 353.942382812 609.829101562 c 1
 334.299804688 610.405273438 314.099609375 612.615234375 293.388671875 616.4609375 c 1
 284.60546875 584.868164062 268.758789062 555.924804688 247.309570312 532.850585938 c 0
 217.856445312 501.1640625 181.665039062 484.440429688 148.0390625 486.98046875 c 0
 144.297851562 487.26171875 140.607421875 488.009765625 137.051757812 489.208007812 c 0
 101.4453125 501.205078125 77.2529296875 516.625 60.9208984375 537.735351562 c 0
 41.15234375 563.286132812 36.869140625 592.333984375 35.3447265625 614.78515625 c 0
 35.1318359375 617.923828125 35.248046875 621.077148438 35.693359375 624.19140625 c 0
 41.4892578125 664.793945312 58.2001953125 695.55078125 85.3623046875 715.606445312 c 0
 115.981445312 738.212890625 156.36328125 745.1640625 208.823242188 736.861328125 c 0
 212.692382812 736.248046875 216.463867188 735.1328125 220.043945312 733.543945312 c 0
 305.083984375 695.795898438 386.052734375 689.526367188 448.033203125 715.884765625 c 0
 467.885742188 724.327148438 490.938476562 717.493164062 502.981445312 699.592773438 c 0
 515.024414062 681.693359375 512.66796875 657.763671875 497.366210938 642.555664062 c 0
 446.491210938 591.993164062 369.03515625 480.387695312 260.573242188 301.361328125 c 0
 252.111328125 287.39453125 237.259765625 279.671875 222.041992188 279.671875 c 0
125.533203125 616.030273438 m 0
 126.969726562 601.224609375 129.758789062 595.834960938 132.1015625 592.806640625 c 0
 136.165039062 587.555664062 144.819335938 582.366210938 157.877929688 577.338867188 c 0
 163.002929688 578.987304688 172.401367188 584.146484375 182.325195312 595.147460938 c 0
 189.403320312 602.993164062 200.748046875 618.366210938 206.9453125 641.446289062 c 1
 199.7890625 644.249023438 193.822265625 646.774414062 189.24609375 648.764648438 c 0
 165.703125 651.859375 147.91796875 649.919921875 138.819335938 643.202148438 c 0
 132.469726562 638.512695312 128.009765625 629.383789062 125.533203125 616.030273438 c 0
484.413085938 234.541992188 m 0
 476.083984375 234.541992188 471.305664062 235.923828125 468.653320312 236.690429688 c 0
 467.727539062 236.9453125 464.760742188 237.549804688 462.59375 237.993164062 c 0
 447.450195312 241.0859375 422.103515625 246.260742188 399.321289062 262.913085938 c 0
 378.375976562 278.22265625 353.817382812 307.630859375 355.764648438 360.79296875 c 0
 356.741210938 387.430664062 366.212890625 411.59375 383.159179688 430.669921875 c 0
 395.891601562 445.00390625 412.618164062 456.3828125 432.873046875 464.491210938 c 0
 463.1796875 476.623046875 492.2734375 477.603515625 495.490234375 477.67578125 c 1
 495.809570312 463.365234375 l 1
 521.141601562 474.189453125 553.861328125 468.2578125 585.311523438 446.674804688 c 0
 617.041015625 424.901367188 647.901367188 385.359375 639.358398438 339.680664062 c 0
 635.7265625 320.264648438 622.969726562 291.926757812 582.817382812 267.182617188 c 0
 566.100585938 256.881835938 545.518554688 247.822265625 524.86328125 241.668945312 c 0
 506.201171875 236.112304688 493.291015625 234.54296875 484.413085938 234.541992188 c 0
493.592773438 323.166992188 m 1
 493.610351562 323.162109375 493.625976562 323.157226562 493.643554688 323.15234375 c 1
 493.625976562 323.157226562 493.609375 323.162109375 493.592773438 323.166992188 c 1
484.1328125 324.521484375 m 1
 484.1328125 324.521484375 l 1
483.067382812 385.79296875 m 1
 477.537109375 384.697265625 471.075195312 382.986328125 464.837890625 380.325195312 c 0
 446.250976562 372.39453125 445.922851562 363.4296875 445.705078125 357.498046875 c 0
 444.9921875 338.030273438 448.124023438 332.805664062 480.600585938 326.173828125 c 0
 482.698242188 325.74609375 484.741210938 325.329101562 486.75 324.8828125 c 0
 493.0546875 325.99609375 507.401367188 329.669921875 522.930664062 336.997070312 c 0
 539.778320312 344.9453125 547.630859375 352.315429688 550.241210938 355.741210938 c 0
 548.99609375 358.401367188 545.731445312 363.223632812 539.66015625 368.420898438 c 0
 533.78515625 373.450195312 528.078125 376.447265625 524.54296875 377.831054688 c 0
 510.225585938 373.412109375 494.623046875 376.487304688 483.067382812 385.79296875 c 1
EndSplineSet
EndChar

StartChar: ampersand
Encoding: 38 38 5
Width: 390
Flags: W
VStem: 168.13 89.1699<165.797 280.69 660.33 745.344>
LayerCount: 2
Fore
SplineSet
329.6796875 317 m 0
 300.040039062 305.16015625 274.200195312 296.309570312 251.559570312 290.26953125 c 1
 256.169921875 282.639648438 258.559570312 273.580078125 257.919921875 264.009765625 c 0
 257.530273438 258.209960938 257.299804688 250.990234375 257.299804688 243.330078125 c 0
 257.299804688 225.129882812 258.610351562 204.41015625 262.240234375 194.219726562 c 0
 270.580078125 170.809570312 258.349609375 145.0703125 234.940429688 136.740234375 c 0
 229.950195312 134.959960938 224.860351562 134.120117188 219.849609375 134.120117188 c 0
 201.349609375 134.120117188 184.009765625 145.610351562 177.450195312 164.040039062 c 0
 164.219726562 201.209960938 167.360351562 258.919921875 168.129882812 270.110351562 c 0
 168.379882812 273.83984375 169.08984375 277.440429688 170.1796875 280.849609375 c 1
 155.5 282.23046875 142.280273438 285.759765625 130.299804688 291.450195312 c 0
 102.120117188 304.830078125 82.2197265625 329.51953125 71.150390625 364.830078125 c 0
 70.73046875 366.190429688 70.3701171875 367.559570312 70.0703125 368.950195312 c 0
 64 397.559570312 70.1298828125 426.650390625 87.3203125 450.860351562 c 0
 92.8095703125 458.580078125 99.26953125 465.719726562 106.700195312 472.259765625 c 1
 76.4296875 485.719726562 53.419921875 502.219726562 41.8203125 525.1796875 c 0
 32.3603515625 543.889648438 31.509765625 565.209960938 39.4404296875 585.190429688 c 0
 40.8095703125 588.629882812 42.58984375 591.889648438 44.759765625 594.889648438 c 0
 60 616.040039062 82.16015625 633.469726562 108.83984375 645.299804688 c 0
 125.690429688 652.780273438 143.530273438 657.509765625 160.889648438 659.23046875 c 1
 164.8203125 682.650390625 165 708.530273438 165 708.809570312 c 0
 165.059570312 733.629882812 185.200195312 753.709960938 210 753.709960938 c 2
 210.110351562 753.709960938 l 2
 234.959960938 753.650390625 255.059570312 733.450195312 255 708.599609375 c 0
 255 706.969726562 254.830078125 668.940429688 247.919921875 634.969726562 c 1
 257.6796875 626.549804688 265.639648438 616.190429688 271.370117188 604.169921875 c 0
 282.059570312 581.740234375 272.540039062 554.879882812 250.099609375 544.190429688 c 0
 227.669921875 533.5 200.809570312 543.01953125 190.120117188 565.459960938 c 0
 188.740234375 568.370117188 183.509765625 569.419921875 179.370117188 569.790039062 c 0
 165.900390625 571.009765625 149.139648438 566.08984375 135.740234375 558.009765625 c 1
 141.889648438 554.940429688 150.5 551.219726562 162.490234375 546.950195312 c 0
 188.099609375 537.83984375 220.209960938 529.400390625 251.26953125 521.240234375 c 2
 253.919921875 520.540039062 l 2
 274.759765625 515.0703125 288.790039062 495.58984375 287.389648438 474.08984375 c 0
 285.98046875 452.58984375 269.540039062 435.099609375 248.169921875 432.379882812 c 0
 183.309570312 424.129882812 164.8203125 404.549804688 160.700195312 398.740234375 c 0
 158.370117188 395.459960938 157.490234375 392.620117188 157.849609375 389.280273438 c 0
 162.51953125 375.780273438 167.290039062 373.51953125 168.91015625 372.740234375 c 0
 172.809570312 370.889648438 182.690429688 368.349609375 205.08984375 372.080078125 c 0
 228.049804688 375.91015625 257.879882812 385.23046875 296.280273438 400.5703125 c 0
 319.370117188 409.790039062 345.549804688 398.559570312 354.76953125 375.48046875 c 0
 363.990234375 352.400390625 352.759765625 326.219726562 329.6796875 317 c 0
EndSplineSet
EndChar

StartChar: quotesingle
Encoding: 39 39 6
Width: 178
Flags: W
HStem: 503.836 190.898
LayerCount: 2
Fore
SplineSet
106.985351562 503.8359375 m 0
 91.2333984375 503.8359375 75.9453125 512.118164062 67.693359375 526.834960938 c 0
 61.9560546875 537.067382812 48.0869140625 574.334960938 26.4716796875 637.602539062 c 0
 18.4365234375 661.12109375 30.9892578125 686.700195312 54.5068359375 694.734375 c 0
 78.029296875 702.76953125 103.603515625 690.216796875 111.638671875 666.69921875 c 0
 125.14453125 627.16796875 142.243164062 579.311523438 146.584960938 570.138671875 c 0
 158.178710938 548.576171875 150.392578125 521.615234375 128.952148438 509.592773438 c 0
 121.9921875 505.690429688 114.435546875 503.8359375 106.985351562 503.8359375 c 0
146.1953125 570.852539062 m 1
 146.276367188 570.70703125 146.357421875 570.560546875 146.436523438 570.415039062 c 1
 146.350585938 570.575195312 146.26953125 570.719726562 146.1953125 570.852539062 c 1
EndSplineSet
EndChar

StartChar: parenleft
Encoding: 40 40 7
Width: 296
Flags: W
VStem: 71.334 199.217
LayerCount: 2
Fore
SplineSet
225.577148438 195.249023438 m 0
 217.7890625 195.248046875 209.90234375 197.26953125 202.713867188 201.521484375 c 0
 167.747070312 222.19921875 131.435546875 245.563476562 105.494140625 283.509765625 c 0
 77.939453125 323.817382812 66.7646484375 374.68359375 71.333984375 439.01953125 c 0
 71.40625 440.030273438 71.51171875 441.037109375 71.6513671875 442.0390625 c 0
 81.828125 515.124023438 107.5703125 616.591796875 213.153320312 653.797851562 c 0
 236.59375 662.060546875 262.291015625 649.751953125 270.55078125 626.311523438 c 0
 278.810546875 602.872070312 266.50390625 577.173828125 243.065429688 568.9140625 c 0
 197.004882812 552.68359375 172.418945312 511.4453125 161.002929688 431.141601562 c 1
 154.84375 339.06640625 188.579101562 314.438476562 248.524414062 278.990234375 c 0
 269.916992188 266.33984375 277.002929688 238.743164062 264.352539062 217.349609375 c 0
 255.954101562 203.147460938 240.962890625 195.25 225.577148438 195.249023438 c 0
EndSplineSet
EndChar

StartChar: parenright
Encoding: 41 41 8
Width: 300
Flags: W
VStem: 30.0957 220.074
LayerCount: 2
Fore
SplineSet
138.017578125 182.971679688 m 0
 127.884765625 182.970703125 117.6953125 186.375 109.291015625 193.356445312 c 0
 90.171875 209.235351562 87.5458984375 237.606445312 103.424804688 256.723632812 c 0
 149.265625 311.91796875 168.69140625 372.859375 161.166992188 437.870117188 c 0
 150.353515625 503.471679688 117.735351562 543.666992188 55.5048828125 568.139648438 c 0
 32.3759765625 577.235351562 21 603.358398438 30.095703125 626.487304688 c 0
 39.1923828125 649.616210938 65.314453125 660.990234375 88.443359375 651.897460938 c 0
 180.110351562 615.84765625 234.522460938 548.3515625 250.169921875 451.282226562 c 0
 250.267578125 450.676757812 250.352539062 450.0703125 250.424804688 449.4609375 c 0
 256.53515625 398.33984375 250.674804688 348.526367188 233.0078125 301.40234375 c 0
 219.62109375 265.696289062 199.318359375 231.319335938 172.66015625 199.22265625 c 0
 163.760742188 188.506835938 150.935546875 182.971679688 138.017578125 182.971679688 c 0
EndSplineSet
EndChar

StartChar: asterisk
Encoding: 42 42 9
Width: 378
Flags: W
HStem: 554.47 20.3701G<137.86 149.38 267.365 278.895> 605.49 88.7002<46.8085 98.9125>
VStem: 41.5898 298.34
LayerCount: 2
Fore
SplineSet
339.9296875 669.309570312 m 0
 338.950195312 649.740234375 325.629882812 633.709960938 307.860351562 628.419921875 c 1
 308.25 627.950195312 308.620117188 627.490234375 308.990234375 627.030273438 c 0
 324.559570312 607.66015625 321.48046875 579.330078125 302.110351562 563.759765625 c 0
 293.799804688 557.080078125 283.83984375 553.83984375 273.950195312 553.83984375 c 0
 260.780273438 553.83984375 247.73046875 559.580078125 238.83984375 570.650390625 c 0
 230.030273438 581.599609375 219.83984375 593.26953125 209.150390625 604.950195312 c 1
 176.549804688 569.16015625 l 2
 167.669921875 559.419921875 155.490234375 554.469726562 143.26953125 554.469726562 c 0
 132.450195312 554.469726562 121.599609375 558.33984375 112.98046875 566.200195312 c 0
 101.08984375 577.030273438 96.33984375 592.759765625 99 607.490234375 c 1
 97.1201171875 607.059570312 96.080078125 606.809570312 95.98046875 606.780273438 c 0
 92.400390625 605.91015625 88.8095703125 605.490234375 85.26953125 605.490234375 c 0
 65.01953125 605.490234375 46.6201171875 619.25 41.58984375 639.799804688 c 0
 35.6796875 663.919921875 50.4296875 688.26953125 74.5498046875 694.190429688 c 0
 76.1298828125 694.580078125 90.0595703125 697.950195312 112.059570312 702.009765625 c 1
 96.240234375 719.049804688 95.9296875 745.66015625 111.950195312 763.0703125 c 0
 128.780273438 781.360351562 157.240234375 782.540039062 175.530273438 765.719726562 c 0
 176.83984375 764.530273438 189.25 753.0703125 206.8203125 736.030273438 c 1
 229.860351562 761.330078125 l 2
 246.58984375 779.700195312 275.059570312 781.01953125 293.4296875 764.290039062 c 0
 307.400390625 751.559570312 311.51953125 732.049804688 305.3203125 715.349609375 c 1
 326.080078125 710.490234375 341.030273438 691.360351562 339.9296875 669.309570312 c 0
EndSplineSet
EndChar

StartChar: plus
Encoding: 43 43 10
Width: 418
Flags: W
HStem: 430.07 88.8301<43.806 145.644> 462.54 90.9502<239.9 335.986> 476.43 90<241.889 376.21>
VStem: 147.41 89.4502<392.117 444.3 553.49 649.061> 150.45 89.4502<343.421 444.3 553.49 600.887>
LayerCount: 2
Fore
SplineSet
382.969726562 520.8203125 m 0x30
 382.639648438 496.1796875 362.559570312 476.419921875 337.990234375 476.419921875 c 0
 337.790039062 476.419921875 337.580078125 476.419921875 337.379882812 476.4296875 c 2
 336.469726562 476.4296875 l 2x30
 319.559570312 476.4296875 282.419921875 470.580078125 239.900390625 462.540039062 c 1x48
 242.580078125 381.98046875 l 2
 243.41015625 357.139648438 223.940429688 336.33984375 199.099609375 335.509765625 c 0
 198.599609375 335.490234375 198.080078125 335.48046875 197.580078125 335.48046875 c 0
 173.419921875 335.48046875 153.440429688 354.650390625 152.629882812 378.98046875 c 2
 150.450195312 444.299804688 l 1
 129.309570312 439.73046875 109.3203125 435.23046875 92.240234375 431.25 c 0
 88.7998046875 430.450195312 85.3701171875 430.0703125 81.98046875 430.0703125 c 0
 61.5400390625 430.0703125 43.0400390625 444.08984375 38.2001953125 464.860351562 c 0
 32.5498046875 489.059570312 47.599609375 513.259765625 71.7998046875 518.900390625 c 0x88
 79.5595703125 520.709960938 109.599609375 527.66015625 147.41015625 535.700195312 c 1
 144.91015625 610.620117188 l 2
 144.080078125 635.459960938 163.549804688 656.26953125 188.389648438 657.099609375 c 0
 213.209960938 657.9296875 234.030273438 638.459960938 234.860351562 613.620117188 c 2
 236.860351562 553.490234375 l 1x50
 277.48046875 560.849609375 315.419921875 566.4296875 337.009765625 566.4296875 c 0
 337.549804688 566.4296875 338.059570312 566.419921875 338.580078125 566.419921875 c 0
 363.4296875 566.080078125 383.309570312 545.669921875 382.969726562 520.8203125 c 0x30
EndSplineSet
EndChar

StartChar: comma
Encoding: 44 44 11
Width: 158
Flags: W
HStem: 193.862 179.659<37.7769 102.922>
VStem: 30.4941 70.5029<195.982 280.115> 34.1533 86.0332<267.468 369.985>
LayerCount: 2
Fore
SplineSet
65.7158203125 193.862304688 m 0xc0
 55.9150390625 193.862304688 46.0478515625 197.047851562 37.7744140625 203.61328125 c 0
 18.3056640625 219.060546875 15.0458984375 247.3671875 30.494140625 266.834960938 c 0xc0
 41.0322265625 280.115234375 36.8642578125 308.466796875 34.1533203125 317.291992188 c 0
 26.8564453125 341.049804688 40.2001953125 366.223632812 63.9580078125 373.521484375 c 0
 87.7158203125 380.817382812 112.889648438 367.473632812 120.186523438 343.716796875 c 0xa0
 122.649414062 335.700195312 143.029296875 263.866210938 100.997070312 210.893554688 c 0
 92.11328125 199.698242188 78.9765625 193.862304688 65.7158203125 193.862304688 c 0xc0
EndSplineSet
EndChar

StartChar: hyphen
Encoding: 45 45 12
Width: 331
Flags: W
HStem: 457.78 90.4414<42.5115 265.282>
VStem: 35.6934 252.421
LayerCount: 2
Fore
SplineSet
99.1025390625 457.780273438 m 0
 92.205078125 457.780273438 85.2021484375 457.962890625 78.0810546875 458.366210938 c 0
 53.267578125 459.768554688 34.2900390625 481.021484375 35.693359375 505.833984375 c 0
 37.095703125 530.647460938 58.34375 549.625976562 83.1611328125 548.221679688 c 0
 118.100585938 546.247070312 151.534179688 551.267578125 186.927734375 556.583984375 c 0
 203.500976562 559.07421875 220.639648438 561.6484375 238.504882812 563.59375 c 0
 263.206054688 566.284179688 285.421875 548.440429688 288.114257812 523.732421875 c 0
 290.8046875 499.025390625 272.958984375 476.815429688 248.252929688 474.123046875 c 0
 232.202148438 472.374023438 215.982421875 469.938476562 200.295898438 467.58203125 c 0
 168.124023438 462.75 135.032226562 457.780273438 99.1025390625 457.780273438 c 0
EndSplineSet
EndChar

StartChar: period
Encoding: 46 46 13
Width: 174
Flags: W
VStem: 45.9561 89.6396<268.98 361.472>
LayerCount: 2
Fore
SplineSet
94.271484375 260.41015625 m 0
 88.3095703125 260.41015625 82.251953125 261.600585938 76.431640625 264.118164062 c 0
 61.9365234375 270.385742188 51.1142578125 281.796875 45.9560546875 296.25 c 0
 37.9912109375 318.567382812 46.869140625 338.677734375 49.7802734375 344.309570312 c 0
 61.189453125 366.388671875 88.3369140625 375.038085938 110.416992188 363.625976562 c 0
 125.40234375 355.880859375 134.200195312 340.88671875 134.739257812 325.1484375 c 1
 140.290039062 313.755859375 141.01953125 300.102539062 135.595703125 287.559570312 c 0
 128.25 270.568359375 111.676757812 260.41015625 94.271484375 260.41015625 c 0
EndSplineSet
EndChar

StartChar: slash
Encoding: 47 47 14
Width: 276
Flags: W
LayerCount: 2
Fore
SplineSet
81.484375 280.130859375 m 0
 75.6083984375 280.130859375 69.63671875 281.288085938 63.888671875 283.734375 c 0
 41.01953125 293.462890625 30.3671875 319.888671875 40.095703125 342.758789062 c 0
 99.111328125 481.486328125 137.17578125 588.120117188 147.306640625 622.748046875 c 0
 154.286132812 646.600585938 179.283203125 660.280273438 203.131835938 653.301757812 c 0
 226.985351562 646.323242188 240.6640625 621.330078125 233.685546875 597.4765625 c 0
 220.26171875 551.59375 176.876953125 434.379882812 122.9140625 307.528320312 c 0
 115.629882812 290.405273438 98.986328125 280.130859375 81.484375 280.130859375 c 0
EndSplineSet
EndChar

StartChar: zero
Encoding: 48 48 15
Width: 422
Flags: W
HStem: 272.458 90<139.419 234.315>
VStem: 33.5273 89.9541<386.9 494.659> 296.492 89.9541<421.608 528.593>
LayerCount: 2
Fore
SplineSet
174.672851562 272.458007812 m 0
 125.444335938 272.456054688 84.4853515625 297.14453125 59.29296875 342.016601562 c 0
 36.95703125 381.801757812 33.923828125 424.837890625 33.52734375 437.080078125 c 0
 31.8837890625 487.669921875 69.9169921875 546.015625 81.6123046875 562.693359375 c 0
 101.845703125 591.543945312 143.987304688 641.711914062 198.889648438 653.541015625 c 0
 218.147460938 657.690429688 237.174804688 648.84375 246.848632812 632.904296875 c 1
 268.716796875 632.130859375 289.923828125 626.146484375 308.845703125 615.326171875 c 0
 333.489257812 601.235351562 353.869140625 579.44921875 367.78515625 552.323242188 c 0
 380.849609375 526.85546875 387.303710938 498.595703125 386.446289062 470.600585938 c 0
 385.004882812 423.510742188 359.548828125 373.743164062 316.60546875 334.057617188 c 0
 274.4140625 295.067382812 222.857421875 272.615234375 175.15625 272.458984375 c 0
 174.999023438 272.458007812 174.833007812 272.458007812 174.672851562 272.458007812 c 0
163.697265625 522.28515625 m 1
 160.844726562 518.684570312 158.038085938 514.921875 155.299804688 511.016601562 c 0
 133.05078125 479.291015625 123.16015625 449.884765625 123.481445312 440 c 0
 123.932617188 426.061523438 127.947265625 403.576171875 137.772460938 386.076171875 c 0
 149.415039062 365.336914062 162.916015625 362.458007812 174.624023438 362.458007812 c 0
 174.704101562 362.458007812 174.783203125 362.458007812 174.86328125 362.458007812 c 0
 199.543945312 362.5390625 230.452148438 376.984375 255.525390625 400.155273438 c 0
 280.107421875 422.87109375 295.803710938 450.919921875 296.4921875 473.35546875 c 0
 297.283203125 499.186523438 283.69140625 526.03515625 264.173828125 537.196289062 c 0
 246.456054688 547.327148438 224.36328125 544.19921875 198.512695312 527.900390625 c 0
 187.728515625 521.1015625 175.1640625 519.44921875 163.697265625 522.28515625 c 1
EndSplineSet
EndChar

StartChar: one
Encoding: 49 49 16
Width: 268
Flags: W
VStem: 144.069 89.8926<291.136 521.612>
LayerCount: 2
Fore
SplineSet
186.041992188 282.569335938 m 0
 161.899414062 282.567382812 141.928710938 301.71484375 141.096679688 326.03125 c 0
 139.30078125 378.516601562 141.833984375 430.153320312 144.069335938 475.709960938 c 0
 144.838867188 491.380859375 145.592773438 506.771484375 146.140625 521.612304688 c 1
 131.002929688 513.033203125 114.059570312 504.35546875 95.146484375 495.467773438 c 0
 72.65234375 484.901367188 45.8505859375 494.56640625 35.28125 517.059570312 c 0
 24.712890625 539.553710938 34.3798828125 566.356445312 56.873046875 576.924804688 c 0
 106.041015625 600.02734375 139.53125 621.241210938 156.413085938 639.98046875 c 0
 168.3203125 653.198242188 186.897460938 658.16015625 203.807617188 652.639648438 c 0
 220.719726562 647.12109375 232.79296875 632.157226562 234.612304688 614.459960938 c 0
 238.924804688 572.478515625 236.513671875 523.33203125 233.961914062 471.298828125 c 0
 231.708007812 425.356445312 229.376953125 377.84765625 231.044921875 329.107421875 c 0
 231.89453125 304.268554688 212.448242188 283.4453125 187.610351562 282.59375 c 0
 187.0859375 282.578125 186.561523438 282.569335938 186.041992188 282.569335938 c 0
EndSplineSet
EndChar

StartChar: two
Encoding: 50 50 17
Width: 376
Flags: W
HStem: 290.444 91.5537<172.171 333.248> 544.099 89.8594<43.119 170.224>
VStem: 36.498 306.859
LayerCount: 2
Fore
SplineSet
205.560546875 290.444335938 m 0
 189.541992188 290.444335938 175.495117188 291.1171875 163.276367188 292.458984375 c 0
 143.887695312 294.588867188 128.494140625 298.491210938 116.213867188 304.387695312 c 0
 94.7412109375 314.701171875 85.3046875 329.916015625 81.1611328125 341.3671875 c 0
 74.083984375 356.672851562 73.6533203125 374.615234375 79.8984375 394.825195312 c 0
 83.8701171875 407.680664062 90.5380859375 421.899414062 100.879882812 439.568359375 c 0
 117.772460938 468.424804688 142.791015625 503.27734375 169.280273438 540.17578125 c 0
 170.252929688 541.53125 171.228515625 542.890625 172.20703125 544.252929688 c 1
 137.383789062 547.092773438 100.298828125 545.015625 83.9443359375 544.098632812 c 0
 59.1240234375 542.708984375 37.8876953125 561.69921875 36.498046875 586.51171875 c 0
 35.1083984375 611.326171875 54.0966796875 632.568359375 78.9111328125 633.958007812 c 0
 168.4453125 638.97265625 226.416992188 632.64453125 266.880859375 613.44140625 c 0
 278.815429688 607.77734375 287.657226562 597.155273438 291.064453125 584.391601562 c 0
 294.470703125 571.62890625 292.09765625 558.013671875 284.57421875 547.15625 c 0
 270.423828125 526.736328125 256.173828125 506.885742188 242.391601562 487.689453125 c 0
 221.46875 458.54296875 201.705078125 431.012695312 187.15234375 408.133789062 c 0
 179.93359375 396.788085938 175.10546875 388.2734375 171.876953125 381.998046875 c 1
 189.887695312 379.930664062 225.643554688 378.927734375 294.170898438 385.662109375 c 0
 318.904296875 388.088867188 340.926757812 370.012695312 343.357421875 345.279296875 c 0
 345.788085938 320.545898438 327.708007812 298.524414062 302.973632812 296.092773438 c 0
 264.58203125 292.322265625 232.322265625 290.444335938 205.560546875 290.444335938 c 0
EndSplineSet
EndChar

StartChar: three
Encoding: 51 51 18
Width: 410
Flags: W
HStem: 301.812 90.6123<101.06 287.671> 555.27 86.499<34.9428 202.663>
LayerCount: 2
Fore
SplineSet
229.182617188 301.811523438 m 0
 201.575195312 301.811523438 169.404296875 303.551757812 131.938476562 306.921875 c 0
 107.185546875 309.149414062 88.923828125 331.01953125 91.1513671875 355.7734375 c 0
 93.3779296875 380.526367188 115.248046875 398.787109375 140.001953125 396.560546875 c 0
 186.073242188 392.416992188 223.681640625 391.026367188 251.786132812 392.423828125 c 0
 270.897460938 393.375976562 282.77734375 395.453125 289.880859375 397.294921875 c 1
 286.018554688 413.41015625 270.633789062 444.734375 183.96484375 455.467773438 c 0
 165.168945312 457.795898438 149.840820312 471.643554688 145.625 490.109375 c 0
 141.408203125 508.57421875 149.205078125 527.702148438 165.126953125 537.958007812 c 0
 186.473632812 551.708007812 197.958984375 562.799804688 204.014648438 571.495117188 c 1
 180.502929688 573.848632812 142.274414062 571.240234375 86.70703125 555.26953125 c 0
 62.822265625 548.40625 37.892578125 562.204101562 31.0283203125 586.08984375 c 0
 24.1640625 609.975585938 37.9619140625 634.904296875 61.84765625 641.768554688 c 0
 129.291015625 661.151367188 221.583984375 676.646484375 278.26171875 640.397460938 c 0
 288.653320312 633.750976562 295.861328125 623.130859375 298.200195312 611.01953125 c 0
 304.052734375 580.715820312 297.883789062 550.668945312 280.35546875 523.76953125 c 1
 296.861328125 516.924804688 311.3984375 508.650390625 324.126953125 498.889648438 c 0
 353.9609375 476.012695312 372.478515625 445.956054688 379.20703125 409.505859375 c 0
 386.450195312 385.147460938 382.478515625 361.643554688 367.85546875 342.932617188 c 0
 345.848632812 314.771484375 304.516601562 301.811523438 229.182617188 301.811523438 c 0
EndSplineSet
EndChar

StartChar: four
Encoding: 52 52 19
Width: 346
Flags: W
HStem: 414.77 92.4102<123.94 222.639>
VStem: 34.6797 88.7305<505.807 507.18 508.062 571.031 632.09 655.57> 228.95 89.9502<309.487 426.02 514.034 675.8>
LayerCount: 2
Fore
SplineSet
275.33984375 302.709960938 m 0
 274.860351562 302.700195312 274.379882812 302.690429688 273.900390625 302.690429688 c 0
 249.700195312 302.690429688 229.709960938 321.919921875 228.950195312 346.280273438 c 2
 228.419921875 362.860351562 l 2
 227.759765625 383.790039062 227.08984375 404.879882812 226.5 426.01953125 c 1
 199.440429688 418.5 174.219726562 414.76953125 149.870117188 414.76953125 c 0
 120.4296875 414.76953125 92.259765625 420.209960938 63.6103515625 430.98046875 c 0
 47.6201171875 436.990234375 36.41015625 451.540039062 34.6796875 468.540039062 c 0
 30.7001953125 507.5703125 35.5302734375 542.33984375 40.6396484375 579.150390625 c 0
 43 596.120117188 45.4404296875 613.669921875 47.009765625 632.08984375 c 0
 49.1201171875 656.849609375 70.91015625 675.209960938 95.6796875 673.08984375 c 0
 120.440429688 670.98046875 138.799804688 649.190429688 136.6796875 624.4296875 c 0
 134.91015625 603.650390625 132.299804688 584.900390625 129.790039062 566.76953125 c 0
 126.8203125 545.4296875 124.120117188 525.990234375 123.41015625 507.1796875 c 1
 150.080078125 502.190429688 180.940429688 504.26953125 224.6796875 519.809570312 c 1
 224.349609375 561.120117188 224.809570312 601.900390625 226.709960938 641.26953125 c 0
 227.91015625 666.08984375 248.98046875 685.25 273.830078125 684.049804688 c 0
 298.650390625 682.849609375 317.799804688 661.759765625 316.610351562 636.940429688 c 0
 312.490234375 551.5 315.48046875 457.049804688 318.379882812 365.709960938 c 2
 318.900390625 349.099609375 l 2
 319.6796875 324.259765625 300.1796875 303.490234375 275.33984375 302.709960938 c 0
EndSplineSet
EndChar

StartChar: five
Encoding: 53 53 20
Width: 398
Flags: W
HStem: 587.82 87.1396<213.85 353.487>
VStem: 29.6602 328.09
LayerCount: 2
Fore
SplineSet
355.459960938 414.16015625 m 0
 360.080078125 360.669921875 337.849609375 329.549804688 318.389648438 312.860351562 c 0
 292.6796875 290.809570312 256.030273438 279.8203125 207.58984375 279.8203125 c 0
 171.969726562 279.8203125 129.990234375 285.759765625 81.2900390625 297.629882812 c 0
 72.169921875 299.849609375 63.98046875 304.860351562 57.849609375 311.969726562 c 0
 33.25 340.51953125 34.6103515625 385.280273438 60.9296875 413.879882812 c 0
 77.76953125 432.16015625 106.23046875 433.33984375 124.51953125 416.509765625 c 0
 135.790039062 406.129882812 140.559570312 391.33984375 138.620117188 377.240234375 c 1
 229.129882812 360.190429688 255.150390625 377.190429688 259.799804688 381.1796875 c 0
 261.709960938 382.8203125 266.540039062 386.959960938 266.049804688 402.150390625 c 0
 263.559570312 406.3203125 252.5703125 417.3203125 220.950195312 429.040039062 c 0
 184.620117188 442.509765625 133.08984375 452.91015625 67.7900390625 459.959960938 c 0
 54.419921875 461.41015625 42.3896484375 468.759765625 35.009765625 480.009765625 c 0
 27.6201171875 491.259765625 25.66015625 505.219726562 29.66015625 518.059570312 c 0
 33.7802734375 531.299804688 40.490234375 545.0703125 49.75 559.299804688 c 1
 38.2099609375 566.639648438 30.150390625 579.110351562 29 593.780273438 c 0
 27.0595703125 618.549804688 45.580078125 640.209960938 70.349609375 642.150390625 c 0
 150.16015625 648.400390625 228.009765625 655.610351562 302.9296875 674.959960938 c 0
 326.990234375 681.1796875 351.530273438 666.709960938 357.75 642.650390625 c 0
 363.969726562 618.580078125 349.5 594.040039062 325.440429688 587.8203125 c 0
 273.889648438 574.509765625 222.26953125 566.540039062 170.1796875 560.830078125 c 1
 161.830078125 553.150390625 154.73046875 546.080078125 148.690429688 539.629882812 c 1
 189.450195312 532.620117188 224.110351562 523.849609375 252.23046875 513.4296875 c 0
 278.5 503.690429688 299.1796875 492.610351562 315.4296875 479.559570312 c 0
 336.580078125 462.559570312 349.76953125 442.4296875 354.629882812 419.709960938 c 0
 355.030273438 417.879882812 355.299804688 416.01953125 355.459960938 414.16015625 c 0
EndSplineSet
EndChar

StartChar: six
Encoding: 54 54 21
Width: 392
Flags: W
HStem: 234.903 90.0215<201.57 251.667>
VStem: 36.5947 89.9717<406.35 522.503>
LayerCount: 2
Fore
SplineSet
214.028320312 234.899414062 m 0
 213.828125 234.899414062 213.627929688 234.900390625 213.426757812 234.903320312 c 0
 162.224609375 235.587890625 118.771484375 254.982421875 87.763671875 290.990234375 c 0
 56.3916015625 327.420898438 39.17578125 379.072265625 36.5947265625 444.505859375 c 0
 36.5693359375 445.153320312 36.5576171875 445.80078125 36.5595703125 446.450195312 c 0
 36.73046875 491.866210938 48.7587890625 534.576171875 71.3447265625 569.96484375 c 0
 94.0458984375 605.533203125 126.91796875 633.096679688 166.408203125 649.67578125 c 0
 189.3203125 659.296875 215.698242188 648.51953125 225.3203125 625.603515625 c 0
 234.94140625 602.689453125 224.1640625 576.313476562 201.248046875 566.692382812 c 0
 154.258789062 546.963867188 127.077148438 503.396484375 126.56640625 447.060546875 c 0
 127.208984375 431.936523438 128.857421875 417.998046875 131.462890625 405.409179688 c 1
 139.703125 420.212890625 150.182617188 433.942382812 162.627929688 446.041992188 c 0
 189.733398438 472.397460938 223.873046875 488.641601562 256.291992188 490.610351562 c 0
 279.713867188 492.03125 301.419921875 486.083007812 319.056640625 473.40625 c 0
 337.868164062 459.884765625 351.051757812 439.336914062 357.18359375 413.983398438 c 0
 357.486328125 412.736328125 357.734375 411.4765625 357.926757812 410.208984375 c 0
 364.107421875 369.809570312 350.924804688 325.060546875 322.666992188 290.505859375 c 0
 294.981445312 256.65234375 257.166992188 236.921875 216.190429688 234.951171875 c 0
 215.470703125 234.916992188 214.749023438 234.899414062 214.028320312 234.899414062 c 0
199.359375 326.157226562 m 1
 203.728515625 325.458007812 208.315429688 325.048828125 213.129882812 324.924804688 c 0
 232.932617188 326.393554688 246.565429688 339.6171875 252.99609375 347.481445312 c 0
 264.509765625 361.559570312 270.744140625 379.852539062 269.206054688 394.68359375 c 0
 267.904296875 399.061523438 266.537109375 400.318359375 266.522460938 400.330078125 c 0
 265.094726562 401.162109375 257.001953125 401.666992188 245.0703125 395.711914062 c 0
 225.475585938 385.932617188 204.151367188 362.735351562 200.6796875 332.955078125 c 0
 200.41015625 330.622070312 199.96484375 328.352539062 199.359375 326.157226562 c 1
EndSplineSet
EndChar

StartChar: seven
Encoding: 55 55 22
Width: 400
Flags: W
HStem: 528.04 127.76<39.8663 118.997>
LayerCount: 2
Fore
SplineSet
327.610351562 409.01953125 m 0
 309.870117188 407.559570312 291.870117188 405.23046875 274.5703125 402.240234375 c 1
 260.209960938 370.860351562 243.990234375 337.190429688 225.780273438 300.950195312 c 0
 217.879882812 285.219726562 202.009765625 276.139648438 185.530273438 276.139648438 c 0
 178.740234375 276.139648438 171.849609375 277.6796875 165.370117188 280.940429688 c 0
 143.16015625 292.08984375 134.200195312 319.139648438 145.360351562 341.349609375 c 0
 150.330078125 351.25 155.150390625 360.940429688 159.809570312 370.419921875 c 1
 143.299804688 370.469726562 127.419921875 379.629882812 119.58984375 395.4296875 c 0
 108.549804688 417.700195312 117.639648438 444.700195312 139.91015625 455.740234375 c 0
 160.41015625 465.91015625 185.190429688 474.190429688 211.030273438 480.75 c 1
 227.219726562 518.290039062 240.169921875 551.860351562 250.1796875 582.190429688 c 1
 213.580078125 585.940429688 170.889648438 583.5 122.530273438 574.870117188 c 1
 125.370117188 556.259765625 116.259765625 537.120117188 98.599609375 528.040039062 c 0
 76.490234375 516.6796875 49.3603515625 525.389648438 38 547.5 c 0
 22.5302734375 577.620117188 23.4697265625 609.080078125 40.66015625 636.0703125 c 0
 47.0498046875 646.099609375 57.150390625 653.190429688 68.75 655.799804688 c 0
 170.080078125 678.580078125 252.26953125 679.98046875 320.009765625 660.080078125 c 0
 343.280273438 653.25 356.940429688 629.200195312 350.91015625 605.709960938 c 0
 342.639648438 573.51953125 330.98046875 538.0703125 315.509765625 498.3203125 c 1
 317.110351562 498.459960938 318.690429688 498.58984375 320.25 498.719726562 c 0
 345.01953125 500.740234375 366.75 482.309570312 368.780273438 457.540039062 c 0
 370.809570312 432.76953125 352.379882812 411.049804688 327.610351562 409.01953125 c 0
EndSplineSet
EndChar

StartChar: eight
Encoding: 56 56 23
Width: 370
Flags: W
HStem: 236.081 90.0107<164.428 245.346>
LayerCount: 2
Fore
SplineSet
205.106445312 236.081054688 m 0
 204.747070312 236.081054688 204.38671875 236.084960938 204.029296875 236.09375 c 0
 146.001953125 237.48046875 109.325195312 249.879882812 88.60546875 275.116210938 c 0
 74.916015625 291.7890625 69.3896484375 313.297851562 72.986328125 335.805664062 c 0
 79.0947265625 382.48828125 108.616210938 417.319335938 140.880859375 444.024414062 c 1
 123.76171875 455.372070312 104.560546875 467.6171875 83.1845703125 480.826171875 c 0
 77.345703125 484.43359375 72.62109375 489.159179688 69.1142578125 494.555664062 c 1
 48.8388671875 490.10546875 27.5126953125 500.215820312 18.5576171875 519.8671875 c 0
 8.251953125 542.482421875 18.23046875 569.169921875 40.8447265625 579.475585938 c 0
 93.8310546875 603.623046875 136.991210938 615.959960938 176.671875 618.302734375 c 0
 231.083984375 621.51171875 277.06640625 605.15234375 313.338867188 569.668945312 c 0
 316.12890625 566.939453125 318.552734375 563.858398438 320.547851562 560.502929688 c 0
 327.484375 548.840820312 334.221679688 529.497070312 326.935546875 503.56640625 c 0
 323.0234375 489.637695312 315.3359375 475.3203125 304.090820312 461.010742188 c 0
 299.654296875 455.365234375 294.692382812 449.737304688 289.2421875 444.159179688 c 1
 323.913085938 411.098632812 337.413085938 383.561523438 337.494140625 353.928710938 c 0
 337.495117188 353.686523438 337.493164062 353.4453125 337.490234375 353.203125 c 0
 337.05859375 321.016601562 321.068359375 289.826171875 293.616210938 267.625976562 c 0
 268.939453125 247.670898438 237.697265625 236.46875 205.64453125 236.08203125 c 0
 205.465820312 236.08203125 205.286132812 236.081054688 205.106445312 236.081054688 c 0
163.720703125 331.01953125 m 1
 170.587890625 329.043945312 183.235351562 326.673828125 205.262695312 326.091796875 c 0
 227.125976562 326.666992188 246.66015625 341.749023438 247.47265625 353.787109375 c 0
 247.2265625 354.81640625 244.5234375 363.482421875 222.6953125 383.194335938 c 0
 220.743164062 384.958007812 218.690429688 386.76171875 216.541992188 388.60546875 c 0
 185.73828125 366.671875 168.987304688 348.44921875 163.720703125 331.01953125 c 1
176.961914062 528.028320312 m 1
 191.842773438 518.375 205.508789062 509.220703125 218.012695312 500.506835938 c 1
 225.27734375 507.130859375 230.642578125 513.046875 234.305664062 517.817382812 c 1
 221.118164062 525.54296875 203.212890625 530.506835938 176.961914062 528.028320312 c 1
EndSplineSet
EndChar

StartChar: nine
Encoding: 57 57 24
Width: 322
Flags: W
VStem: 25.9854 89.9893<487.292 528.131>
LayerCount: 2
Fore
SplineSet
245.553710938 263.40625 m 0
 244.259765625 263.40625 242.958984375 263.461914062 241.646484375 263.575195312 c 0
 216.884765625 265.705078125 198.5390625 287.504882812 200.668945312 312.265625 c 0
 203.41015625 344.129882812 205.388671875 372.64453125 206.603515625 397.749023438 c 1
 162.2578125 388.674804688 127.215820312 389.053710938 95.2978515625 398.661132812 c 0
 94.6064453125 398.869140625 93.91796875 399.09375 93.236328125 399.3359375 c 0
 57.9326171875 411.845703125 41.83984375 434.741210938 34.556640625 451.745117188 c 0
 26.619140625 470.276367188 25.74609375 488.53515625 25.9853515625 505.504882812 c 0
 26.3740234375 535.653320312 42.0869140625 566.543945312 69.09375 590.204101562 c 0
 96.6767578125 614.369140625 132.176757812 627.385742188 169.05078125 626.912109375 c 0
 169.950195312 626.900390625 170.849609375 626.861328125 171.74609375 626.794921875 c 0
 209.943359375 623.989257812 238.716796875 612.3359375 259.708984375 591.168945312 c 0
 278.565429688 572.157226562 286.478515625 549.890625 291.732421875 530.618164062 c 0
 292.037109375 529.501953125 292.296875 528.374023438 292.514648438 527.23828125 c 0
 300.505859375 485.471679688 299.814453125 414.711914062 290.3359375 304.551757812 c 0
 288.3203125 281.103515625 268.66015625 263.409179688 245.553710938 263.40625 c 0
122.361328125 484.510742188 m 0
 136.344726562 480.500976562 158.721679688 477.8515625 206.70703125 490.12109375 c 1
 206.130859375 497.16015625 205.369140625 503.346679688 204.422851562 508.6796875 c 0
 202.244140625 516.440429688 199.65625 523.912109375 195.807617188 527.79296875 c 0
 191.139648438 532.5 180.79296875 535.725585938 166.584960938 536.923828125 c 0
 147.959960938 536.791992188 135.078125 528.203125 128.98828125 523.014648438 c 0
 119.6171875 515.033203125 116.12890625 506.778320312 115.974609375 504.23828125 c 0
 115.885742188 497.806640625 116.041992188 489.67578125 117.286132812 487.170898438 c 0
 117.586914062 486.903320312 118.942382812 485.818359375 122.361328125 484.510742188 c 0
EndSplineSet
EndChar

StartChar: colon
Encoding: 58 58 25
Width: 200
Flags: W
HStem: 275.988 101.848<84.2582 155.633> 434.054 85.7549<77.9436 130.719>
VStem: 34.8652 102.771<442.572 516.267>
LayerCount: 2
Fore
SplineSet
77.7314453125 431.918945312 m 0
 58.6630859375 431.918945312 40.9609375 444.133789062 34.865234375 463.2734375 c 0
 27.322265625 486.954101562 40.404296875 512.264648438 64.083984375 519.80859375 c 2
 81.1015625 525.23046875 l 2
 104.783203125 532.772460938 130.092773438 519.69140625 137.63671875 496.010742188 c 0
 145.1796875 472.330078125 132.098632812 447.018554688 108.41796875 439.474609375 c 2
 91.400390625 434.053710938 l 2
 86.859375 432.607421875 82.255859375 431.918945312 77.7314453125 431.918945312 c 0
122.28125 275.98828125 m 0
 104.958984375 275.98828125 88.44921875 286.046875 81.046875 302.92578125 c 2
 74.1943359375 318.55078125 l 2
 64.2119140625 341.310546875 74.5712890625 367.853515625 97.3310546875 377.8359375 c 0
 120.092773438 387.817382812 146.634765625 377.458984375 156.616210938 354.69921875 c 2
 163.46875 339.07421875 l 2
 173.450195312 316.314453125 163.091796875 289.771484375 140.331054688 279.7890625 c 0
 134.451171875 277.209960938 128.315429688 275.98828125 122.28125 275.98828125 c 0
EndSplineSet
EndChar

StartChar: semicolon
Encoding: 59 59 26
Width: 186
Flags: W
VStem: 61.8691 89.9775<194.566 309.461>
LayerCount: 2
Fore
SplineSet
79.9736328125 433.864257812 m 0
 60.90625 433.86328125 43.205078125 446.078125 37.1083984375 465.217773438 c 0
 32.2412109375 480.495117188 35.9599609375 496.453125 45.5703125 507.87890625 c 1
 44.5966796875 516.98046875 46.3818359375 526.4609375 51.28125 535.008789062 c 0
 63.6396484375 556.5703125 91.13671875 564.03125 112.701171875 551.670898438 c 0
 132.484375 540.331054688 143.224609375 518.733398438 140.731445312 495.305664062 c 0
 137.857421875 468.303710938 118.494140625 443.916015625 93.642578125 436 c 0
 89.1025390625 434.552734375 84.4990234375 433.865234375 79.9736328125 433.864257812 c 0
67.904296875 473.611328125 m 1
 67.9169921875 473.603515625 67.9296875 473.595703125 67.9443359375 473.588867188 c 1
 67.9306640625 473.596679688 67.9169921875 473.603515625 67.904296875 473.611328125 c 1
57.1279296875 96.6806640625 m 0
 45 96.6806640625 32.9091796875 101.553710938 24.0380859375 111.171875 c 0
 7.1884765625 129.44140625 8.3388671875 157.909179688 26.6083984375 174.759765625 c 0
 32.2275390625 179.943359375 41.8330078125 194.053710938 50.40625 216.764648438 c 0
 57.7734375 236.280273438 62.166015625 256.651367188 61.869140625 269.927734375 c 0
 61.314453125 294.774414062 81.005859375 315.366210938 105.852539062 315.921875 c 0
 106.194335938 315.9296875 106.538085938 315.932617188 106.876953125 315.932617188 c 0
 131.264648438 315.932617188 151.298828125 296.444335938 151.846679688 271.938476562 c 0
 152.60546875 238.017578125 141.369140625 202.89453125 134.606445312 184.9765625 c 0
 127.458007812 166.04296875 111.848632812 130.9453125 87.6259765625 108.6015625 c 0
 78.9755859375 100.623046875 68.037109375 96.6806640625 57.1279296875 96.6806640625 c 0
EndSplineSet
EndChar

StartChar: less
Encoding: 60 60 27
Width: 332
Flags: W
LayerCount: 2
Fore
SplineSet
263.904296875 275.202148438 m 0
 259.010742188 275.202148438 254.037109375 276.005859375 249.154296875 277.69921875 c 0
 202.08984375 294.025390625 138.176757812 344.305664062 48.01953125 435.934570312 c 0
 31.2880859375 452.940429688 30.7353515625 480.048828125 46.759765625 497.72265625 c 0
 95.7431640625 551.747070312 139.975585938 590.826171875 194.663085938 628.393554688 c 0
 215.146484375 642.465820312 243.162109375 637.268554688 257.234375 616.784179688 c 0
 271.305664062 596.298828125 266.108398438 568.28515625 245.624023438 554.212890625 c 0
 207.4921875 528.016601562 175.93359375 501.802734375 142.923828125 468.469726562 c 1
 223.78515625 389.915039062 262.266601562 368.412109375 278.650390625 362.728515625 c 0
 302.12890625 354.583984375 314.560546875 328.947265625 306.416992188 305.466796875 c 0
 299.965820312 286.869140625 282.5390625 275.203125 263.904296875 275.202148438 c 0
EndSplineSet
EndChar

StartChar: equal
Encoding: 61 61 28
Width: 324
Flags: W
HStem: 345.272 89.9648<51.1837 261.798> 492.214 89.248<44.6726 282.78> 586.657 21G<236.392 236.392>
VStem: 38.7158 253.512
LayerCount: 2
Fore
SplineSet
82.9052734375 492.213867188 m 0
 61.6494140625 492.213867188 42.7451171875 507.336914062 38.7158203125 528.98828125 c 0
 34.1689453125 553.421875 50.2890625 576.915039062 74.7216796875 581.461914062 c 0
 91.474609375 584.580078125 121.291992188 584.98828125 168.409179688 585.290039062 c 0
 192.420898438 585.444335938 228.489257812 585.674804688 238.016601562 587.100585938 c 0
 261.366210938 593.01953125 285.396484375 579.434570312 292.227539062 556.129882812 c 0
 299.217773438 532.280273438 285.55078125 507.280273438 261.702148438 500.290039062 c 0
 247.666992188 496.17578125 225.12890625 495.65234375 168.985351562 495.291992188 c 0
 142.022460938 495.119140625 101.274414062 494.858398438 91.1904296875 492.981445312 c 0
 88.408203125 492.46484375 85.634765625 492.213867188 82.9052734375 492.213867188 c 0
236.41796875 586.666015625 m 1
 236.407226562 586.663085938 236.397460938 586.66015625 236.38671875 586.657226562 c 1
 236.396484375 586.66015625 236.407226562 586.663085938 236.41796875 586.666015625 c 1
238.5078125 587.180664062 m 1
 238.5078125 587.180664062 238.5078125 587.180664062 238.5078125 587.180664062 c 1
89.431640625 345.272460938 m 0
 65.3984375 345.272460938 45.455078125 364.267578125 44.498046875 388.49609375 c 0
 43.5166015625 413.328125 62.8525390625 434.25390625 87.68359375 435.237304688 c 1
 141.783203125 437.379882812 209.686523438 443.154296875 224.546875 448.333007812 c 0
 248.01953125 456.513671875 273.671875 444.119140625 281.8515625 420.651367188 c 0
 290.032226562 397.182617188 277.637695312 371.52734375 254.169921875 363.346679688 c 0
 219.331054688 351.204101562 120.653320312 346.46875 91.2392578125 345.306640625 c 0
 90.6337890625 345.284179688 90.0322265625 345.272460938 89.431640625 345.272460938 c 0
EndSplineSet
EndChar

StartChar: greater
Encoding: 62 62 29
Width: 406
Flags: W
LayerCount: 2
Fore
SplineSet
140.922851562 233.610351562 m 0
 132.192382812 233.609375 123.370117188 236.14453125 115.612304688 241.43359375 c 0
 95.078125 255.435546875 89.783203125 283.431640625 103.784179688 303.96484375 c 0
 140.620117188 357.987304688 184.135742188 397.642578125 222.529296875 432.630859375 c 0
 233.702148438 442.813476562 244.612304688 452.755859375 254.955078125 462.680664062 c 1
 234.723632812 472.024414062 214.342773438 480.741210938 194.327148438 489.299804688 c 0
 147.174804688 509.465820312 98.4169921875 530.318359375 51.6826171875 559.044921875 c 0
 30.509765625 572.059570312 23.8974609375 599.774414062 36.912109375 620.947265625 c 0
 49.927734375 642.120117188 77.640625 648.733398438 98.814453125 635.717773438 c 0
 139.901367188 610.4609375 183.528320312 591.802734375 229.716796875 572.049804688 c 0
 269.155273438 555.18359375 309.934570312 537.744140625 350.466796875 515.413085938 c 0
 362.08203125 509.013671875 370.282226562 497.817382812 372.879882812 484.814453125 c 0
 375.477539062 471.809570312 372.20703125 458.322265625 363.942382812 447.952148438 c 0
 340.017578125 417.934570312 312.39453125 392.76171875 283.150390625 366.111328125 c 0
 246.712890625 332.90625 209.037109375 298.571289062 178.142578125 253.262695312 c 0
 169.431640625 240.487304688 155.301757812 233.610351562 140.922851562 233.610351562 c 0
EndSplineSet
EndChar

StartChar: question
Encoding: 63 63 30
Width: 362
Flags: W
HStem: 350.863 89.6777<184.897 326.731> 617.622 89.9971<33.3364 193.751>
VStem: 26.4717 306.896
LayerCount: 2
Fore
SplineSet
210.051757812 346.080078125 m 0
 198.936523438 346.080078125 188.405273438 346.564453125 178.44140625 347.734375 c 0
 118.364257812 354.78515625 96.4482421875 387.314453125 88.6416015625 413.361328125 c 0
 86.7197265625 419.774414062 86.2529296875 426.53515625 87.2763671875 433.15234375 c 0
 92.62890625 467.795898438 122.400390625 509.557617188 167.206054688 569.31640625 c 0
 175.458007812 580.323242188 185.86328125 594.200195312 194.588867188 606.497070312 c 1
 187.662109375 608.151367188 178.852539062 609.86328125 167.724609375 611.443359375 c 0
 141.685546875 615.139648438 108.2578125 617.27734375 71.052734375 617.622070312 c 0
 46.201171875 617.8515625 26.2421875 638.184570312 26.4716796875 663.038085938 c 0
 26.7021484375 687.888671875 47.0419921875 707.880859375 71.8876953125 707.619140625 c 0
 121.681640625 707.157226562 163.737304688 703.887695312 196.884765625 697.901367188 c 0
 232.20703125 691.522460938 281.002929688 678.455078125 296.888671875 638.803710938 c 0
 300.231445312 630.461914062 300.999023438 621.309570312 299.092773438 612.52734375 c 0
 294.03515625 589.213867188 275.08203125 563.165039062 239.212890625 515.326171875 c 0
 223.903320312 494.908203125 208.072265625 473.794921875 195.622070312 454.9296875 c 0
 191.069335938 448.032226562 187.576171875 442.337890625 184.897460938 437.677734375 c 1
 189.462890625 436.951171875 195.698242188 436.340820312 204.116210938 436.15234375 c 0
 225.497070312 435.669921875 253.352539062 438.037109375 282.8515625 440.541015625 c 2
 284.724609375 440.700195312 l 2
 309.491210938 442.798828125 331.266601562 424.428710938 333.368164062 399.665039062 c 0
 335.46875 374.901367188 317.096679688 353.123046875 292.333007812 351.022460938 c 2
 290.462890625 350.86328125 l 2
 260.918945312 348.352539062 234.126953125 346.080078125 210.051757812 346.080078125 c 0
218.180664062 598.052734375 m 1
 218.19140625 598.052734375 l 1
 218.180664062 598.052734375 l 1
175.525390625 216.642578125 m 0
 159.659179688 216.642578125 144.27734375 225.049804688 136.076171875 239.926757812 c 0
 124.078125 261.692382812 131.995117188 289.061523438 153.759765625 301.059570312 c 2
 181.626953125 316.421875 l 2
 203.387695312 328.418945312 230.760742188 320.50390625 242.759765625 298.73828125 c 0
 254.758789062 276.97265625 246.840820312 249.602539062 225.076171875 237.60546875 c 2
 197.208984375 222.243164062 l 2
 190.321289062 218.4453125 182.87109375 216.642578125 175.525390625 216.642578125 c 0
EndSplineSet
EndChar

StartChar: at
Encoding: 64 64 31
Width: 480
Flags: W
HStem: 309.46 90.0674<170.86 345.285> 416.618 90.0791<240.307 286.257> 628.753 20G<236.687 252.701> 670.458 89.9922<173.795 351.03>
VStem: 26.4824 89.9941<459.757 616.689> 149.618 89.9893<506.888 551.028>
LayerCount: 2
Fore
SplineSet
246.333984375 309.459960938 m 0
 242.821289062 309.459960938 239.243164062 309.484375 235.583984375 309.533203125 c 0
 202.487304688 309.975585938 171.689453125 317.4296875 144.047851562 331.689453125 c 0
 118.024414062 345.114257812 95.470703125 364.1953125 77.0166015625 388.40234375 c 0
 43.5947265625 432.243164062 25.6474609375 490.739257812 26.482421875 553.116210938 c 0
 27.2392578125 609.676757812 50.744140625 662.021484375 92.6669921875 700.504882812 c 0
 113.87109375 719.96875 138.90625 735.022460938 167.079101562 745.245117188 c 0
 196.116210938 755.78125 227.796875 760.893554688 261.26171875 760.450195312 c 0
 308.20703125 759.822265625 348.024414062 751.704101562 379.608398438 736.322265625 c 0
 428.73828125 712.393554688 444.970703125 677.34375 449.938476562 652.154296875 c 0
 450.034179688 651.669921875 450.12109375 651.18359375 450.201171875 650.696289062 c 0
 459.534179688 593.494140625 449.360351562 544.216796875 421.551757812 511.944335938 c 0
 410.53125 499.154296875 392.924804688 484.672851562 366.526367188 477.708007812 c 1
 363.782226562 472.18359375 360.48828125 466.944335938 356.66796875 462.053710938 c 0
 346.767578125 449.381835938 333.53125 439.11328125 317.326171875 431.532226562 c 0
 288.530273438 418.061523438 257.618164062 416.413085938 241.756835938 416.618164062 c 0
 185.8203125 417.3671875 148.79296875 459.302734375 149.618164062 520.969726562 c 0
 149.991210938 548.834960938 158.256835938 577.751953125 172.297851562 600.306640625 c 0
 191.498046875 631.1484375 220.73046875 648.752929688 252.643554688 648.752929688 c 0
 252.7578125 648.752929688 252.87109375 648.752929688 252.986328125 648.751953125 c 0
 276.861328125 649.11328125 296.026367188 642.1953125 309.96484375 628.19921875 c 0
 319.07421875 619.052734375 329.796875 602.724609375 329.15234375 576.870117188 c 0
 329.033203125 572.120117188 328.181640625 567.55859375 326.7109375 563.295898438 c 1
 328.450195312 563.475585938 330.224609375 563.5546875 332.006835938 563.534179688 c 0
 347.03125 563.334960938 351.474609375 568.490234375 353.372070312 570.692382812 c 0
 360.557617188 579.03125 366.954101562 600.9140625 361.528320312 635.260742188 c 0
 359.397460938 644.3515625 348.801757812 651.219726562 340.203125 655.408203125 c 0
 321.172851562 664.67578125 292.7109375 670.021484375 260.060546875 670.458007812 c 0
 216.803710938 671.034179688 179.998046875 658.5 153.532226562 634.205078125 c 0
 130.057617188 612.657226562 116.899414062 583.432617188 116.4765625 551.9140625 c 0
 115.91015625 509.568359375 127.31640625 470.876953125 148.592773438 442.967773438 c 0
 170.192382812 414.635742188 199.866210938 400.01953125 236.791992188 399.52734375 c 0
 321.315429688 398.392578125 341.609375 413.047851562 346.17578125 421.8828125 c 0
 357.5859375 443.9609375 384.733398438 452.609375 406.814453125 441.198242188 c 0
 428.891601562 429.787109375 437.541015625 402.638671875 426.12890625 380.559570312 c 0
 410.600585938 350.514648438 382.131835938 329.869140625 341.512695312 319.193359375 c 0
 316.376953125 312.587890625 285.926757812 309.459960938 246.333984375 309.459960938 c 0
241.333984375 506.697265625 m 0
 241.760742188 506.653320312 242.297851562 506.618164062 242.958007812 506.610351562 c 0
 256.413085938 506.431640625 270.307617188 508.899414062 279.188476562 513.052734375 c 0
 286.272460938 516.3671875 286.348632812 518.240234375 286.440429688 520.407226562 c 0
 286.626953125 524.887695312 287.462890625 529.1953125 288.857421875 533.234375 c 1
 286.94921875 533.036132812 285.013671875 532.956054688 283.0390625 533.006835938 c 0
 268.552734375 533.369140625 255.836914062 540.537109375 247.875 551.376953125 c 1
 243.763671875 544.008789062 239.775390625 532.349609375 239.607421875 519.765625 c 0
 239.516601562 513.004882812 240.560546875 508.720703125 241.333984375 506.697265625 c 0
EndSplineSet
EndChar

StartChar: A
Encoding: 65 65 32
Width: 448
Flags: W
LayerCount: 2
Fore
SplineSet
405.080078125 345.950195312 m 2
 248.1796875 629.959960938 l 2
 237.889648438 648.580078125 215.969726562 657.450195312 195.620117188 651.23046875 c 0
 175.280273438 645 162.080078125 625.379882812 163.969726562 604.190429688 c 0
 165.4296875 587.870117188 154.4296875 540.73046875 118.639648438 461.58984375 c 0
 111.759765625 446.370117188 104.860351562 431.959960938 98.2197265625 418.700195312 c 0
 95.8203125 413.91015625 93.4599609375 409.259765625 91.1396484375 404.790039062 c 0
 73.5703125 370.790039062 58.7998046875 346.419921875 52.8798828125 338.940429688 c 0
 36.150390625 324.51953125 32.1796875 299.620117188 44.48046875 280.51953125 c 0
 53.080078125 267.169921875 67.5595703125 259.879882812 82.349609375 259.879882812 c 0
 90.6904296875 259.879882812 99.1396484375 262.200195312 106.669921875 267.059570312 c 0
 115.389648438 272.669921875 125.26953125 281.299804688 150.040039062 324.599609375 c 0
 154.559570312 332.509765625 159.219726562 340.950195312 163.91015625 349.759765625 c 1
 292.139648438 364.259765625 l 1
 326.299804688 302.4296875 l 2
 338.3203125 280.669921875 365.700195312 272.780273438 387.450195312 284.799804688 c 0
 409.209960938 296.8203125 417.099609375 324.190429688 405.080078125 345.950195312 c 2
209.950195312 445.540039062 m 1
 215.799804688 459.120117188 221.080078125 472.080078125 225.76953125 484.41015625 c 1
 245.049804688 449.509765625 l 1
 209.950195312 445.540039062 l 1
98.2197265625 418.700195312 m 1
 95.8203125 413.91015625 93.4599609375 409.259765625 91.1396484375 404.790039062 c 1
 92.6796875 409.83984375 95.08984375 414.540039062 98.2197265625 418.700195312 c 1
EndSplineSet
EndChar

StartChar: B
Encoding: 66 66 33
Width: 480
Flags: W
HStem: 215.55 112.32<222.455 311.937> 555.077 91.0322<126.968 260.072>
VStem: 335.934 89.6426<307.809 367.324>
LayerCount: 2
Fore
SplineSet
319.8828125 215.549804688 m 0
 289.991210938 215.548828125 254.463867188 224.107421875 212.802734375 241.240234375 c 0
 206.541992188 243.815429688 201.173828125 247.638671875 196.865234375 252.305664062 c 1
 191.905273438 247.2109375 185.663085938 243.221679688 178.422851562 240.892578125 c 0
 154.76171875 233.284179688 129.415039062 246.29296875 121.805664062 269.953125 c 0
 121.06640625 272.254882812 47.5087890625 500.899414062 23.962890625 570.26953125 c 0
 19.6884765625 582.864257812 21.2041015625 596.704101562 28.1025390625 608.075195312 c 0
 35.0009765625 619.446289062 46.5771484375 627.181640625 59.720703125 629.208007812 c 0
 61.98828125 629.556640625 115.877929688 637.818359375 172.732421875 642.750976562 c 0
 207.060546875 645.728515625 235.475585938 646.860351562 257.194335938 646.109375 c 0
 286.241210938 645.107421875 317.780273438 640.805664062 334.594726562 617.456054688 c 0
 362.64453125 583.536132812 362.950195312 551.055664062 358.147460938 529.587890625 c 0
 353.04296875 506.782226562 339.573242188 484.934570312 318.034179688 464.48046875 c 1
 329.471679688 460.57421875 340.111328125 456.040039062 349.930664062 450.881835938 c 0
 394.596679688 427.424804688 421.451171875 390.745117188 425.544921875 347.598632812 c 0
 425.555664062 347.483398438 425.56640625 347.366210938 425.576171875 347.249023438 c 0
 427.698242188 322.875 425.899414062 302.213867188 420.079101562 284.084960938 c 0
 413.486328125 263.55078125 401.946289062 247.115234375 385.780273438 235.236328125 c 0
 367.923828125 222.1171875 346.064453125 215.549804688 319.8828125 215.549804688 c 0
229.935546875 327.870117188 m 0
 235.637695312 327.870117188 241.434570312 326.779296875 247.036132812 324.475585938 c 0
 303.662109375 301.188476562 328.318359375 304.697265625 332.48828125 307.763671875 c 0
 333.637695312 308.609375 337.850585938 316.862304688 335.93359375 339.2421875 c 0
 334.715820312 351.385742188 325.34765625 362.137695312 308.084960938 371.204101562 c 0
 289.481445312 380.974609375 253.958007812 392.58984375 190.290039062 392.58984375 c 0
 189.952148438 392.58984375 189.620117188 392.583984375 189.274414062 392.588867188 c 0
 184.7421875 392.588867188 180.341796875 393.264648438 176.1796875 394.53125 c 1
 186.430664062 362.83984375 195.380859375 335.087890625 201.076171875 317.411132812 c 1
 209.133789062 324.125976562 219.372070312 327.870117188 229.935546875 327.870117188 c 0
126.416015625 547.403320312 m 1
 134.564453125 522.635742188 143.9609375 493.837890625 153.409179688 464.768554688 c 1
 157.87109375 470.662109375 163.82421875 475.510742188 170.951171875 478.688476562 c 0
 244.240234375 511.364257812 267.89453125 538.411132812 270.319335938 549.2421875 c 0
 270.658203125 550.756835938 270.15234375 552.708007812 268.810546875 555.077148438 c 0
 257.967773438 556.470703125 229.615234375 558.021484375 164.471679688 551.598632812 c 0
 151.120117188 550.284179688 138.1640625 548.825195312 126.416015625 547.403320312 c 1
EndSplineSet
EndChar

StartChar: C
Encoding: 67 67 34
Width: 396
Flags: W
HStem: 341.781 87.2588<120.439 360.436> 540.341 89.748<144.324 246.601>
LayerCount: 2
Fore
SplineSet
196.014648438 321.48046875 m 0
 148.649414062 321.478515625 111.56640625 331.763671875 82.8193359375 352.834960938 c 0
 47.859375 378.4609375 28.6064453125 417.591796875 25.5966796875 469.141601562 c 0
 25.453125 471.59765625 25.51171875 474.061523438 25.771484375 476.508789062 c 0
 30.3271484375 519.4765625 49.6611328125 556.590820312 81.6826171875 583.837890625 c 0
 112.901367188 610.401367188 155.474609375 626.393554688 204.8046875 630.088867188 c 0
 229.591796875 631.955078125 251.18359375 613.360351562 253.040039062 588.577148438 c 0
 254.896484375 563.79296875 236.310546875 542.198242188 211.52734375 540.340820312 c 0
 178.91015625 537.897460938 123.771484375 525.534179688 115.717773438 470.583984375 c 1
 118.521484375 438.250976562 131.614257812 428.65625 136.025390625 425.421875 c 0
 154.74609375 411.701171875 200.204101562 401.190429688 310.458007812 429.040039062 c 0
 334.55078125 435.123046875 359.021484375 420.52734375 365.108398438 396.430664062 c 0
 371.194335938 372.334960938 356.59375 347.8671875 332.499023438 341.78125 c 0
 281.837890625 328.985351562 239.671875 322.372070312 203.590820312 321.56640625 c 0
 201.0390625 321.5078125 198.510742188 321.48046875 196.014648438 321.48046875 c 0
EndSplineSet
EndChar

StartChar: D
Encoding: 68 68 35
Width: 456
Flags: W
HStem: 307.196 90.7803<187.928 299.262> 535.711 89.9912<149.378 264.587>
LayerCount: 2
Fore
SplineSet
160.129882812 307.196289062 m 0
 158.7890625 307.196289062 157.447265625 307.19921875 156.095703125 307.206054688 c 0
 134.442382812 307.30859375 115.9296875 322.8203125 112.041015625 344.123046875 c 0
 93.9814453125 443.032226562 61.9443359375 518.78515625 37.9833984375 556.698242188 c 0
 29.3984375 570.28125 28.7080078125 587.412109375 36.171875 601.642578125 c 0
 43.6357421875 615.873046875 58.123046875 625.04296875 74.177734375 625.702148438 c 0
 156.319335938 629.069335938 222.03515625 622.625 275.08203125 605.997070312 c 0
 335.9921875 586.905273438 379.369140625 554.02734375 404.005859375 508.276367188 c 0
 404.919921875 506.580078125 405.723632812 504.826171875 406.412109375 503.02734375 c 0
 427.634765625 447.583007812 413.028320312 408.37890625 397.0390625 385.254882812 c 0
 361.220703125 333.451171875 281.521484375 307.196289062 160.129882812 307.196289062 c 0
149.377929688 535.7109375 m 1
 166.662109375 494.794921875 181.6796875 447.4140625 192.872070312 397.9765625 c 1
 271.161132812 401.860351562 311.362304688 419.588867188 323.013671875 436.440429688 c 0
 325.125976562 439.495117188 330.59375 447.400390625 323.369140625 468.09765625 c 1
 309.749023438 491.501953125 285.112304688 508.534179688 248.1640625 520.115234375 c 0
 221.154296875 528.583007812 188.083007812 533.79296875 149.377929688 535.7109375 c 1
EndSplineSet
EndChar

StartChar: E
Encoding: 69 69 36
Width: 350
Flags: W
HStem: 255.835 90.6914<147.961 250.265>
LayerCount: 2
Fore
SplineSet
184.23046875 255.834960938 m 0
 175.99609375 255.834960938 167.991210938 256.538085938 160.18359375 257.940429688 c 0
 122.049804688 264.790039062 90.7744140625 287.901367188 67.224609375 326.631835938 c 0
 65.337890625 329.735351562 63.833984375 333.055664062 62.7451171875 336.521484375 c 0
 53.505859375 365.924804688 54.857421875 399.577148438 66.5517578125 431.276367188 c 0
 71.763671875 445.403320312 78.90625 458.915039062 87.787109375 471.564453125 c 1
 56.71875 500.91015625 42.982421875 543.134765625 50.8505859375 591.360351562 c 0
 51.8154296875 597.267578125 53.94921875 602.924804688 57.1259765625 607.999023438 c 0
 78.8291015625 642.651367188 115.553710938 665.461914062 155.366210938 669.018554688 c 0
 177.344726562 670.981445312 199.280273438 667.19921875 220.56640625 657.775390625 c 0
 242.18359375 648.205078125 262.62890625 632.916992188 281.333984375 612.336914062 c 0
 298.049804688 593.9453125 296.69140625 565.485351562 278.298828125 548.76953125 c 0
 259.908203125 532.0546875 231.447265625 533.4140625 214.733398438 551.8046875 c 0
 202.401367188 565.374023438 183.484375 581.170898438 163.373046875 579.376953125 c 0
 153.02734375 578.453125 144.524414062 573.07421875 138.65234375 566.932617188 c 1
 137.87890625 544.991210938 148.608398438 531.936523438 173.1484375 524.140625 c 0
 189.221679688 519.03515625 201.08984375 505.369140625 203.896484375 488.739257812 c 0
 206.702148438 472.109375 199.971679688 455.305664062 186.462890625 445.208984375 c 0
 153.692382812 420.71484375 143.521484375 389.311523438 147.428710938 368.263671875 c 1
 158.805664062 351.6328125 168.63671875 347.865234375 176.095703125 346.526367188 c 0
 187.861328125 344.412109375 210.053710938 346.297851562 248.975585938 367.28125 c 0
 270.8515625 379.07421875 298.147460938 370.901367188 309.94140625 349.0234375 c 0
 321.734375 327.147460938 313.55859375 299.8515625 291.682617188 288.05859375 c 0
 251.661132812 266.482421875 216.252929688 255.836914062 184.23046875 255.834960938 c 0
EndSplineSet
EndChar

StartChar: F
Encoding: 70 70 37
Width: 390
Flags: W
HStem: 555.22 87.2998<141.814 320.91>
VStem: 92.6797 89.96<290.689 395.323>
LayerCount: 2
Fore
SplineSet
319.099609375 416.280273438 m 2
 180.490234375 396.41015625 l 1
 182.599609375 373.209960938 183.330078125 350.099609375 182.639648438 327.5 c 0
 181.889648438 303.129882812 161.900390625 283.889648438 137.6796875 283.889648438 c 0
 137.219726562 283.889648438 136.75 283.889648438 136.26953125 283.91015625 c 0
 111.4296875 284.669921875 91.919921875 305.4296875 92.6796875 330.26953125 c 0
 95.9296875 436 62.3603515625 537.530273438 27.51953125 583.169921875 c 0
 17.900390625 595.76953125 15.6201171875 612.509765625 21.51953125 627.219726562 c 0
 27.419921875 641.940429688 40.6298828125 652.459960938 56.2998046875 654.9296875 c 0
 125.01953125 665.740234375 234.08984375 657.240234375 292.849609375 642.51953125 c 0
 316.959960938 636.48046875 331.599609375 612.040039062 325.559570312 587.9296875 c 0
 319.51953125 563.8203125 295.080078125 549.1796875 270.98046875 555.219726562 c 0
 238.6796875 563.309570312 185.919921875 569.209960938 137.83984375 569.809570312 c 1
 147.080078125 548.5 155.209960938 525.01953125 162.009765625 499.83984375 c 0
 163.3203125 494.990234375 164.5703125 490.120117188 165.759765625 485.219726562 c 1
 306.3203125 505.370117188 l 2
 330.919921875 508.900390625 353.719726562 491.8203125 357.25 467.209960938 c 0
 360.780273438 442.610351562 343.700195312 419.809570312 319.099609375 416.280273438 c 2
EndSplineSet
EndChar

StartChar: G
Encoding: 71 71 38
Width: 440
Flags: W
HStem: 265.123 89.9844<367.478 406.166> 288.722 90.002<163.43 242.218> 529.686 121.436<206.91 266.134>
VStem: 23.1299 89.9336<393.336 492.383>
LayerCount: 2
Fore
SplineSet
367.4609375 265.115234375 m 0xb0
 343.330078125 265.11328125 319.859375 275.908203125 297.673828125 297.211914062 c 0
 291.435546875 303.202148438 285.564453125 309.71875 280.015625 316.391601562 c 1
 250.448242188 297.997070312 213.954101562 288.723632812 170.916015625 288.721679688 c 0
 168.400390625 288.721679688 165.87109375 288.752929688 163.309570312 288.817382812 c 0
 160.541015625 288.884765625 157.784179688 289.209960938 155.075195312 289.78515625 c 0
 117.372070312 297.791992188 87.03515625 312.737304688 64.908203125 334.20703125 c 0
 40.8359375 357.563476562 26.84375 387.765625 23.3203125 423.973632812 c 0
 23.2236328125 424.966796875 23.16015625 425.962890625 23.1298828125 426.959960938 c 0
 21.0654296875 494.612304688 66.9541015625 560.96484375 105.813476562 604.71484375 c 0
 107.025390625 606.080078125 108.319335938 607.369140625 109.686523438 608.576171875 c 0
 129.596679688 626.140625 149.024414062 638.853515625 167.428710938 646.361328125 c 0
 190.577148438 655.802734375 212.454101562 657.404296875 232.456054688 651.12109375 c 0
 249.026367188 645.916015625 278.505859375 630.283203125 289.7734375 584.064453125 c 0
 295.66015625 559.91796875 280.857421875 535.573242188 256.7109375 529.685546875 c 0
 232.572265625 523.80078125 208.21875 538.6015625 202.333007812 562.748046875 c 0
 202.282226562 562.958007812 202.23046875 563.162109375 202.178710938 563.360351562 c 1
 196.046875 560.958984375 185.575195312 555.186523438 171.251953125 542.8515625 c 0
 134.53125 500.954101562 112.932617188 459.4765625 113.063476562 431.106445312 c 0
 115.438476562 410.018554688 124.577148438 389.35546875 169.735351562 378.723632812 c 1x70
 220.661132812 378.447265625 240.459960938 396.120117188 250.954101562 409.638671875 c 0
 259.48046875 420.623046875 272.602539062 427.043945312 286.5 427.043945312 c 0
 286.581054688 427.043945312 286.662109375 427.043945312 286.744140625 427.043945312 c 0
 300.731445312 426.967773438 313.88671875 420.392578125 322.34375 409.251953125 c 0
 325.236328125 405.443359375 328.171875 401.473632812 331.01171875 397.635742188 c 0
 339.206054688 386.561523438 347.6796875 375.112304688 355.876953125 366.3359375 c 0
 363.279296875 358.412109375 367.5234375 355.83984375 368.983398438 355.107421875 c 0
 393.086914062 354.565429688 412.61328125 335.016601562 412.93359375 310.713867188 c 0
 413.262695312 285.864257812 393.383789062 265.452148438 368.534179688 265.123046875 c 0
 368.176757812 265.1171875 367.81640625 265.115234375 367.4609375 265.115234375 c 0xb0
EndSplineSet
EndChar

StartChar: H
Encoding: 72 72 39
Width: 422
Flags: W
HStem: 398.36 88.71<196.007 257.24>
VStem: 69.4805 89.3994<285.969 363.515>
LayerCount: 2
Fore
SplineSet
368.620117188 278.23046875 m 0
 364 276.73046875 359.330078125 276.01953125 354.73046875 276.01953125 c 0
 335.75 276.01953125 318.099609375 288.129882812 311.9296875 307.16015625 c 0
 302.530273438 336.150390625 293.530273438 366.809570312 284.830078125 396.459960938 c 0
 284.639648438 397.08984375 284.459960938 397.719726562 284.26953125 398.360351562 c 0
 245.6796875 397.790039062 215.73046875 390.780273438 195.030273438 377.459960938 c 0
 174.879882812 364.48046875 163.389648438 345.3203125 158.879882812 317.139648438 c 0
 155.360351562 295.120117188 136.349609375 279.25 114.490234375 279.25 c 0
 113 279.25 111.5 279.3203125 109.98046875 279.469726562 c 0
 86.2802734375 281.83984375 68.5302734375 302.259765625 69.48046875 326.059570312 c 0
 72.6396484375 404.41015625 54.650390625 493.91015625 20.1396484375 571.599609375 c 0
 10.0498046875 594.309570312 20.2802734375 620.900390625 42.990234375 630.990234375 c 0
 65.7099609375 641.080078125 92.2998046875 630.849609375 102.389648438 608.139648438 c 0
 124.150390625 559.150390625 140.0703125 507.190429688 149.559570312 455.169921875 c 1
 178.419921875 472.870117188 214.490234375 483.549804688 257.240234375 487.0703125 c 1
 246.360351562 520.309570312 234.900390625 551.120117188 222.41015625 576.059570312 c 0
 211.280273438 598.280273438 220.280273438 625.3203125 242.5 636.450195312 c 0
 264.719726562 647.580078125 291.759765625 638.580078125 302.879882812 616.360351562 c 0
 329.9296875 562.349609375 350.900390625 490.900390625 371.190429688 421.809570312 c 0
 379.719726562 392.75 388.540039062 362.709960938 397.549804688 334.91015625 c 0
 405.209960938 311.26953125 392.259765625 285.889648438 368.620117188 278.23046875 c 0
EndSplineSet
EndChar

StartChar: I
Encoding: 73 73 40
Width: 232
Flags: W
HStem: 310.784 21G<148.973 160.705>
LayerCount: 2
Fore
SplineSet
158.067382812 310.784179688 m 0
 139.877929688 310.784179688 122.752929688 321.889648438 115.955078125 339.916015625 c 0
 109.4453125 357.174804688 102.86328125 375.034179688 96.4970703125 392.3046875 c 0
 74.4970703125 451.994140625 51.748046875 513.716796875 29.927734375 556.119140625 c 0
 18.5556640625 578.217773438 27.251953125 605.349609375 49.349609375 616.721679688 c 0
 71.4482421875 628.091796875 98.58203125 619.399414062 109.953125 597.299804688 c 0
 134.291015625 550.00390625 158.0078125 485.658203125 180.944335938 423.4296875 c 0
 187.251953125 406.31640625 193.774414062 388.619140625 200.1640625 371.676757812 c 0
 208.934570312 348.422851562 197.194335938 322.462890625 173.940429688 313.692382812 c 0
 168.7109375 311.71875 163.342773438 310.784179688 158.067382812 310.784179688 c 0
EndSplineSet
EndChar

StartChar: J
Encoding: 74 74 41
Width: 312
Flags: W
VStem: 180.31 90.4072<307.54 374.542>
LayerCount: 2
Fore
SplineSet
168.321289062 216.87109375 m 0
 158.646484375 216.87109375 148.0390625 217.786132812 136.400390625 219.87109375 c 2
 64.1416015625 229.752929688 l 2
 39.517578125 233.120117188 22.287109375 255.811523438 25.654296875 280.435546875 c 0
 29.0224609375 305.05859375 51.716796875 322.291015625 76.3359375 318.922851562 c 2
 149.567382812 308.908203125 l 2
 150.255859375 308.814453125 150.944335938 308.703125 151.62890625 308.577148438 c 0
 168.571289062 305.452148438 177.583007812 307.323242188 180.309570312 308.556640625 c 0
 181.365234375 312.221679688 181.583007812 324.828125 171.583984375 347.54296875 c 0
 171.405273438 347.94921875 171.232421875 348.357421875 171.06640625 348.768554688 c 0
 139.326171875 427.07421875 86.4111328125 508.852539062 47.474609375 559.276367188 c 0
 32.2861328125 578.946289062 35.91796875 607.20703125 55.5888671875 622.396484375 c 0
 75.2578125 637.584960938 103.518554688 633.953125 118.708984375 614.282226562 c 0
 139.333984375 587.573242188 209.970703125 492.080078125 254.231445312 383.174804688 c 0
 264.64453125 359.346679688 270.192382812 336.931640625 270.716796875 316.543945312 c 0
 271.356445312 291.8046875 264.515625 269.655273438 250.938476562 252.490234375 c 0
 239.53125 238.068359375 214.833007812 216.873046875 168.321289062 216.87109375 c 0
EndSplineSet
EndChar

StartChar: K
Encoding: 75 75 42
Width: 518
Flags: W
LayerCount: 2
Fore
SplineSet
485.110351562 282.3203125 m 0
 476.309570312 270.16015625 462.559570312 263.700195312 448.610351562 263.700195312 c 0
 439.469726562 263.700195312 430.240234375 266.469726562 422.26953125 272.240234375 c 0
 375.379882812 306.16015625 305.330078125 336.83984375 196.969726562 370.709960938 c 1
 202.639648438 339.5703125 207.700195312 308.330078125 212.610351562 278.01953125 c 0
 216.580078125 253.48046875 199.919921875 230.379882812 175.389648438 226.400390625 c 0
 172.950195312 226 170.51953125 225.809570312 168.129882812 225.809570312 c 0
 146.450195312 225.809570312 127.349609375 241.530273438 123.76953125 263.620117188 c 0
 105.150390625 378.540039062 81.98046875 521.549804688 32 585 c 0
 16.6201171875 604.530273438 19.990234375 632.8203125 39.509765625 648.200195312 c 0
 59.0302734375 663.5703125 87.330078125 660.209960938 102.700195312 640.690429688 c 0
 134.650390625 600.129882812 156.700195312 542.959960938 173.41015625 479.549804688 c 1
 204.150390625 524.459960938 226.51953125 571.549804688 241.440429688 622.5703125 c 0
 248.41015625 646.419921875 273.41015625 660.099609375 297.259765625 653.129882812 c 0
 321.110351562 646.16015625 334.799804688 621.169921875 327.8203125 597.309570312 c 0
 312.030273438 543.299804688 289.25 493.150390625 258.709960938 445.370117188 c 1
 357.629882812 412.51953125 425.639648438 380.879882812 475.01953125 345.16015625 c 0
 495.16015625 330.58984375 499.669921875 302.459960938 485.110351562 282.3203125 c 0
EndSplineSet
EndChar

StartChar: L
Encoding: 76 76 43
Width: 377
Flags: W
VStem: 42.5322 89.665<365.264 643.063>
LayerCount: 2
Fore
SplineSet
220.533203125 260.149414062 m 0
 186.59765625 260.1484375 145.998046875 267.803710938 97.814453125 283.20703125 c 0
 81.80859375 288.323242188 69.98828125 301.9296875 67.158203125 318.493164062 c 0
 50.009765625 418.874023438 35.158203125 523.506835938 42.5322265625 608.696289062 c 0
 44.6748046875 633.45703125 66.48828125 651.791015625 91.2451171875 649.6484375 c 0
 116.004882812 647.504882812 134.33984375 625.6953125 132.197265625 600.934570312 c 0
 126.331054688 533.163085938 137.203125 446.889648438 151.24609375 361.249023438 c 1
 205.392578125 346.704101562 231.686523438 349.426757812 243.094726562 352.780273438 c 0
 253.209960938 355.752929688 257.8203125 360.340820312 262.82421875 372.416015625 c 0
 272.33984375 395.375976562 298.6640625 406.2734375 321.624023438 396.759765625 c 0
 344.583007812 387.245117188 355.482421875 360.919921875 345.967773438 337.9609375 c 0
 330.48828125 300.60546875 305.138671875 277.20703125 268.47265625 266.431640625 c 0
 254.237304688 262.249023438 238.294921875 260.150390625 220.533203125 260.149414062 c 0
EndSplineSet
EndChar

StartChar: M
Encoding: 77 77 44
Width: 492
Flags: W
VStem: 375.089 88.3809<318.533 460.881>
LayerCount: 2
Fore
SplineSet
73.4453125 256.283203125 m 0
 64.3623046875 256.283203125 55.1953125 259.024414062 47.2509765625 264.72265625 c 0
 27.0576171875 279.208984375 22.4306640625 307.32421875 36.91796875 327.517578125 c 0
 69.9677734375 373.5859375 74.8515625 458.572265625 77.244140625 549.001953125 c 0
 77.6552734375 564.529296875 86.0439453125 578.747070312 99.4384765625 586.614257812 c 0
 112.831054688 594.481445312 129.3359375 594.8828125 143.095703125 587.680664062 c 0
 180.515625 568.094726562 220.5859375 536.82421875 256.421875 499.873046875 c 1
 271.438476562 529.055664062 284.002929688 565.202148438 290.10546875 599.147460938 c 0
 292.765625 613.956054688 302.653320312 626.454101562 316.451171875 632.454101562 c 0
 330.249023438 638.453125 346.131835938 637.16015625 358.778320312 629.0078125 c 0
 423.715820312 587.143554688 443.92578125 482.043945312 463.469726562 380.404296875 c 0
 464.545898438 374.807617188 465.6171875 369.234375 466.693359375 363.697265625 c 0
 471.427734375 339.299804688 455.489257812 315.682617188 431.090820312 310.947265625 c 0
 428.196289062 310.384765625 425.309570312 310.114257812 422.467773438 310.114257812 c 0
 401.352539062 310.11328125 382.514648438 325.044921875 378.340820312 346.547851562 c 0
 377.256835938 352.134765625 376.174804688 357.759765625 375.088867188 363.408203125 c 0
 367.131835938 404.788085938 358.920898438 447.489257812 347.984375 482.999023438 c 1
 337.061523438 457.90625 318.853515625 422.658203125 293.6484375 395.686523438 c 0
 284.649414062 386.057617188 271.875 380.858398438 258.716796875 381.459960938 c 0
 245.551757812 382.061523438 233.311523438 388.404296875 225.228515625 398.813476562 c 0
 206.896484375 422.420898438 185.483398438 444.91796875 163.484375 464.107421875 c 1
 161.826171875 441.53515625 159.484375 419.451171875 156.049804688 398.702148438 c 0
 147.436523438 346.642578125 132.387695312 306.197265625 110.044921875 275.052734375 c 0
 101.2578125 262.805664062 87.4521484375 256.283203125 73.4453125 256.283203125 c 0
EndSplineSet
EndChar

StartChar: N
Encoding: 78 78 45
Width: 456
Flags: W
VStem: 340.228 90.0371<437.242 577.819>
LayerCount: 2
Fore
SplineSet
66.6962890625 290.53515625 m 0
 60.08984375 290.53515625 53.3828125 291.99609375 47.0419921875 295.080078125 c 0
 24.6943359375 305.953125 15.390625 332.8828125 26.2626953125 355.232421875 c 0
 54.0498046875 412.346679688 59.248046875 510.6796875 63.42578125 589.69140625 c 2
 63.837890625 597.463867188 l 2
 64.900390625 617.420898438 78.9970703125 634.286132812 98.44921875 638.872070312 c 0
 117.904296875 643.456054688 138.046875 634.665039062 147.911132812 617.284179688 c 0
 150.559570312 612.6171875 153.190429688 607.975585938 155.80078125 603.368164062 c 0
 181.545898438 557.936523438 205.86328125 515.025390625 228.095703125 482.8828125 c 0
 252.678710938 447.342773438 266.8671875 436.599609375 273.09765625 433.361328125 c 0
 288.6171875 429.631835938 308.112304688 427.491210938 319.24609375 435.927734375 c 0
 331.701171875 445.36328125 339.30859375 471.048828125 340.227539062 506.583007812 c 1
 334.96875 562.995117188 318.7734375 584.59765625 292.706054688 602.606445312 c 0
 272.258789062 616.732421875 267.133789062 644.759765625 281.259765625 665.208007812 c 0
 295.385742188 685.65625 323.413085938 690.782226562 343.86328125 676.654296875 c 0
 370.000976562 658.596679688 389.389648438 637.512695312 403.138671875 612.198242188 c 0
 417.788085938 585.22265625 426.609375 552.4453125 430.10546875 511.989257812 c 0
 430.239257812 510.440429688 430.29296875 508.884765625 430.264648438 507.330078125 c 0
 429.087890625 439.943359375 410.01953125 391.783203125 373.588867188 364.186523438 c 0
 356.491210938 351.236328125 336.25390625 343.416015625 313.439453125 340.946289062 c 0
 293.284179688 338.763671875 270.932617188 340.84375 247.000976562 347.127929688 c 0
 245.280273438 347.580078125 243.588867188 348.1328125 241.934570312 348.78515625 c 0
 212.926757812 360.213867188 185.831054688 385.78125 154.079101562 431.685546875 c 0
 150.220703125 437.263671875 146.342773438 443.0703125 142.444335938 449.075195312 c 1
 136.001953125 400.541992188 125.5546875 353.59765625 107.1953125 315.860351562 c 0
 99.40625 299.850585938 83.376953125 290.53515625 66.6962890625 290.53515625 c 0
EndSplineSet
EndChar

StartChar: O
Encoding: 79 79 46
Width: 450
Flags: W
HStem: 293.181 90.1709<159.132 238.787 238.972 293.962> 489.071 103.661<147.734 315.326>
VStem: 318.581 90.1602<408.217 489.328>
LayerCount: 2
Fore
SplineSet
238.807617188 293.163085938 m 0
 238.377929688 293.163085938 237.950195312 293.168945312 237.51953125 293.180664062 c 0
 183.896484375 294.716796875 142.87109375 304.430664062 112.09765625 322.87890625 c 0
 70.8896484375 347.583007812 48.4677734375 387.62109375 47.2568359375 438.666992188 c 0
 47.17578125 442.0703125 47.482421875 445.470703125 48.16796875 448.8046875 c 0
 57.0146484375 491.796875 72.919921875 528.256835938 95.44140625 557.171875 c 0
 115.357421875 582.7421875 140.3828125 602.005859375 167.814453125 612.880859375 c 0
 189.149414062 621.336914062 213.08203125 612.349609375 223.834960938 592.732421875 c 1
 230.875 593.171875 237.833984375 593.341796875 244.666015625 593.234375 c 0
 281.573242188 592.65625 313.841796875 584.405273438 340.575195312 568.7109375 c 0
 376.651367188 547.533203125 399.953125 514.134765625 407.961914062 472.125976562 c 0
 408.567382812 468.948242188 408.829101562 465.713867188 408.741210938 462.48046875 c 0
 407.280273438 408.53125 392.06640625 370.521484375 360.862304688 342.859375 c 0
 332.823242188 318.00390625 295.956054688 305.504882812 249.224609375 294.383789062 c 0
 245.810546875 293.572265625 242.314453125 293.163085938 238.807617188 293.163085938 c 0
137.47265625 435.983398438 m 1
 139.15625 414.548828125 148.454101562 406.015625 158.372070312 400.0703125 c 0
 174.427734375 390.4453125 199.932617188 384.828125 234.245117188 383.3515625 c 1
 302.05859375 399.967773438 316.407226562 412.7578125 318.581054688 459.630859375 c 1
 314.951171875 473.764648438 307.380859375 483.833984375 295.010742188 491.094726562 c 0
 267.33984375 507.33984375 220.098632812 507.448242188 171.723632812 491.376953125 c 0
 167.087890625 489.836914062 162.37890625 489.092773438 157.74609375 489.071289062 c 0
 149.862304688 475.858398438 142.62109375 458.56640625 137.47265625 435.983398438 c 1
EndSplineSet
EndChar

StartChar: P
Encoding: 80 80 47
Width: 366
Flags: W
HStem: 413.495 90.1699<164.814 222.758>
VStem: 37.4043 292.156
LayerCount: 2
Fore
SplineSet
159.814453125 279.053710938 m 0
 143.583007812 279.053710938 127.907226562 287.862304688 119.87890625 303.248046875 c 0
 80.734375 378.28125 51.9833984375 435.8359375 38.494140625 493.329101562 c 0
 37.931640625 495.724609375 37.5673828125 498.1640625 37.404296875 500.620117188 c 0
 37.16015625 504.287109375 36.732421875 508.421875 36.2783203125 512.798828125 c 0
 34.1728515625 533.106445312 31.2880859375 560.91796875 42.9140625 588.75390625 c 0
 56.3369140625 620.896484375 85.3720703125 644.268554688 129.211914062 658.221679688 c 0
 181.30078125 674.883789062 231.698242188 669.422851562 271.0546875 642.823242188 c 0
 304.959960938 619.907226562 326.831054688 583.7890625 329.560546875 546.205078125 c 0
 329.73046875 543.876953125 329.716796875 541.5390625 329.524414062 539.212890625 c 0
 324.723632812 481.532226562 301.333007812 442.944335938 260.001953125 424.524414062 c 0
 229.252929688 410.8203125 195.344726562 411.830078125 164.814453125 413.495117188 c 1
 175.01171875 392.411132812 186.71875 369.712890625 199.674804688 344.877929688 c 0
 211.169921875 322.842773438 202.626953125 295.662109375 180.591796875 284.166992188 c 0
 173.943359375 280.697265625 166.827148438 279.053710938 159.814453125 279.053710938 c 0
131.19140625 504.907226562 m 0
 131.208007812 504.907226562 131.221679688 504.907226562 131.23828125 504.907226562 c 0
 142.383789062 504.89453125 153.4921875 504.26953125 164.236328125 503.665039062 c 0
 187.044921875 502.379882812 210.629882812 501.052734375 223.362304688 506.727539062 c 0
 226.590820312 508.166015625 236.122070312 512.415039062 239.41796875 542.36328125 c 0
 237.8203125 550.19140625 231.669921875 560.813476562 220.657226562 568.256835938 c 0
 204.4140625 579.236328125 182.252929688 580.6953125 156.5703125 572.482421875 c 0
 139.749023438 567.127929688 128.616210938 560.424804688 125.962890625 554.072265625 c 0
 123.173828125 547.393554688 124.5078125 534.52734375 125.797851562 522.083007812 c 0
 126.184570312 518.35546875 126.581054688 514.533203125 126.904296875 510.62109375 c 0
 127.380859375 508.698242188 127.8828125 506.764648438 128.41015625 504.82421875 c 0
 129.330078125 504.877929688 130.256835938 504.907226562 131.19140625 504.907226562 c 0
EndSplineSet
EndChar

StartChar: Q
Encoding: 81 81 48
Width: 464
Flags: W
HStem: 195.32 89.9893<304.546 358.168> 596.37 21G<202.515 213.665>
LayerCount: 2
Fore
SplineSet
403.919921875 302.009765625 m 0
 384.129882812 317.040039062 355.900390625 313.190429688 340.870117188 293.400390625 c 0
 336.25 287.330078125 331.809570312 285.330078125 330.379882812 285.309570312 c 0
 330.370117188 285.309570312 330.370117188 285.309570312 330.360351562 285.309570312 c 0
 329.219726562 285.309570312 324.530273438 287.16015625 317.98046875 295.41015625 c 0
 315.540039062 298.48046875 312.709960938 301.219726562 309.5703125 303.559570312 c 0
 303.73046875 307.900390625 297.969726562 311.490234375 292.309570312 314.4296875 c 1
 322.459960938 325.75 348.1796875 342.219726562 368.360351562 363.370117188 c 0
 403.379882812 400.040039062 420.030273438 449.559570312 415.219726562 502.809570312 c 0
 414.860351562 506.780273438 413.98046875 510.690429688 412.58984375 514.4296875 c 0
 397.120117188 556.0703125 371.540039062 584.469726562 336.540039062 598.849609375 c 0
 308.349609375 610.4296875 276.110351562 612.169921875 237.98046875 604.16015625 c 0
 228.599609375 602.190429688 218.809570312 599.599609375 208.51953125 596.370117188 c 1
 196.509765625 616.190429688 171.110351562 623.799804688 150 613.290039062 c 0
 81.740234375 579.299804688 38.41015625 519.209960938 31.1103515625 448.419921875 c 0
 31.099609375 448.26953125 31.080078125 448.120117188 31.0703125 447.969726562 c 0
 27.400390625 408.389648438 36.830078125 375.5 59.099609375 350.209960938 c 0
 88.900390625 316.360351562 134.4296875 304.549804688 180.01953125 300.169921875 c 1
 161.3203125 286.08984375 142.209960938 266.41015625 119.73046875 241.33984375 c 0
 103.139648438 222.83984375 104.690429688 194.389648438 123.190429688 177.799804688 c 0
 131.780273438 170.08984375 142.51953125 166.299804688 153.219726562 166.299804688 c 0
 165.559570312 166.299804688 177.849609375 171.349609375 186.740234375 181.259765625 c 0
 201.309570312 197.509765625 218.08984375 215.620117188 232 226.620117188 c 0
 243.1796875 235.469726562 247.690429688 235.889648438 247.690429688 235.889648438 c 2
 247.709960938 235.889648438 249.110351562 235.690429688 252.190429688 233.830078125 c 0
 274.360351562 208.620117188 302.23046875 195.040039062 331.330078125 195.3203125 c 0
 362.120117188 195.650390625 391.709960938 211.549804688 412.530273438 238.959960938 c 0
 427.5703125 258.75 423.709960938 286.98046875 403.919921875 302.009765625 c 0
126.639648438 409.690429688 m 0
 124.690429688 411.900390625 118.780273438 418.620117188 120.66015625 439.419921875 c 0
 122.66015625 458.450195312 129.299804688 475.9296875 140.08984375 491.200195312 c 1
 152.419921875 483.940429688 168 482.66015625 181.959960938 489.16015625 c 0
 239.450195312 515.900390625 279.950195312 524.799804688 302.330078125 515.610351562 c 0
 308.73046875 512.98046875 317.879882812 507.3203125 325.969726562 488.709960938 c 1
 327.940429688 433.690429688 286.969726562 396.389648438 215.009765625 388.059570312 c 1
 167.33984375 389.950195312 137.610351562 397.23046875 126.639648438 409.690429688 c 0
EndSplineSet
EndChar

StartChar: R
Encoding: 82 82 49
Width: 456
Flags: W
HStem: 527.508 90.0801<140.726 243.508>
VStem: 106.959 86.7891<281.364 340.632>
LayerCount: 2
Fore
SplineSet
397.823242188 250.885742188 m 0
 386.163085938 250.884765625 374.512695312 255.387695312 365.701171875 264.368164062 c 0
 322.379882812 308.514648438 264.491210938 336.1328125 206.87890625 340.137695312 c 0
 202.278320312 340.458007812 197.8671875 341.46484375 193.748046875 343.059570312 c 1
 194.650390625 337.244140625 195.483398438 331.35546875 196.240234375 325.40234375 c 0
 199.375 300.748046875 181.9296875 278.219726562 157.276367188 275.084960938 c 0
 132.62890625 271.9453125 110.09375 289.393554688 106.958984375 314.048828125 c 0
 96.4638671875 396.580078125 69.3134765625 464.30859375 37.8759765625 542.733398438 c 0
 36.0576171875 547.267578125 34.2314453125 551.826171875 32.3974609375 556.413085938 c 0
 26.76953125 570.486328125 28.603515625 586.446289062 37.2783203125 598.875 c 0
 45.9521484375 611.303710938 60.291015625 618.532226562 75.4501953125 618.103515625 c 0
 92.013671875 617.63671875 108.194335938 617.612304688 123.83984375 617.587890625 c 0
 163.41796875 617.52734375 200.801757812 617.470703125 233.575195312 609.963867188 c 0
 276.96484375 600.026367188 307.388671875 578.234375 326.584960938 543.341796875 c 0
 328.384765625 540.071289062 329.771484375 536.587890625 330.709960938 532.973632812 c 0
 344.05078125 481.662109375 341.016601562 440.747070312 321.431640625 407.890625 c 0
 320.625 406.538085938 319.791992188 405.202148438 318.934570312 403.884765625 c 1
 323.870117188 401.74609375 328.771484375 399.483398438 333.642578125 397.091796875 c 0
 369.366210938 379.563476562 401.764648438 356.1171875 429.940429688 327.405273438 c 0
 447.345703125 309.666015625 447.078125 281.174804688 429.337890625 263.767578125 c 0
 420.579101562 255.171875 409.196289062 250.88671875 397.823242188 250.885742188 c 0
140.725585938 527.5078125 m 1
 154.764648438 491.287109375 167.735351562 455.049804688 178.056640625 416.728515625 c 1
 183.45703125 422.17578125 190.299804688 426.294921875 198.13671875 428.436523438 c 0
 222.526367188 435.102539062 237.999023438 443.693359375 244.125 453.969726562 c 0
 251.362304688 466.11328125 249.052734375 486.87109375 245.125976562 504.103515625 c 1
 231.23046875 523.50390625 201.900390625 526.984375 140.725585938 527.5078125 c 1
EndSplineSet
EndChar

StartChar: S
Encoding: 83 83 50
Width: 458
Flags: W
HStem: 302.98 90.167<142.339 334.402> 320.016 87.5615<125.465 334.402> 484.356 89.9424<175.912 295.472>
LayerCount: 2
Fore
SplineSet
282.149414062 302.98046875 m 0xa0
 245.1171875 302.978515625 200.959960938 308.836914062 153.9296875 320.015625 c 0
 129.750976562 325.762695312 114.80859375 350.0234375 120.555664062 374.203125 c 0
 126.303710938 398.381835938 150.561523438 413.325195312 174.743164062 407.577148438 c 0x60
 219.436523438 396.953125 259.715820312 391.962890625 291.233398438 393.147460938 c 0
 320.89453125 394.260742188 332.263671875 400.345703125 335.461914062 402.571289062 c 0
 330.565429688 431.58984375 316.37890625 456.576171875 296.235351562 471.485351562 c 0
 279.99609375 483.504882812 261.501953125 488.0078125 241.28515625 484.875 c 0
 239.33984375 484.57421875 237.376953125 484.400390625 235.41015625 484.356445312 c 0
 199.291015625 483.533203125 161.643554688 491.223632812 129.380859375 505.994140625 c 0
 89.8369140625 524.096679688 59.9638671875 551.880859375 42.9931640625 586.342773438 c 0
 36.5849609375 599.356445312 36.841796875 614.66015625 43.68359375 627.451171875 c 0
 50.5263671875 640.241210938 63.1142578125 648.94921875 77.49609375 650.83984375 c 0
 120.306640625 656.469726562 148.573242188 670.247070312 155.008789062 676.805664062 c 0
 167.073242188 697.678710938 193.598632812 705.403320312 215.063476562 694.00390625 c 0
 237.01171875 682.345703125 245.356445312 655.102539062 233.698242188 633.154296875 c 0
 221.938476562 611.010742188 199.12890625 595.440429688 174.676757812 584.572265625 c 1
 192.658203125 577.658203125 212.63671875 574.224609375 230.853515625 574.298828125 c 0
 273.323242188 580.01171875 315.4296875 569.250976562 349.78125 543.82421875 c 0
 389.858398438 514.159179688 417.29296875 466.163085938 425.051757812 412.140625 c 0
 425.211914062 411.028320312 425.330078125 409.91015625 425.40625 408.788085938 c 0
 427.393554688 379.470703125 416.366210938 353.060546875 394.3515625 334.421875 c 0
 370.76171875 314.44921875 335.091796875 303.888671875 288.331054688 303.03515625 c 0
 286.295898438 302.999023438 284.23046875 302.98046875 282.149414062 302.98046875 c 0xa0
154.220703125 675.383789062 m 1
 154.217773438 675.37890625 154.215820312 675.374023438 154.212890625 675.369140625 c 1
 154.21484375 675.374023438 154.217773438 675.377929688 154.220703125 675.383789062 c 1
EndSplineSet
EndChar

StartChar: T
Encoding: 84 84 51
Width: 390
Flags: W
HStem: 570.22 92.0801<34.1659 187.751>
VStem: 190.87 89.5<284.47 566.696>
LayerCount: 2
Fore
SplineSet
321.900390625 581.049804688 m 0
 306.049804688 579.26953125 290.5 577.700195312 275.240234375 576.360351562 c 1
 287.08984375 481.900390625 288.75 397.049804688 280.370117188 318 c 0
 277.919921875 294.900390625 258.400390625 277.740234375 235.669921875 277.740234375 c 0
 234.08984375 277.740234375 232.490234375 277.8203125 230.870117188 278 c 0
 206.16015625 280.620117188 188.25 302.780273438 190.870117188 327.490234375 c 0
 198.690429688 401.16015625 196.849609375 481.059570312 185.200195312 570.900390625 c 1
 170.76953125 570.450195312 156.58984375 570.219726562 142.629882812 570.219726562 c 0
 117.169921875 570.219726562 92.4599609375 570.969726562 68.33984375 572.469726562 c 0
 43.5302734375 574.009765625 24.669921875 595.370117188 26.2099609375 620.169921875 c 0
 27.759765625 644.98046875 49.1201171875 663.83984375 73.919921875 662.299804688 c 0
 145.5 657.849609375 223.3203125 660.530273438 311.83984375 670.490234375 c 0
 336.530273438 673.26953125 358.809570312 655.5 361.58984375 630.799804688 c 0
 364.370117188 606.110351562 346.599609375 583.830078125 321.900390625 581.049804688 c 0
EndSplineSet
EndChar

StartChar: U
Encoding: 85 85 52
Width: 412
Flags: W
VStem: 29.2998 89.7422<477.161 641.449>
LayerCount: 2
Fore
SplineSet
245.900390625 279.698242188 m 0
 245.383789062 279.698242188 244.869140625 279.708007812 244.3515625 279.724609375 c 0
 209.880859375 280.911132812 178.778320312 289.935546875 151.904296875 306.548828125 c 0
 125.8828125 322.633789062 103.711914062 345.95703125 86.0078125 375.8671875 c 0
 55.349609375 427.662109375 36.80078125 500.856445312 29.2998046875 599.630859375 c 0
 27.4189453125 624.412109375 45.9833984375 646.02734375 70.763671875 647.909179688 c 0
 95.548828125 649.786132812 117.161132812 631.2265625 119.041992188 606.4453125 c 0
 125.3828125 522.942382812 140.327148438 460.788085938 163.458007812 421.708984375 c 0
 183.2265625 388.309570312 207.965820312 372.190429688 243.280273438 369.877929688 c 1
 268.556640625 374.34375 275.91796875 380.439453125 279.46484375 385.330078125 c 0
 287.556640625 396.486328125 294.455078125 426.540039062 282.028320312 506.194335938 c 0
 280.875976562 509.37890625 279.825195312 512.716796875 278.686523438 516.333007812 c 0
 272.797851562 535.041992188 262.943359375 566.35546875 230.091796875 594.418945312 c 0
 211.196289062 610.561523438 208.96484375 638.966796875 225.109375 657.86328125 c 0
 241.251953125 676.759765625 269.65625 678.990234375 288.551757812 662.846679688 c 0
 341.037109375 618.0078125 356.907226562 567.584960938 364.534179688 543.352539062 c 0
 365.2578125 541.053710938 366.234375 537.953125 366.686523438 536.73046875 c 0
 368.32421875 533.111328125 369.474609375 529.291015625 370.109375 525.368164062 c 0
 385.712890625 428.876953125 380.391601562 371.193359375 352.318359375 332.486328125 c 0
 325.725585938 295.82421875 285.201171875 285.305664062 252.866210938 280.23828125 c 0
 250.561523438 279.879882812 248.232421875 279.698242188 245.900390625 279.698242188 c 0
366.401367188 537.353515625 m 1
 366.404296875 537.34765625 366.407226562 537.341796875 366.41015625 537.3359375 c 1
 366.407226562 537.341796875 366.404296875 537.34765625 366.401367188 537.353515625 c 1
EndSplineSet
EndChar

StartChar: V
Encoding: 86 86 53
Width: 410
Flags: W
HStem: 664.198 20G<320.767 345.732>
VStem: 288.335 90<485.66 677.61>
LayerCount: 2
Fore
SplineSet
263.828125 295.298828125 m 0
 249.333007812 295.298828125 235.603515625 302.3046875 227.1171875 314.286132812 c 0
 132.572265625 447.737304688 71.80859375 514.532226562 48.501953125 531.182617188 c 0
 28.2802734375 545.629882812 23.59765625 573.736328125 38.044921875 593.958007812 c 0
 52.4931640625 614.178710938 80.5966796875 618.861328125 100.8203125 604.415039062 c 0
 141.037109375 575.682617188 203.903320312 497.256835938 251.763671875 433.329101562 c 1
 276.264648438 505.826171875 288.538085938 574.758789062 288.334960938 639.055664062 c 0
 288.256835938 663.909179688 308.33984375 684.119140625 333.193359375 684.198242188 c 0
 333.240234375 684.198242188 333.291015625 684.198242188 333.337890625 684.198242188 c 0
 358.125976562 684.198242188 378.256835938 664.146484375 378.334960938 639.33984375 c 0
 378.647460938 540.625976562 353.990234375 433.939453125 305.052734375 322.2421875 c 0
 298.54296875 307.384765625 284.541015625 297.1796875 268.405273438 295.534179688 c 0
 266.875 295.375976562 265.34765625 295.298828125 263.828125 295.298828125 c 0
EndSplineSet
EndChar

StartChar: W
Encoding: 87 87 54
Width: 566
Flags: W
HStem: 542.316 89.9727<348.472 428.734>
VStem: 43.1982 88.8604<460.868 589.193>
LayerCount: 2
Fore
SplineSet
158.03125 304.583007812 m 0
 143.919921875 304.583007812 130.407226562 311.233398438 121.823242188 322.87109375 c 0
 93.12890625 361.766601562 63.744140625 415.396484375 43.1982421875 543.325195312 c 0
 39.2568359375 567.86328125 55.9541015625 590.950195312 80.4931640625 594.890625 c 0
 105.034179688 598.831054688 128.118164062 582.134765625 132.05859375 557.595703125 c 0
 145.067382812 476.600585938 160.962890625 432.295898438 177.28515625 402.662109375 c 1
 206.33984375 415.481445312 232.091796875 438.723632812 255.419921875 473.046875 c 0
 264.106445312 485.826171875 278.721679688 493.264648438 294.185546875 492.723632812 c 0
 309.62890625 492.192382812 323.719726562 483.774414062 331.505859375 470.42578125 c 0
 347.89453125 442.333984375 374.416992188 425.92578125 395.162109375 416.813476562 c 1
 421.34375 432.1484375 432.419921875 455.477539062 435.190429688 498.244140625 c 1
 428.856445312 539.918945312 410.8359375 542.885742188 388.05859375 542.31640625 c 0
 363.206054688 541.708007812 342.575195312 561.341796875 341.958007812 586.188476562 c 0
 341.342773438 611.033203125 360.985351562 631.672851562 385.830078125 632.2890625 c 0
 423.745117188 633.227539062 455.100585938 623.172851562 479.037109375 602.403320312 c 0
 504.134765625 580.625976562 519.599609375 548.110351562 525.006835938 505.7578125 c 0
 525.345703125 503.106445312 525.447265625 500.4296875 525.310546875 497.759765625 c 0
 522.48046875 442.451171875 507.891601562 364.49609375 414.295898438 326.23046875 c 0
 404.409179688 322.188476562 393.40625 321.794921875 383.254882812 325.120117188 c 0
 348.495117188 336.508789062 317.7734375 354.2421875 293.034179688 376.814453125 c 1
 256.551757812 339.065429688 214.345703125 315.14453125 167.028320312 305.493164062 c 0
 164.032226562 304.880859375 161.016601562 304.583007812 158.03125 304.583007812 c 0
EndSplineSet
EndChar

StartChar: X
Encoding: 88 88 55
Width: 466
Flags: W
VStem: 107.24 86.3896<245.353 340.707>
LayerCount: 2
Fore
SplineSet
422.950195312 314.219726562 m 0
 414.150390625 305.3203125 402.549804688 300.870117188 390.959960938 300.870117188 c 0
 379.51953125 300.870117188 368.080078125 305.200195312 359.309570312 313.879882812 c 0
 330.860351562 342.030273438 291.030273438 381.459960938 243.959960938 421.099609375 c 1
 225.33984375 372.870117188 208.620117188 323.309570312 193.629882812 271.98046875 c 0
 187.900390625 252.330078125 169.940429688 239.580078125 150.459960938 239.580078125 c 0
 146.280273438 239.580078125 142.030273438 240.169921875 137.8203125 241.400390625 c 0
 113.959960938 248.360351562 100.26953125 273.349609375 107.240234375 297.209960938 c 0
 125.540039062 359.870117188 146.290039062 420.01953125 169.809570312 478.419921875 c 1
 134.719726562 502.969726562 97.3701171875 525.259765625 58.9599609375 542.110351562 c 0
 36.2001953125 552.099609375 25.849609375 578.639648438 35.830078125 601.400390625 c 0
 45.8095703125 624.16015625 72.3603515625 634.51953125 95.1201171875 624.530273438 c 0
 131.690429688 608.490234375 168.469726562 588.049804688 206.240234375 562.719726562 c 1
 222.33984375 597.580078125 239.549804688 631.919921875 257.91015625 665.900390625 c 0
 269.719726562 687.76953125 297.01953125 695.919921875 318.889648438 684.099609375 c 0
 340.759765625 672.290039062 348.900390625 644.98046875 337.08984375 623.120117188 c 0
 316.639648438 585.26953125 297.700195312 546.959960938 280.169921875 507.919921875 c 1
 332.849609375 465.360351562 379.759765625 420.259765625 422.610351562 377.849609375 c 0
 440.280273438 360.370117188 440.4296875 331.879882812 422.950195312 314.219726562 c 0
EndSplineSet
EndChar

StartChar: Y
Encoding: 89 89 56
Width: 396
Flags: W
VStem: 36.7695 89.9609<579.121 710.573> 180.69 89.4697<278.612 478.659> 268.22 85.6104<590.1 708.719>
LayerCount: 2
Fore
SplineSet
350.379882812 542.83984375 m 0xa0
 331.509765625 511.790039062 300.459960938 495.139648438 270.16015625 485.540039062 c 1
 276.740234375 433.639648438 277.919921875 376.490234375 273.799804688 311.9296875 c 0
 272.26953125 288.099609375 252.469726562 269.799804688 228.9296875 269.799804688 c 0
 227.969726562 269.799804688 227 269.830078125 226.01953125 269.889648438 c 0
 201.219726562 271.48046875 182.389648438 292.870117188 183.98046875 317.669921875 c 0
 187.780273438 377.120117188 186.709960938 429.099609375 180.690429688 475.639648438 c 1xc0
 147.830078125 478.530273438 111.459960938 488.419921875 83.0302734375 516.5703125 c 0
 65.51953125 533.91015625 52.830078125 556.6796875 45.33984375 584.23046875 c 0
 38.5400390625 609.209960938 35.740234375 638.419921875 36.76953125 673.530273438 c 0
 37.5 698.370117188 58.1904296875 717.900390625 83.0703125 717.190429688 c 0
 107.91015625 716.459960938 127.459960938 695.73046875 126.73046875 670.879882812 c 0
 125.389648438 625.150390625 131.990234375 594.75 146.360351562 580.51953125 c 0
 158.110351562 568.879882812 180.530273438 563.709960938 214.83984375 564.740234375 c 1
 255.040039062 571.8203125 268.919921875 582.099609375 273.450195312 589.5703125 c 0
 280.209960938 600.6796875 278.349609375 624.009765625 268.219726562 655.259765625 c 0
 260.549804688 678.900390625 273.5 704.280273438 297.139648438 711.940429688 c 0
 320.780273438 719.610351562 346.169921875 706.66015625 353.830078125 683.01953125 c 0
 372.959960938 624.009765625 371.830078125 578.16015625 350.379882812 542.83984375 c 0xa0
EndSplineSet
EndChar

StartChar: Z
Encoding: 90 90 57
Width: 420
Flags: W
HStem: 581 87.6299<28.2679 110.167>
LayerCount: 2
Fore
SplineSet
366.540039062 334.799804688 m 0
 346.120117188 325.809570312 327.440429688 316.66015625 309.360351562 307.8203125 c 0
 265.740234375 286.469726562 228.900390625 268.440429688 195.490234375 268.4296875 c 0
 183.76953125 268.4296875 172.469726562 270.66015625 161.450195312 275.73046875 c 0
 158.459960938 277.110351562 155.629882812 278.809570312 153.01953125 280.799804688 c 0
 115.33984375 309.5 99.169921875 352.059570312 104.959960938 407.299804688 c 0
 105.190429688 409.48046875 105.450195312 411.690429688 105.75 413.919921875 c 1
 103.790039062 413.830078125 101.879882812 413.780273438 100.01953125 413.780273438 c 0
 87.6298828125 413.780273438 77.259765625 415.830078125 67.8603515625 420.01953125 c 0
 47.6904296875 429.009765625 39.6904296875 444.719726562 36.2197265625 451.759765625 c 0
 22.41015625 469.950195312 24.3701171875 496 41.4501953125 511.879882812 c 0
 59.650390625 528.809570312 88.1201171875 527.76953125 105.040039062 509.580078125 c 0
 106.58984375 507.919921875 107.959960938 506.25 109.1796875 504.620117188 c 0
 114.549804688 505.440429688 122.490234375 507 133.950195312 509.969726562 c 1
 142.599609375 530.610351562 153.139648438 552.599609375 165.610351562 576.009765625 c 1
 125.400390625 571.780273438 89.5498046875 573.459960938 57.33984375 581 c 0
 33.1396484375 586.669921875 18.1201171875 610.879882812 23.7802734375 635.080078125 c 0
 29.4501953125 659.280273438 53.66015625 674.299804688 77.8603515625 668.629882812 c 0
 119.8203125 658.809570312 173.809570312 663.559570312 242.91015625 683.16015625 c 0
 260.860351562 688.25 280.08984375 681.740234375 291.25 666.790039062 c 0
 302.41015625 651.83984375 303.190429688 631.549804688 293.209960938 615.790039062 c 0
 278.040039062 591.830078125 265.110351562 570.049804688 254.110351562 550.259765625 c 1
 272.26953125 557.0703125 291.860351562 564.620117188 312.830078125 572.889648438 c 0
 335.959960938 582 362.08984375 570.650390625 371.200195312 547.530273438 c 0
 380.3203125 524.41015625 368.959960938 498.26953125 345.83984375 489.16015625 c 0
 287.530273438 466.1796875 240.389648438 448.83984375 202.889648438 436.650390625 c 1
 197.990234375 420.629882812 195.509765625 407.91015625 194.469726562 397.919921875 c 0
 192.200195312 376.309570312 196.049804688 365.349609375 200.599609375 359.129882812 c 0
 204.080078125 359.870117188 209.650390625 361.440429688 218.120117188 364.759765625 c 0
 232.509765625 370.400390625 249.790039062 378.860351562 269.799804688 388.650390625 c 0
 287.790039062 397.459960938 308.190429688 407.440429688 330.26953125 417.169921875 c 0
 353.009765625 427.1796875 379.5703125 416.860351562 389.58984375 394.120117188 c 0
 399.599609375 371.370117188 389.290039062 344.8203125 366.540039062 334.799804688 c 0
EndSplineSet
EndChar

StartChar: bracketleft
Encoding: 91 91 58
Width: 350
Flags: W
HStem: 282.368 86.8877<181.839 316.405> 604.589 89.8291<162.249 264.292>
VStem: 90.418 89.6934<354.148 559.409>
LayerCount: 2
Fore
SplineSet
135.416015625 260.887695312 m 0
 123.860351562 260.88671875 112.716796875 265.336914062 104.326171875 273.357421875 c 0
 95.4619140625 281.829101562 90.439453125 293.55078125 90.41796875 305.813476562 c 0
 90.2275390625 419.885742188 86.8486328125 548.553710938 63.2333984375 637.950195312 c 0
 59.599609375 651.703125 62.6826171875 666.365234375 71.548828125 677.489257812 c 0
 80.4150390625 688.61328125 94.02734375 694.883789062 108.236328125 694.41796875 c 0
 161.028320312 692.661132812 195.75 696.024414062 224.34765625 705.655273438 c 0
 247.90234375 713.590820312 273.423828125 700.92578125 281.358398438 677.372070312 c 0
 289.291015625 653.819335938 276.627929688 628.294921875 253.075195312 620.36328125 c 0
 223.234375 610.311523438 192.1484375 606.055664062 162.249023438 604.588867188 c 1
 175.21484375 528.288085938 179.099609375 439.044921875 180.111328125 354.1484375 c 1
 211.697265625 357.338867188 239.912109375 362.337890625 265.530273438 369.255859375 c 0
 289.5234375 375.734375 314.225585938 361.536132812 320.705078125 337.541992188 c 0
 327.18359375 313.547851562 312.984375 288.844726562 288.991210938 282.368164062 c 0
 244.916992188 270.467773438 195.32421875 263.455078125 137.377929688 260.9296875 c 0
 136.72265625 260.901367188 136.068359375 260.887695312 135.416015625 260.887695312 c 0
EndSplineSet
EndChar

StartChar: backslash
Encoding: 92 92 59
Width: 418
Flags: W
LayerCount: 2
Fore
SplineSet
340.690429688 289.580078125 m 0
 327.4765625 289.580078125 314.387695312 295.37109375 305.500976562 306.498046875 c 2
 289.547851562 326.477539062 l 2
 195.819335938 443.888671875 89.583984375 576.965820312 48.9638671875 606.34765625 c 0
 28.8271484375 620.913085938 24.310546875 649.045898438 38.8759765625 669.182617188 c 0
 53.4423828125 689.3203125 81.57421875 693.834960938 101.7109375 679.271484375 c 0
 148.866210938 645.163085938 230.705078125 544.447265625 359.884765625 382.627929688 c 2
 375.823242188 362.666015625 l 2
 391.333984375 343.247070312 388.165039062 314.931640625 368.74609375 299.420898438 c 0
 360.454101562 292.797851562 350.537109375 289.580078125 340.690429688 289.580078125 c 0
EndSplineSet
EndChar

StartChar: bracketright
Encoding: 93 93 60
Width: 340
Flags: W
HStem: 251.532 89.958<83.9454 194.946> 606.505 89.918<33.8807 172.331>
VStem: 173.641 90.5381<407.056 607.86>
LayerCount: 2
Fore
SplineSet
122.258789062 251.532226562 m 0
 98.3115234375 251.53125 78.39453125 270.404296875 77.3359375 294.563476562 c 0
 76.248046875 319.391601562 95.494140625 340.40234375 120.323242188 341.490234375 c 0
 145.821289062 342.607421875 171.305664062 345.745117188 196.495117188 350.85546875 c 1
 181.384765625 418.318359375 173.842773438 503.211914062 173.640625 607.860351562 c 1
 145.798828125 605.151367188 111.711914062 604.732421875 70.3115234375 606.504882812 c 0
 45.482421875 607.569335938 26.21484375 628.560546875 27.2802734375 653.389648438 c 0
 28.3427734375 678.219726562 49.3251953125 697.473632812 74.1650390625 696.422851562 c 0
 159.21484375 692.776367188 190.676757812 700.061523438 201.859375 704.727539062 c 0
 215.904296875 710.58984375 231.958007812 708.954101562 244.532226562 700.384765625 c 0
 257.106445312 691.815429688 264.499023438 677.469726562 264.178710938 662.255859375 c 0
 261.116210938 516.241210938 271.3671875 405.102539062 294.64453125 331.928710938 c 0
 298.309570312 320.40625 297.18359375 307.892578125 291.521484375 297.208984375 c 0
 285.857421875 286.526367188 276.131835938 278.571289062 264.538085938 275.138671875 c 0
 218.724609375 261.575195312 171.530273438 253.647460938 124.263671875 251.576171875 c 0
 123.592773438 251.546875 122.922851562 251.532226562 122.258789062 251.532226562 c 0
EndSplineSet
EndChar

StartChar: asciicircum
Encoding: 94 94 61
Width: 402
Flags: W
LayerCount: 2
Fore
SplineSet
83.6474609375 505.739257812 m 0
 75.44140625 505.739257812 67.1376953125 507.982421875 59.6845703125 512.681640625 c 0
 38.6640625 525.939453125 32.3701171875 553.727539062 45.626953125 574.749023438 c 0
 83.24609375 634.3984375 122.333984375 685.30859375 161.805664062 726.068359375 c 0
 177.704101562 742.484375 203.381835938 744.376953125 221.514648438 730.471679688 c 0
 315.424804688 658.458984375 342.096679688 625.9140625 353.990234375 607.69921875 c 0
 367.577148438 586.888671875 361.720703125 559.004882812 340.912109375 545.41796875 c 0
 320.100585938 531.830078125 292.216796875 537.686523438 278.630859375 558.49609375 c 0
 272.501953125 567.8828125 254.153320312 589.33984375 199.303710938 633.509765625 c 1
 173.216796875 602.90625 147.233398438 567.141601562 121.751953125 526.740234375 c 0
 113.1953125 513.170898438 98.5849609375 505.739257812 83.6474609375 505.739257812 c 0
EndSplineSet
EndChar

StartChar: underscore
Encoding: 95 95 62
Width: 310
Flags: W
HStem: 234.208 90.8652<64.6643 267.971> 257.083 86.8555<33.8156 183.448>
VStem: 29.4346 245.358
LayerCount: 2
Fore
SplineSet
206.525390625 234.208007812 m 0xa0
 159.337890625 234.208007812 96.892578125 247.353515625 61.0693359375 257.083007812 c 0
 37.0849609375 263.596679688 22.921875 288.319335938 29.4345703125 312.303710938 c 0
 35.9482421875 336.288085938 60.6689453125 350.451171875 84.65625 343.938476562 c 0x60
 151.662109375 325.741210938 207.681640625 322.038085938 220.213867188 325.073242188 c 0
 244.329101562 331.110351562 268.7578125 316.458007812 274.79296875 292.349609375 c 0
 280.830078125 268.2421875 266.17578125 243.802734375 242.067382812 237.766601562 c 0
 232.08984375 235.268554688 219.922851562 234.208007812 206.525390625 234.208007812 c 0xa0
EndSplineSet
EndChar

StartChar: grave
Encoding: 96 96 63
Width: 256
Flags: W
HStem: 607.792 21G<179.946 191.468> 680.267 87.9395<39.8398 105.82>
LayerCount: 2
Fore
SplineSet
185.154296875 607.791992188 m 0
 174.737304688 607.791992188 164.272460938 611.387695312 155.767578125 618.73046875 c 0
 91.4775390625 674.227539062 71.3349609375 679.813476562 69.2490234375 680.266601562 c 0
 44.9658203125 685.555664062 29.5673828125 709.529296875 34.8564453125 733.813476562 c 0
 40.146484375 758.095703125 64.1162109375 773.4921875 88.40234375 768.206054688 c 0
 118.34375 761.684570312 156.080078125 737.356445312 214.578125 686.857421875 c 0
 233.390625 670.6171875 235.475585938 642.201171875 219.236328125 623.387695312 c 0
 210.337890625 613.079101562 197.78125 607.791992188 185.154296875 607.791992188 c 0
EndSplineSet
EndChar

StartChar: a
Encoding: 97 97 64
Width: 446
Flags: W
HStem: 270.332 90.6436<108.246 203.222> 280.874 88.792<346.798 424.038> 450.637 89.9053<143.678 237.52>
LayerCount: 2
Fore
SplineSet
140.052734375 270.33203125 m 0xa0
 98.5947265625 270.33203125 64.166015625 283.393554688 41.591796875 308.0703125 c 0
 25.224609375 325.9609375 7.841796875 357.923828125 17.9765625 408.595703125 c 0
 27.8271484375 457.629882812 58.85546875 500.255859375 100.985351562 522.659179688 c 0
 122.205078125 533.943359375 145.458984375 539.959960938 170.1015625 540.541992188 c 0
 195.65625 541.140625 222.111328125 535.8203125 248.7421875 524.715820312 c 0
 271.6796875 515.151367188 282.520507812 488.801757812 272.95703125 465.86328125 c 0
 270.963867188 461.084960938 268.2421875 456.830078125 264.975585938 453.17578125 c 1
 266.935546875 453.471679688 268.927734375 453.639648438 270.942382812 453.674804688 c 0
 287.23046875 453.963867188 302.478515625 445.352539062 310.658203125 431.208984375 c 0
 325.923828125 404.811523438 357.23046875 375.544921875 392.760742188 369.666015625 c 0
 417.28125 365.609375 433.868164062 342.443359375 429.811523438 317.923828125 c 0
 425.754882812 293.405273438 402.58203125 276.814453125 378.0703125 280.874023438 c 0x60
 338.337890625 287.447265625 304.426757812 307.036132812 278.025390625 330.776367188 c 1
 273.225585938 324.727539062 267.80859375 318.828125 261.528320312 313.161132812 c 0
 237.873046875 291.8203125 207.375976562 278.720703125 165.551757812 271.939453125 c 0
 164.778320312 271.814453125 164.000976562 271.708984375 163.220703125 271.624023438 c 0
 155.287109375 270.759765625 147.552734375 270.33203125 140.052734375 270.33203125 c 0xa0
174.052734375 450.63671875 m 0
 162.86328125 450.63671875 152.5703125 448.158203125 143.240234375 443.197265625 c 0
 124.651367188 433.311523438 110.810546875 413.763671875 106.219726562 390.908203125 c 0
 105.231445312 385.962890625 103.408203125 373.833007812 107.99609375 368.818359375 c 0
 113.163085938 363.169921875 128.838867188 358.611328125 152.342773438 360.975585938 c 0xa0
 200.522460938 368.999023438 207.857421875 383.219726562 225.375976562 417.182617188 c 0
 227.48046875 421.262695312 229.657226562 425.482421875 232.005859375 429.879882812 c 0
 233.720703125 433.08984375 235.79296875 436.038085938 238.158203125 438.682617188 c 1
 230.28515625 437.484375 221.991210938 438.359375 214.1015625 441.649414062 c 0
 199.736328125 447.639648438 186.352539062 450.63671875 174.052734375 450.63671875 c 0
EndSplineSet
EndChar

StartChar: b
Encoding: 98 98 65
Width: 458
Flags: W
HStem: 460.63 90<221.2 323.994>
LayerCount: 2
Fore
SplineSet
430.58984375 443.740234375 m 0
 420.120117188 475.669921875 394.190429688 504.080078125 357.5703125 523.73046875 c 0
 325.280273438 541.049804688 286.73046875 550.599609375 249.009765625 550.629882812 c 2
 248.259765625 550.629882812 l 2
 224.780273438 550.25 202.049804688 542.290039062 181.959960938 527.469726562 c 1
 151.58984375 597.209960938 119.08984375 663.009765625 86 721.379882812 c 0
 73.75 743 46.2802734375 750.58984375 24.66015625 738.330078125 c 0
 3.0400390625 726.080078125 -4.5498046875 698.610351562 7.7099609375 676.990234375 c 0
 57.4599609375 589.23046875 105.919921875 483.58984375 147.370117188 373.150390625 c 1
 141.169921875 368.080078125 136.25 361.299804688 133.419921875 353.190429688 c 0
 125.23046875 329.73046875 137.610351562 304.059570312 161.0703125 295.870117188 c 0
 166.330078125 294.030273438 171.549804688 292.299804688 176.719726562 290.6796875 c 1
 183.240234375 272.299804688 200.549804688 260.740234375 219.099609375 260.740234375 c 0
 223.860351562 260.740234375 228.700195312 261.5 233.459960938 263.110351562 c 0
 240.490234375 265.48046875 246.549804688 269.41015625 251.389648438 274.389648438 c 1
 263.98046875 272.9296875 276.349609375 272.209960938 288.530273438 272.209960938 c 0
 303.5703125 272.209960938 318.330078125 273.309570312 332.860351562 275.509765625 c 0
 335.4296875 275.900390625 337.959960938 276.509765625 340.419921875 277.330078125 c 0
 385.259765625 292.349609375 414.299804688 314.809570312 429.190429688 346.009765625 c 0
 442.559570312 374.01953125 443.01953125 406 430.58984375 443.740234375 c 0
347.969726562 384.780273438 m 0
 344.58984375 377.700195312 332.849609375 370.190429688 315.509765625 363.950195312 c 0
 293.3203125 361.01953125 270.459960938 361.669921875 245.8203125 366.040039062 c 1
 237.349609375 389.740234375 228.540039062 413.299804688 219.4296875 436.610351562 c 1
 227.900390625 450.940429688 239.23046875 460.299804688 249.400390625 460.629882812 c 0
 272.08984375 460.530273438 295.98046875 454.629882812 315.01953125 444.419921875 c 0
 330.700195312 436.009765625 341.9296875 425.26953125 345.08984375 415.650390625 c 0
 348.370117188 405.6796875 351.530273438 392.240234375 347.969726562 384.780273438 c 0
EndSplineSet
EndChar

StartChar: c
Encoding: 99 99 66
Width: 352
Flags: W
HStem: 287.859 89.9102<129.355 246.013> 474.892 87.916<133.828 247.193>
VStem: 21.1318 89.9805<397.077 452.635>
LayerCount: 2
Fore
SplineSet
182.09765625 287.767578125 m 0
 139.419921875 287.766601562 90.9560546875 309.081054688 58.12890625 342.3984375 c 0
 33.27734375 367.622070312 20.494140625 396.366210938 21.1318359375 425.564453125 c 0
 21.3720703125 459.284179688 41.546875 494.744140625 76.580078125 522.959960938 c 0
 95.759765625 538.408203125 117.89453125 550.435546875 140.592773438 557.745117188 c 0
 167.163085938 566.30078125 193.864257812 568.052734375 217.80859375 562.807617188 c 0
 242.0859375 557.491210938 257.456054688 533.5 252.138671875 509.22265625 c 0
 246.823242188 484.946289062 222.833984375 469.576171875 198.552734375 474.891601562 c 0
 181.865234375 478.547851562 156.865234375 470.7265625 136.345703125 455.43359375 c 0
 117.880859375 441.670898438 111.422851562 428.27734375 111.130859375 424.880859375 c 0
 111.130859375 424.46484375 111.125 424.048828125 111.112304688 423.6328125 c 0
 111.036132812 420.987304688 113.936523438 413.990234375 122.239257812 405.564453125 c 0
 137.842773438 389.7265625 163.21484375 377.907226562 181.69921875 377.76953125 c 0
 205.005859375 379.30859375 235.459960938 385.203125 250.833984375 404.302734375 c 0
 266.416992188 423.663085938 294.744140625 426.725585938 314.10546875 411.140625 c 0
 333.463867188 395.557617188 336.526367188 367.23046875 320.943359375 347.870117188 c 0
 306.209960938 329.56640625 286.842773438 315.139648438 263.380859375 304.993164062 c 0
 241.169921875 295.38671875 215.115234375 289.622070312 185.942382812 287.859375 c 0
 185.245117188 287.817382812 184.545898438 287.791015625 183.84765625 287.78125 c 0
 183.267578125 287.771484375 182.680664062 287.767578125 182.09765625 287.767578125 c 0
EndSplineSet
EndChar

StartChar: d
Encoding: 100 100 67
Width: 370
Flags: W
HStem: 262.485 90.001<126.189 241.051> 446.802 90.3721<127.491 213.011>
VStem: 22.3828 90.001<363.106 430.139> 153.796 89.7256<637.838 722.108> 259.612 89.9971<372.496 426.891>
LayerCount: 2
Fore
SplineSet
176.265625 262.485351562 m 0
 135.265625 262.484375 99.31640625 273.002929688 72.291015625 292.903320312 c 0
 40.107421875 316.602539062 22.3828125 352.543945312 22.3828125 394.106445312 c 0
 22.3828125 431.575195312 37.5107421875 465.287109375 66.1318359375 491.595703125 c 0
 89.1337890625 512.7421875 119.543945312 527.806640625 154.072265625 535.1640625 c 0
 155.118164062 535.38671875 156.172851562 535.573242188 157.232421875 535.720703125 c 0
 176.517578125 538.411132812 195.499023438 538.826171875 213.287109375 537.173828125 c 1
 208.989257812 546.20703125 204.63671875 555.267578125 200.326171875 564.240234375 c 0
 166.700195312 634.236328125 154.83984375 660.592773438 153.795898438 681.484375 c 0
 152.5546875 706.305664062 171.670898438 727.43359375 196.494140625 728.673828125 c 0
 220.588867188 729.876953125 241.186523438 711.915039062 243.521484375 688.170898438 c 0
 246.565429688 675.828125 266.685546875 633.944335938 281.450195312 603.211914062 c 0
 322.59375 517.568359375 349.596679688 458.581054688 349.609375 421.544921875 c 0
 350.0390625 370.827148438 330.607421875 328.768554688 293.403320312 299.91015625 c 0
 263.055664062 276.37109375 222.875976562 263.431640625 177.206054688 262.495117188 c 0
 176.896484375 262.48828125 176.568359375 262.485351562 176.265625 262.485351562 c 0
171.291015625 446.801757812 m 0
 143.76171875 440.5546875 112.383789062 423.201171875 112.383789062 394.106445312 c 0
 112.383789062 380.99609375 116.477539062 372.133789062 125.659179688 365.374023438 c 0
 136.8671875 357.12109375 154.66796875 352.549804688 175.8203125 352.486328125 c 0
 207.583007812 353.221679688 260.18359375 363.166015625 259.612304688 420.9296875 c 0
 259.610351562 421.109375 259.610351562 421.288085938 259.610351562 421.467773438 c 0
 259.587890625 421.951171875 259.456054688 423.603515625 258.673828125 427.05078125 c 0
 250.436523438 428.766601562 242.592773438 432.806640625 236.19140625 439.165039062 c 0
 231.249023438 442.84765625 206.663085938 451.379882812 171.291015625 446.801757812 c 0
259.611328125 421.420898438 m 1
 259.62109375 421.420898438 l 1
 259.611328125 421.420898438 l 1
235.836914062 439.51953125 m 1
 235.842773438 439.514648438 235.84765625 439.509765625 235.852539062 439.50390625 c 1
 235.84765625 439.509765625 235.842773438 439.514648438 235.836914062 439.51953125 c 1
243.681640625 686.018554688 m 1
 243.682617188 686.005859375 243.68359375 685.991210938 243.684570312 685.9765625 c 1
 243.68359375 685.991210938 243.682617188 686.004882812 243.681640625 686.018554688 c 1
EndSplineSet
EndChar

StartChar: e
Encoding: 101 101 68
Width: 382
Flags: W
HStem: 253.953 90<134.01 305.137> 402.881 89.9971<189.248 228.604> 495.941 89.249<189.436 229.152>
LayerCount: 2
Fore
SplineSet
192.446289062 253.953125 m 0
 147.708984375 253.953125 105.396484375 269.815429688 73.2998046875 298.619140625 c 0
 40.6513671875 327.918945312 21.92578125 368.419921875 21.92578125 409.737304688 c 0
 21.92578125 446.8359375 36.9853515625 485.848632812 63.240234375 516.774414062 c 0
 93.845703125 552.823242188 137.580078125 576.481445312 189.712890625 585.190429688 c 0
 191.559570312 585.499023438 193.423828125 585.69140625 195.295898438 585.767578125 c 0
 226.674804688 587.046875 251.5 583.598632812 271.182617188 575.23046875 c 0
 296.939453125 564.279296875 314.448242188 544.266601562 320.484375 518.879882812 c 0
 321.421875 514.936523438 321.822265625 510.885742188 321.674804688 506.836914062 c 0
 321.05078125 489.661132812 318.51171875 464.28125 303.731445312 442.2734375 c 0
 291.4296875 423.95703125 266.958984375 402.286132812 220.073242188 402.880859375 c 2
 120.186523438 403.573242188 l 2
 117.461914062 403.591796875 114.796875 403.8515625 112.209960938 404.333984375 c 1
 115.703125 371.087890625 151.025390625 343.953125 192.447265625 343.953125 c 0
 241.467773438 343.953125 278.638671875 350.916015625 302.924804688 364.650390625 c 0
 324.55859375 376.8828125 352.012695312 369.263671875 364.24609375 347.62890625 c 0
 376.478515625 325.995117188 368.859375 298.541015625 347.224609375 286.306640625 c 0
 308.72265625 264.536132812 258.094726562 253.953125 192.446289062 253.953125 c 0
189.248046875 493.096679688 m 1
 220.84375 492.877929688 l 2
 220.955078125 492.876953125 221.067382812 492.875976562 221.177734375 492.875 c 0
 225.559570312 492.806640625 228.16796875 493.2421875 229.513671875 493.573242188 c 0
 229.58203125 493.759765625 229.655273438 493.969726562 229.73046875 494.208007812 c 1
 224.375976562 495.315429688 215.5703125 496.33203125 201.815429688 495.94140625 c 0
 197.444335938 495.13671875 193.254882812 494.182617188 189.248046875 493.096679688 c 1
EndSplineSet
EndChar

StartChar: f
Encoding: 102 102 69
Width: 370
Flags: W
HStem: 399.75 102.44<267.882 330.009>
LayerCount: 2
Fore
SplineSet
314 488.309570312 m 0
 283.299804688 496.290039062 247.870117188 500.959960938 210.75 502.190429688 c 1
 188.040039062 536.049804688 166.099609375 564.830078125 149.26953125 586.91015625 c 0
 148.440429688 588 147.620117188 589.0703125 146.809570312 590.129882812 c 1
 149.080078125 590.0703125 151.389648438 590.169921875 153.709960938 590.450195312 c 0
 200.080078125 596.150390625 223.129882812 616.610351562 234.309570312 632.76953125 c 0
 243.889648438 646.639648438 253.650390625 670.040039062 245.690429688 702.790039062 c 0
 245.209960938 704.780273438 244.58984375 706.73046875 243.83984375 708.639648438 c 0
 220.690429688 767.450195312 169.83984375 791.389648438 107.830078125 772.690429688 c 0
 107.76953125 772.669921875 107.719726562 772.650390625 107.66015625 772.639648438 c 0
 58.7998046875 757.690429688 38.7998046875 726.290039062 30.6201171875 702.580078125 c 0
 22.0595703125 677.75 22.150390625 649.610351562 30.8798828125 618.9296875 c 0
 39.259765625 589.5 53.330078125 565.700195312 63.650390625 550.919921875 c 0
 63.9404296875 550.509765625 64.240234375 550.099609375 64.5400390625 549.690429688 c 0
 68.5498046875 544.349609375 72.990234375 538.51953125 77.7001953125 532.349609375 c 0
 86.1796875 521.219726562 95.650390625 508.799804688 105.650390625 495.200195312 c 1
 87.169921875 487.8203125 75.2099609375 468.719726562 77.7099609375 448.030273438 c 0
 80.6904296875 423.360351562 103.099609375 405.76953125 127.780273438 408.75 c 0
 139.01953125 410.110351562 150.389648438 411.08984375 161.759765625 411.700195312 c 1
 178.049804688 384.5 193.5703125 355.030273438 206.509765625 323.83984375 c 0
 213.700195312 306.51953125 230.440429688 296.0703125 248.099609375 296.0703125 c 0
 253.83984375 296.0703125 259.6796875 297.1796875 265.3203125 299.51953125 c 0
 288.26953125 309.040039062 299.169921875 335.360351562 289.650390625 358.3203125 c 0
 282.8203125 374.790039062 275.360351562 390.809570312 267.490234375 406.3203125 c 1
 275.849609375 404.870117188 283.83984375 403.16015625 291.379882812 401.200195312 c 0
 295.169921875 400.219726562 298.98046875 399.75 302.719726562 399.75 c 0
 322.719726562 399.75 340.98046875 413.1796875 346.25 433.450195312 c 0
 352.490234375 457.5 338.059570312 482.0703125 314 488.309570312 c 0
115.700195312 673.23046875 m 0
 116.51953125 675.599609375 118.6796875 681.870117188 133.91015625 686.549804688 c 0
 144.530273438 689.740234375 150.280273438 689.1796875 152.009765625 688.349609375 c 0
 152.9296875 687.900390625 154.650390625 686.280273438 156.669921875 682.860351562 c 1
 153.629882812 681.76953125 149.0703125 680.559570312 142.73046875 679.780273438 c 0
 131.25 678.370117188 121.3203125 672.759765625 114.280273438 664.669921875 c 1
 114.379882812 667.870117188 114.849609375 670.759765625 115.700195312 673.23046875 c 0
EndSplineSet
EndChar

StartChar: g
Encoding: 103 103 70
Width: 434
Flags: W
HStem: 272.679 89.998<108.608 220.503> 447.433 90.0029<151.248 234.098>
LayerCount: 2
Fore
SplineSet
350.860351562 -94 m 0
 311.193359375 -94 249.6953125 -74.74609375 206.34375 -55.6640625 c 0
 131.56640625 -22.7490234375 95.21484375 13.1162109375 95.21484375 53.982421875 c 0
 95.21484375 81.322265625 114.581054688 102.205078125 129.147460938 115.53515625 c 0
 143.061523438 128.266601562 161.587890625 141.704101562 182.721679688 154.391601562 c 0
 203.109375 166.630859375 251.299804688 193.227539062 293.967773438 199.19921875 c 1
 270.106445312 309.274414062 l 1
 237.478515625 286.197265625 194.676757812 272.678710938 149.578125 272.678710938 c 0
 63.240234375 272.678710938 18.0673828125 328.284179688 18.0673828125 383.212890625 c 0
 18.0673828125 423.649414062 56.5791015625 463.633789062 79.53515625 483.869140625 c 0
 102.23046875 503.875 147.296875 537.435546875 194.133789062 537.435546875 c 0
 238.903320312 537.435546875 277.083007812 518.442382812 304.545898438 482.5078125 c 0
 323.802734375 457.310546875 337.92578125 423.3515625 346.524414062 381.576171875 c 2
 394.583007812 159.885742188 l 1
 437.254882812 3.974609375 421.57421875 -43.830078125 403.116210938 -68.041015625 c 0
 390.352539062 -84.78125 371.794921875 -94 350.860351562 -94 c 0
194.473632812 53.1123046875 m 1
 205.436523438 45.08203125 224.881835938 33.5634765625 256.129882812 21.0234375 c 0
 285.232421875 9.3447265625 312.696289062 1.6259765625 331.926757812 -1.86328125 c 1
 332.506835938 14.5615234375 330.178710938 47.8369140625 314.47265625 110.59375 c 0
 313.096679688 110.467773438 311.701171875 110.403320312 310.291015625 110.403320312 c 0
 301.489257812 110.403320312 275.5 103.248046875 239.97265625 83.5361328125 c 0
 219.234375 72.029296875 204.102539062 61.162109375 194.473632812 53.1123046875 c 1
108.365234375 380.551757812 m 1
 110.763671875 370.047851562 127.356445312 362.676757812 149.577148438 362.676757812 c 0
 186.947265625 362.676757812 222.370117188 378.365234375 235.720703125 400.827148438 c 0
 237.915039062 404.517578125 240.5546875 407.783203125 243.53125 410.58984375 c 0
 225.927734375 447.431640625 203.893554688 447.432617188 194.133789062 447.432617188 c 0
 187.138671875 447.432617188 168.181640625 440.418945312 144.627929688 421.09765625 c 0
 124.319335938 404.44140625 111.924804688 387.829101562 108.365234375 380.551757812 c 1
EndSplineSet
EndChar

StartChar: h
Encoding: 104 104 71
Width: 490
Flags: W
HStem: 426.283 90<267.356 330.959>
LayerCount: 2
Fore
SplineSet
424.590820312 304.568359375 m 0
 408.374023438 304.568359375 392.711914062 313.358398438 384.676757812 328.72265625 c 0
 347.174804688 400.431640625 311.327148438 426.29296875 296.158203125 426.29296875 c 0
 296.073242188 426.29296875 295.990234375 426.291992188 295.907226562 426.291015625 c 0
 295.599609375 426.28515625 295.29296875 426.287109375 294.987304688 426.283203125 c 0
 291.727539062 426.291992188 283.25 426.295898438 270.0703125 408.794921875 c 0
 258.497070312 393.428710938 246.83984375 369.099609375 234.43359375 334.419921875 c 0
 227.868164062 316.06640625 210.235351562 304.041015625 190.749023438 304.595703125 c 0
 171.264648438 305.166015625 154.36328125 318.21484375 148.879882812 336.919921875 c 0
 110.458007812 468.008789062 74.3671875 545.78125 20.15625 614.306640625 c 0
 4.7373046875 633.797851562 8.037109375 662.098632812 27.5283203125 677.517578125 c 0
 47.017578125 692.938476562 75.3193359375 689.637695312 90.7392578125 670.146484375 c 0
 135.3359375 613.774414062 169.665039062 551.12109375 201.030273438 466.62890625 c 1
 212.33203125 480.87109375 224.81640625 492.185546875 238.185546875 500.296875 c 0
 255.581054688 510.849609375 274.575195312 516.2265625 294.643554688 516.283203125 c 0
 375.415039062 517.458007812 435.651367188 425.4609375 464.428710938 370.431640625 c 0
 475.947265625 348.409179688 467.4296875 321.21875 445.408203125 309.702148438 c 0
 438.749023438 306.219726562 431.6171875 304.569335938 424.590820312 304.568359375 c 0
EndSplineSet
EndChar

StartChar: i
Encoding: 105 105 72
Width: 329
Flags: W
HStem: 614.99 87.7607<66.1355 150.957> 623.263 90<26.7148 112.165>
VStem: 20.2002 134.925<629.778 699.31>
LayerCount: 2
Fore
SplineSet
180.111328125 295.234375 m 0x20
 168.205078125 295.234375 145.717773438 299.23046875 128.889648438 325.989257812 c 0
 122.416015625 336.283203125 116.955078125 349.564453125 111.702148438 367.784179688 c 0
 103.71484375 395.490234375 95.78515625 435.811523438 85.1865234375 502.611328125 c 0
 81.291015625 527.157226562 98.033203125 550.211914062 122.579101562 554.107421875 c 0
 147.125976562 557.999023438 170.1796875 541.259765625 174.075195312 516.71484375 c 0
 181.498046875 469.931640625 187.47265625 437.150390625 192.880859375 413.547851562 c 0
 195.33984375 402.814453125 197.497070312 394.859375 199.287109375 389.009765625 c 1
 208.046875 393.275390625 219.576171875 402.307617188 240.442382812 421.368164062 c 0
 258.793945312 438.12890625 287.255859375 436.841796875 304.017578125 418.493164062 c 0
 320.778320312 400.142578125 319.491210938 371.6796875 301.140625 354.91796875 c 0
 261.672851562 318.866210938 231.92578125 295.234375 180.111328125 295.234375 c 0x20
112.383789062 614.990234375 m 0xa0
 107.724609375 614.990234375 102.989257812 615.71875 98.322265625 617.252929688 c 0
 85.6796875 621.409179688 75.46484375 623.262695312 65.2001953125 623.262695312 c 0
 40.3466796875 623.262695312 20.2001953125 643.41015625 20.2001953125 668.262695312 c 0
 20.2001953125 693.116210938 40.3466796875 713.262695312 65.2001953125 713.262695312 c 0x60
 85.16015625 713.262695312 104.6171875 709.922851562 126.4296875 702.750976562 c 0
 150.040039062 694.989257812 162.88671875 669.557617188 155.125 645.948242188 c 0
 148.8984375 627.004882812 131.29296875 614.990234375 112.383789062 614.990234375 c 0xa0
EndSplineSet
EndChar

StartChar: j
Encoding: 106 106 73
Width: 348
Flags: W
HStem: -64 90<124.291 225.911> 136.662 89.998<124.417 190.569> 605.82 21G<101.353 112.909>
VStem: 22.7451 90.001<39.3049 126.449> 97.8594 88.458<429.161 536.792>
LayerCount: 2
Fore
SplineSet
180.821289062 -64 m 0xe8
 140.845703125 -64 102.64453125 -51.0546875 73.25390625 -27.5498046875 c 0
 41.1552734375 -1.8779296875 22.7451171875 34.625 22.7451171875 72.5966796875 c 0xf0
 22.7451171875 135.314453125 49.5234375 171.956054688 71.9873046875 191.653320312 c 0
 97.341796875 213.883789062 131.290039062 226.633789062 165.125976562 226.633789062 c 0
 168.361328125 226.633789062 171.517578125 226.6484375 174.588867188 226.66015625 c 0
 180.088867188 226.68359375 185.470703125 226.706054688 190.725585938 226.6484375 c 1
 189.994140625 228.427734375 189.259765625 230.2109375 188.524414062 232 c 0
 152.076171875 320.578125 110.764648438 420.973632812 97.859375 489.8046875 c 0
 93.279296875 514.232421875 109.368164062 537.747070312 133.794921875 542.327148438 c 0
 158.217773438 546.908203125 181.737304688 530.819335938 186.317382812 506.390625 c 0
 197.515625 446.66015625 238.677734375 346.625976562 271.752929688 266.247070312 c 0
 295.151367188 209.383789062 315.358398438 160.274414062 324.20703125 128.561523438 c 0
 324.3828125 127.931640625 324.544921875 127.297851562 324.692382812 126.662109375 c 0
 336.151367188 77.3896484375 325.821289062 27.84765625 296.3515625 -9.2607421875 c 0
 268.727539062 -44.0478515625 226.6171875 -64 180.821289062 -64 c 0xe8
182.560546875 136.682617188 m 0
 179.939453125 136.682617188 177.369140625 136.671875 174.969726562 136.662109375 c 0
 171.775390625 136.6484375 168.4921875 136.634765625 165.126953125 136.634765625 c 0
 156.379882812 136.634765625 112.74609375 133.547851562 112.74609375 72.59765625 c 0
 112.74609375 47.775390625 144.556640625 26 180.822265625 26 c 0
 204.465820312 26 218.372070312 37.26171875 225.875 46.7099609375 c 0
 238.002929688 61.982421875 242.125 83.3154296875 237.240234375 105.3671875 c 0
 235.436523438 111.696289062 232.9453125 119.239257812 229.9140625 127.7421875 c 1
 221.952148438 128.275390625 214.087890625 130.919921875 207.224609375 135.715820312 c 0
 202.13671875 136.541992188 192.014648438 136.682617188 182.560546875 136.682617188 c 0
202.564453125 139.451171875 m 1
 202.572265625 139.444335938 202.581054688 139.435546875 202.587890625 139.428710938 c 1
 202.581054688 139.436523438 202.572265625 139.444335938 202.564453125 139.451171875 c 1
105.702148438 605.8203125 m 0
 97.00390625 605.8203125 88.21484375 608.3359375 80.474609375 613.587890625 c 2
 54.7763671875 631.026367188 l 2
 34.2109375 644.981445312 28.8515625 672.96484375 42.806640625 693.530273438 c 0
 56.76171875 714.094726562 84.7470703125 719.454101562 105.310546875 705.499023438 c 2
 131.009765625 688.060546875 l 2
 151.575195312 674.106445312 156.93359375 646.122070312 142.978515625 625.556640625 c 0
 134.276367188 612.731445312 120.116210938 605.8203125 105.702148438 605.8203125 c 0
EndSplineSet
EndChar

StartChar: k
Encoding: 107 107 74
Width: 479
Flags: W
LayerCount: 2
Fore
SplineSet
447.338867188 325.620117188 m 0
 424.268554688 348.940429688 386.298828125 366.129882812 327.638671875 379.200195312 c 1
 337.80859375 396.08984375 346.62890625 412.240234375 353.869140625 427.23046875 c 0
 372.94921875 466.76953125 380.048828125 495.849609375 376.19921875 518.76953125 c 0
 373.21875 536.48046875 359.999023438 550.73046875 342.55859375 555.01953125 c 0
 297.30859375 566.139648438 240.029296875 567.58984375 168.079101562 559.389648438 c 1
 142.918945312 631.08984375 118.138671875 685.959960938 94.3994140625 722.509765625 c 0
 80.859375 743.349609375 52.9892578125 749.280273438 32.1494140625 735.740234375 c 0
 11.298828125 722.200195312 5.37890625 694.330078125 18.9189453125 673.490234375 c 0
 57.96875 613.370117188 105.489257812 478.940429688 146.0390625 313.889648438 c 0
 151.088867188 293.370117188 169.46875 279.620117188 189.708984375 279.620117188 c 0
 193.258789062 279.620117188 196.869140625 280.040039062 200.479492188 280.9296875 c 0
 214.848632812 284.459960938 225.899414062 294.530273438 231.229492188 307.200195312 c 1
 235.829101562 304.73046875 240.87890625 303.040039062 246.208984375 302.290039062 c 0
 348.678710938 287.759765625 376.249023438 269.509765625 383.348632812 262.330078125 c 0
 392.149414062 253.4296875 403.739257812 248.98046875 415.338867188 248.98046875 c 0
 426.779296875 248.98046875 438.208984375 253.309570312 446.979492188 261.98046875 c 0
 464.659179688 279.459960938 464.80859375 307.950195312 447.338867188 325.620117188 c 0
221.768554688 381.33984375 m 1
 213.55859375 412.639648438 205.048828125 442.98046875 196.388671875 471.830078125 c 1
 226.508789062 474.58984375 253.21875 475.280273438 276.348632812 473.900390625 c 1
 266.508789062 452.209960938 249.268554688 420.879882812 221.768554688 381.33984375 c 1
EndSplineSet
EndChar

StartChar: l
Encoding: 108 108 75
Width: 313
Flags: W
VStem: 24.4072 89.3789<484.479 678.592>
LayerCount: 2
Fore
SplineSet
155.396484375 268.459960938 m 0
 146.787109375 268.459960938 138.041992188 269.517578125 128.883789062 271.8828125 c 0
 125.736328125 272.696289062 122.685546875 273.84765625 119.786132812 275.318359375 c 0
 91.2236328125 289.798828125 74.33203125 326.298828125 57.4580078125 409.987304688 c 0
 46.7578125 463.055664062 36.255859375 534.524414062 24.4072265625 634.903320312 c 0
 21.4931640625 659.584960938 39.1396484375 681.955078125 63.8212890625 684.868164062 c 0
 88.5048828125 687.779296875 110.873046875 670.133789062 113.786132812 645.453125 c 0
 124.008789062 558.849609375 133.377929688 493.141601562 142.427734375 444.575195312 c 0
 151.467773438 396.068359375 158.970703125 371.61328125 163.59375 359.728515625 c 1
 173.151367188 361.96875 186.837890625 367.409179688 206.424804688 375.353515625 c 0
 217.029296875 379.655273438 229.048828125 384.53125 242.846679688 389.799804688 c 0
 266.061523438 398.66796875 292.07421875 387.033203125 300.940429688 363.814453125 c 0
 309.805664062 340.596679688 298.171875 314.587890625 274.955078125 305.721679688 c 0
 262.021484375 300.783203125 250.458007812 296.091796875 240.255859375 291.954101562 c 0
 207.89453125 278.827148438 182.333984375 268.459960938 155.396484375 268.459960938 c 0
EndSplineSet
EndChar

StartChar: m
Encoding: 109 109 76
Width: 508
Flags: W
VStem: 78.6387 88.2334<288.29 387.676>
LayerCount: 2
Fore
SplineSet
443.56640625 274.921875 m 0
 422.942382812 274.920898438 404.348632812 289.188476562 399.681640625 310.15625 c 0
 397.516601562 319.884765625 395.328125 330.10546875 393.208984375 339.989257812 c 0
 386.765625 370.05859375 380.102539062 401.154296875 372.461914062 426.783203125 c 0
 371.0546875 431.50390625 369.70703125 435.721679688 368.42578125 439.491210938 c 1
 364.463867188 434.3046875 360.4140625 428.763671875 356.297851562 423.1328125 c 0
 342.551757812 404.328125 326.97265625 383.012695312 306.702148438 363.184570312 c 0
 296.377929688 353.0859375 281.833007812 348.552734375 267.59765625 351.006835938 c 0
 253.364257812 353.458007812 241.171875 362.591796875 234.8203125 375.564453125 c 0
 226.370117188 392.8203125 214.903320312 412.1328125 203.296875 428.66796875 c 1
 201.392578125 423.967773438 199.319335938 418.572265625 197.080078125 412.380859375 c 0
 186.463867188 383.036132812 175.8515625 346.391601562 166.872070312 314.416992188 c 0
 160.940429688 293.295898438 140.64453125 279.53125 118.826171875 281.833007812 c 0
 97.009765625 284.135742188 80.0322265625 301.833984375 78.638671875 323.727539062 c 0
 75.453125 373.795898438 67.33203125 443.9765625 33.73046875 475.254882812 c 0
 15.5390625 492.189453125 14.5185546875 520.663085938 31.4521484375 538.853515625 c 0
 48.3857421875 557.043945312 76.859375 558.065429688 95.05078125 541.131835938 c 0
 110.698242188 526.567382812 122.9609375 509.2734375 132.614257812 490.362304688 c 1
 136.765625 498.287109375 140.931640625 505.086914062 145.170898438 510.873046875 c 0
 165.380859375 538.462890625 187.901367188 543.306640625 203.234375 542.515625 c 0
 210.467773438 542.140625 217.504882812 540.026367188 223.747070312 536.349609375 c 0
 243.473632812 524.73046875 264.263671875 499.443359375 281.678710938 473.565429688 c 1
 282.333007812 474.458984375 282.987304688 475.352539062 283.638671875 476.244140625 c 0
 304.098632812 504.237304688 325.256835938 533.181640625 357.235351562 548.684570312 c 0
 369.280273438 554.525390625 383.301757812 554.697265625 395.487304688 549.16015625 c 0
 428.625976562 534.096679688 444.788085938 495.669921875 455.166015625 463.875 c 0
 465.474609375 432.294921875 473.474609375 394.95703125 481.211914062 358.84765625 c 0
 483.389648438 348.688476562 485.4453125 339.091796875 487.534179688 329.708984375 c 0
 492.931640625 305.450195312 477.642578125 281.407226562 453.383789062 276.0078125 c 0
 450.092773438 275.2734375 446.803710938 274.921875 443.56640625 274.921875 c 0
177.654296875 459.059570312 m 1
 177.654296875 459.059570312 177.655273438 459.05859375 177.65625 459.05859375 c 1
 177.65625 459.05859375 177.655273438 459.05859375 177.654296875 459.059570312 c 1
EndSplineSet
EndChar

StartChar: n
Encoding: 110 110 77
Width: 392
Flags: W
HStem: 255.38 297.963
VStem: 80.417 88.5576<261.943 378.396> 282.102 89.3691<280.777 421.675>
LayerCount: 2
Fore
SplineSet
124.350585938 255.379882812 m 0
 103.314453125 255.379882812 84.9638671875 270.01953125 80.4169921875 290.733398438 c 0
 73.044921875 324.317382812 64.388671875 362.686523438 54.93359375 393.016601562 c 0
 42.94921875 431.462890625 34.9248046875 439.995117188 34.048828125 440.840820312 c 0
 16.1201171875 458.051757812 15.5380859375 486.538085938 32.748046875 504.466796875 c 0
 49.9580078125 522.397460938 78.4453125 522.978515625 96.3740234375 505.767578125 c 0
 108.255859375 494.362304688 118.40625 478.432617188 127.875976562 455.953125 c 1
 130.211914062 460.037109375 132.62109375 464.037109375 135.096679688 467.942382812 c 0
 149.482421875 490.624023438 165.748046875 509.327148438 183.4453125 523.53125 c 0
 203.780273438 539.853515625 225.4921875 549.883789062 247.9765625 553.342773438 c 0
 250.2421875 553.692382812 252.529296875 553.866210938 254.8203125 553.866210938 c 0
 270.685546875 553.866210938 293.939453125 547.75 314.615234375 518.61328125 c 0
 324.280273438 504.9921875 332.88671875 487.338867188 340.928710938 464.643554688 c 0
 354.390625 426.658203125 365.237304688 376.915039062 371.470703125 324.580078125 c 0
 374.41015625 299.90234375 356.787109375 277.512695312 332.109375 274.573242188 c 0
 330.302734375 274.358398438 328.504882812 274.25390625 326.731445312 274.252929688 c 0
 304.25390625 274.250976562 284.827148438 291.064453125 282.1015625 313.935546875 c 0
 277.658203125 351.25 270.37890625 388.056640625 261.608398438 417.575195312 c 0
 255.6328125 437.678710938 250.220703125 450.34375 246.235351562 458.052734375 c 1
 234.583984375 450.616210938 222.21484375 437.264648438 211.100585938 419.741210938 c 0
 190.3515625 387.025390625 175.391601562 342.522460938 168.974609375 294.4296875 c 0
 166.0859375 272.78125 148.069335938 256.331054688 126.247070312 255.420898438 c 0
 125.61328125 255.392578125 124.98046875 255.379882812 124.350585938 255.379882812 c 0
EndSplineSet
EndChar

StartChar: o
Encoding: 111 111 78
Width: 380
Flags: W
HStem: 261.448 90.001<126.902 247.244> 546 20G<165.62 190.608 221.784 238.055>
VStem: 16.0049 89.999<373.118 450.758> 269.995 90<373.888 445.672>
LayerCount: 2
Fore
SplineSet
184.544921875 261.448242188 m 0
 145.623046875 261.448242188 105.362304688 275.412109375 74.0859375 299.759765625 c 0
 36.6318359375 328.916015625 16.0048828125 369.5390625 16.0048828125 414.146484375 c 0
 16.0048828125 452.947265625 36.7509765625 492.485351562 72.9228515625 522.624023438 c 0
 106.008789062 550.189453125 146.694335938 566 184.544921875 566 c 0
 196.670898438 566 207.67578125 561.205078125 215.767578125 553.40625 c 0
 216.629882812 553.5078125 217.501953125 553.598632812 218.381835938 553.6796875 c 0
 219.739257812 553.803710938 221.102539062 553.866210938 222.465820312 553.866210938 c 0
 253.643554688 553.866210938 287.74609375 536.279296875 316.029296875 505.615234375 c 0
 343.96875 475.322265625 359.995117188 438.51171875 359.995117188 404.624023438 c 0
 359.995117188 366.123046875 338.251953125 328.032226562 300.342773438 300.118164062 c 0
 266.967773438 275.541992188 224.760742188 261.448242188 184.544921875 261.448242188 c 0
143.944335938 462.978515625 m 1
 139.267578125 460.17578125 134.743164062 456.986328125 130.533203125 453.478515625 c 0
 115.403320312 440.873046875 106.00390625 425.801757812 106.00390625 414.146484375 c 0
 106.00390625 375.30078125 151.749023438 351.44921875 184.543945312 351.44921875 c 0
 205.659179688 351.44921875 228.999023438 359.3515625 246.977539062 372.590820312 c 0
 260.959960938 382.885742188 269.995117188 395.459960938 269.995117188 404.624023438 c 0
 269.995117188 415.11328125 262.63671875 430.205078125 251.249023438 443.073242188 c 0
 240.833984375 454.840820312 230.775390625 460.874023438 225.301757812 462.994140625 c 0
 224.043945312 461.829101562 222.015625 459.71875 219.08984375 456.016601562 c 0
 203.677734375 436.51953125 175.379882812 433.20703125 155.881835938 448.619140625 c 0
 150.779296875 452.65234375 146.784179688 457.568359375 143.944335938 462.978515625 c 1
222.1484375 463.875976562 m 1
 222.149414062 463.875976562 222.1484375 463.875976562 222.1484375 463.875976562 c 1
EndSplineSet
EndChar

StartChar: p
Encoding: 112 112 79
Width: 384
Flags: W
HStem: 255.37 90<168.993 215.27 218.51 254.124> 467.57 90<129.986 249.917> 544.36 21G<90.96 106.255>
VStem: 273.24 90<364.49 444.444>
LayerCount: 2
Fore
SplineSet
157.450195312 557.5703125 m 0xd0
 136.110351562 557.5703125 115.389648438 553.01953125 97.1201171875 544.360351562 c 1xb0
 84.7998046875 556.309570312 66.16015625 560.639648438 49.169921875 553.900390625 c 0
 26.0703125 544.740234375 14.76953125 518.580078125 23.9296875 495.48046875 c 0
 53.83984375 420.059570312 71.33984375 300.639648438 89.8603515625 174.200195312 c 0
 93.8798828125 146.790039062 98.0302734375 118.440429688 102.349609375 90.2900390625 c 0
 105.76953125 68.0400390625 124.940429688 52.1103515625 146.780273438 52.1103515625 c 0
 149.049804688 52.1103515625 151.349609375 52.2900390625 153.66015625 52.6396484375 c 0
 178.219726562 56.41015625 195.080078125 79.3798828125 191.309570312 103.950195312 c 0
 187.040039062 131.790039062 182.91015625 159.98046875 178.91015625 187.25 c 0
 175.389648438 211.290039062 171.900390625 235.08984375 168.360351562 258.440429688 c 1
 181.830078125 256.349609375 197.129882812 255.370117188 215.26953125 255.370117188 c 0
 216.219726562 255.370117188 217.169921875 255.370117188 218.129882812 255.379882812 c 2
 218.509765625 255.379882812 l 2
 250.919921875 255.379882812 286.129882812 271.889648438 315.240234375 300.76953125 c 0
 345.740234375 331.040039062 363.240234375 369.139648438 363.240234375 405.299804688 c 0
 363.240234375 478.91015625 309.1796875 557.5703125 157.450195312 557.5703125 c 0xd0
251.849609375 364.66015625 m 0
 238.419921875 351.33984375 224.3203125 345.379882812 218.540039062 345.379882812 c 2
 217.849609375 345.379882812 l 2
 216.919921875 345.370117188 216.01953125 345.370117188 215.120117188 345.370117188 c 0
 172.58984375 345.370117188 161.75 351.610351562 151.240234375 361.830078125 c 1
 144.8203125 396.559570312 137.830078125 429.389648438 129.849609375 459.5 c 1
 133.41015625 462.33984375 142.719726562 467.5703125 157.450195312 467.5703125 c 0xd0
 210.080078125 467.5703125 237.860351562 455.889648438 251.900390625 446.08984375 c 0
 266.459960938 435.919921875 273.240234375 422.959960938 273.240234375 405.299804688 c 0
 273.240234375 393.509765625 264.83984375 377.549804688 251.849609375 364.66015625 c 0
EndSplineSet
EndChar

StartChar: q
Encoding: 113 113 80
Width: 478
Flags: W
HStem: -64 89.999<269.507 352.796> 114.147 89.999<273.87 344.887> 267.106 90<123.814 187.66> 516.012 20G<189.192 211.561 226.789 239.511>
VStem: 31.7988 90<371.223 411.243> 175.959 90.001<32.2747 111.999> 191.491 98.8975<357.246 438.344> 358.204 90<30.4739 100.87>
LayerCount: 2
Fore
SplineSet
317.31640625 -64 m 0xfb
 278.762695312 -64 245.390625 -53.4541015625 220.806640625 -33.5029296875 c 0
 200.34765625 -16.8994140625 175.958984375 14.365234375 175.958984375 69.01171875 c 0xfd
 175.958984375 106.670898438 179.315429688 150.973632812 182.869140625 197.876953125 c 0
 184.59375 220.649414062 186.376953125 244.18359375 187.87109375 268.071289062 c 1
 182.786132812 267.430664062 177.619140625 267.106445312 172.400390625 267.106445312 c 0
 155.377929688 267.106445312 96.935546875 270.052734375 59.57421875 307.977539062 c 0
 41.16015625 326.66796875 31.564453125 350.299804688 31.798828125 376.3515625 c 0
 31.595703125 408.703125 47.005859375 441.505859375 76.3916015625 471.258789062 c 0
 114.646484375 509.990234375 168.3515625 536.01171875 210.033203125 536.01171875 c 0
 213.087890625 536.01171875 216.07421875 535.70703125 218.958007812 535.126953125 c 0
 222.028320312 535.7109375 225.18359375 536.01171875 228.393554688 536.01171875 c 0
 250.62890625 536.01171875 269.53125 519.772460938 272.880859375 497.791015625 c 0
 276.056640625 476.948242188 278.21875 455.737304688 279.587890625 434.333007812 c 1
 286.314453125 410.306640625 290.388671875 394.475585938 290.388671875 380.91796875 c 0
 290.388671875 365.931640625 287.15625 351.01953125 281.114257812 337.176757812 c 1
 279.978515625 290.849609375 276.68359375 245.010742188 273.40625 201.573242188 c 1
 283.293945312 203.268554688 292.948242188 204.083007812 301.82421875 204.14453125 c 0
 301.928710938 204.146484375 302.036132812 204.146484375 302.141601562 204.146484375 c 0
 337.178710938 204.146484375 373.567382812 189.258789062 401.975585938 163.302734375 c 0
 431.353515625 136.459960938 448.204101562 101.59375 448.204101562 67.6435546875 c 0
 448.204101562 33.560546875 435.530273438 1.251953125 412.515625 -23.33203125 c 0
 387.966796875 -49.556640625 354.157226562 -64 317.31640625 -64 c 0xfb
266.916992188 105.694335938 m 1
 266.315429688 92.68359375 265.959960938 80.3837890625 265.959960938 69.0107421875 c 0
 265.959960938 53.978515625 265.959960938 25.9990234375 317.31640625 25.9990234375 c 0
 343.874023438 25.9990234375 358.204101562 47.4560546875 358.204101562 67.64453125 c 0
 358.204101562 84.6943359375 330.598632812 114.041992188 302.291992188 114.147460938 c 0
 286.98828125 114.005859375 273.5390625 109.475585938 266.916992188 105.694335938 c 1
185.017578125 438.885742188 m 1
 170.92578125 432.54296875 154.326171875 422.087890625 140.42578125 408.014648438 c 0
 126.567382812 393.982421875 121.73046875 382.45703125 121.799804688 376.850585938 c 0
 121.8046875 376.44140625 121.803710938 376.03125 121.798828125 375.62109375 c 0
 121.771484375 373.751953125 121.918945312 372.936523438 123.690429688 371.139648438 c 0
 130.392578125 364.336914062 149.743164062 357.106445312 172.403320312 357.106445312 c 0
 180.461914062 357.106445312 186.859375 359.798828125 191.491210938 363.666015625 c 1xfb
 191.592773438 382.418945312 191.247070312 401.071289062 190.290039062 419.44921875 c 0
 188.393554688 426.213867188 186.608398438 432.68359375 185.017578125 438.885742188 c 1
EndSplineSet
EndChar

StartChar: r
Encoding: 114 114 81
Width: 310
Flags: W
HStem: 450.788 80.1357<177.585 266.021>
VStem: 88.1299 88.2158<336.471 406.385>
LayerCount: 2
Fore
SplineSet
131.428710938 329.922851562 m 0
 111.583984375 329.922851562 93.6435546875 343.094726562 88.1298828125 362.803710938 c 0
 80.462890625 390.208984375 65.037109375 410.485351562 54.1572265625 419.51953125 c 0
 35.0380859375 435.3984375 32.4111328125 463.76953125 48.2890625 482.888671875 c 0
 60.8134765625 497.96875 81.109375 502.788085938 98.505859375 496.362304688 c 1
 104.900390625 508.7734375 113.923828125 519.478515625 126.45703125 528.094726562 c 0
 129.002929688 529.845703125 131.723632812 531.329101562 134.575195312 532.5234375 c 0
 159.732421875 543.053710938 212.409179688 548.356445312 245.87890625 530.923828125 c 0
 267.920898438 519.444335938 276.483398438 492.267578125 265.002929688 470.225585938 c 0
 253.62890625 448.387695312 226.850585938 439.778320312 204.916992188 450.788085938 c 0
 199.55078125 452.602539062 186.432617188 452.447265625 177.146484375 451.18359375 c 0
 176.415039062 448.434570312 175.563476562 443.952148438 175.02734375 436.932617188 c 0
 173.993164062 423.409179688 174.413085938 404.745117188 176.345703125 378.198242188 c 0
 178.026367188 355.147460938 161.96875 334.572265625 139.200195312 330.59765625 c 0
 136.59375 330.142578125 133.995117188 329.922851562 131.428710938 329.922851562 c 0
205.166992188 450.700195312 m 1
 205.166992188 450.700195312 l 1
EndSplineSet
EndChar

StartChar: s
Encoding: 115 115 82
Width: 352
Flags: W
HStem: 227.501 90<96.9844 213.189>
VStem: 37.0703 277.858
LayerCount: 2
Fore
SplineSet
172.20703125 227.500976562 m 0
 129.352539062 227.500976562 88.4111328125 229.965820312 58.5146484375 259.731445312 c 0
 40.9033203125 277.266601562 40.8408203125 305.758789062 58.3759765625 323.37109375 c 0
 75.91015625 340.983398438 104.404296875 341.045898438 122.014648438 323.509765625 c 0
 126.01953125 319.5234375 142.907226562 317.500976562 172.20703125 317.500976562 c 0
 188.256835938 317.500976562 203.327148438 319.97265625 214.009765625 323.018554688 c 1
 210.2578125 325.705078125 205.443359375 328.873046875 199.287109375 332.516601562 c 0
 181.838867188 342.844726562 160.413085938 353.099609375 139.694335938 363.016601562 c 0
 118.252929688 373.280273438 98 382.973632812 81.8642578125 392.833984375 c 0
 69.61328125 400.3203125 37.0703125 420.20703125 37.0703125 455.50390625 c 0
 37.0703125 465.801757812 40.2802734375 485.540039062 61.779296875 502.024414062 c 0
 69.3310546875 507.814453125 78.7587890625 512.955078125 90.60546875 517.741210938 c 0
 110.241210938 525.674804688 134.048828125 531.522460938 150.564453125 535.03125 c 0
 174.872070312 540.193359375 198.768554688 524.673828125 203.931640625 500.36328125 c 0
 208.931640625 476.829101562 194.54296875 453.68359375 171.564453125 447.545898438 c 1
 174.022460938 446.364257812 176.370117188 445.240234375 178.55078125 444.197265625 c 0
 206.294921875 430.916992188 234.984375 417.184570312 258.795898438 401.434570312 c 0
 272.6796875 392.251953125 314.928710938 364.307617188 314.928710938 319.541992188 c 0
 314.928710938 302.599609375 308.49609375 260.915039062 248.912109375 239.783203125 c 0
 217.659179688 228.697265625 184.858398438 227.500976562 172.20703125 227.500976562 c 0
EndSplineSet
EndChar

StartChar: t
Encoding: 116 116 83
Width: 390
Flags: W
HStem: 250.72 90<169.058 252.955> 385.91 95.4102<42.5658 77.3896> 436.95 89<174.951 301.559>
VStem: 79.54 89.21<342.782 385.91 510.34 635.834> 86.9502 89.8193<511.98 641.283>
LayerCount: 2
Fore
SplineSet
348.080078125 334.740234375 m 0xb0
 320.6796875 294.120117188 269.580078125 250.719726562 208.33984375 250.719726562 c 0
 177.900390625 250.719726562 153.25 256.599609375 133 268.690429688 c 0
 105.870117188 284.879882812 88.150390625 310.91015625 80.349609375 346.049804688 c 0
 79.990234375 347.66015625 79.7197265625 349.290039062 79.5400390625 350.9296875 c 0xb0
 78.3095703125 362.190429688 77.6396484375 373.900390625 77.3896484375 385.91015625 c 1
 77.259765625 385.91015625 l 2
 59.8896484375 385.91015625 43.349609375 396.01953125 35.98046875 412.950195312 c 0
 26.0498046875 435.73046875 36.48046875 462.25 59.259765625 472.1796875 c 0
 66.6103515625 475.379882812 73.919921875 478.4296875 81.23046875 481.3203125 c 1
 81.740234375 488 82.259765625 494.6796875 82.7900390625 501.330078125 c 0
 85.759765625 539.059570312 88.580078125 574.700195312 86.9501953125 600.129882812 c 0
 85.3701171875 624.940429688 104.190429688 646.330078125 128.990234375 647.91015625 c 0
 153.790039062 649.490234375 175.190429688 630.669921875 176.76953125 605.870117188 c 0xc8
 178.530273438 578.23046875 176.469726562 545.370117188 173.76953125 510.33984375 c 1
 198.940429688 516.330078125 225.969726562 521.400390625 256.280273438 525.950195312 c 0
 280.870117188 529.650390625 303.780273438 512.709960938 307.469726562 488.139648438 c 0
 311.16015625 463.559570312 294.23046875 440.639648438 269.650390625 436.950195312 c 0
 234.080078125 431.610351562 201.139648438 425.41015625 167.549804688 415.759765625 c 1
 166.98046875 396.919921875 167.190429688 379.0703125 168.75 363.190429688 c 0
 172.099609375 349.200195312 177.129882812 340.719726562 208.33984375 340.719726562 c 0
 228.740234375 340.719726562 256.129882812 359.370117188 273.459960938 385.0703125 c 0
 287.360351562 405.669921875 315.330078125 411.110351562 335.9296875 397.209960938 c 0
 356.530273438 383.3203125 361.969726562 355.349609375 348.080078125 334.740234375 c 0xb0
EndSplineSet
EndChar

StartChar: u
Encoding: 117 117 84
Width: 348
Flags: W
HStem: 256.109 90<163.43 209.1>
VStem: 41.0762 89.5938<388.779 510.976> 217.125 90<350.219 463.802>
LayerCount: 2
Fore
SplineSet
189.267578125 256.109375 m 0
 165.161132812 256.109375 141.756835938 264.581054688 121.5859375 280.608398438 c 0
 105.463867188 293.418945312 91.197265625 311.092773438 79.1806640625 333.142578125 c 0
 59.4599609375 369.329101562 45.927734375 417.314453125 41.076171875 468.258789062 c 0
 38.7197265625 493 56.8662109375 514.966796875 81.607421875 517.323242188 c 0
 106.341796875 519.6796875 128.315429688 501.533203125 130.669921875 476.791992188 c 0
 138.380859375 395.825195312 169.99609375 346.109375 189.266601562 346.109375 c 0
 206.705078125 346.109375 217.125 381.254882812 217.125 415.235351562 c 0
 217.125 434.364257812 204.78125 458.235351562 199.122070312 464.08984375 c 0
 180.045898438 479.451171875 176.73828125 507.330078125 191.828125 526.744140625 c 0
 207.081054688 546.368164062 235.352539062 549.911132812 254.973632812 534.66015625 c 0
 283.73046875 512.309570312 307.125 458.736328125 307.125 415.236328125 c 0
 307.125976562 320.056640625 259.762695312 256.109375 189.267578125 256.109375 c 0
199.725585938 463.614257812 m 1
 199.732421875 463.609375 199.739257812 463.603515625 199.745117188 463.598632812 c 1
 199.73828125 463.603515625 199.731445312 463.609375 199.725585938 463.614257812 c 1
EndSplineSet
EndChar

StartChar: v
Encoding: 118 118 85
Width: 352
Flags: W
HStem: 282.562 279.857<228.623 248.589>
VStem: 222.108 90<402.959 555.904>
LayerCount: 2
Fore
SplineSet
208.60546875 282.561523438 m 0
 198.071289062 282.561523438 187.521484375 286.243164062 179.02734375 293.653320312 c 0
 154.46484375 315.081054688 70.37109375 416.041015625 47.55078125 469.108398438 c 0
 37.7333984375 491.940429688 48.2822265625 518.407226562 71.1142578125 528.224609375 c 0
 93.947265625 538.04296875 120.413085938 527.494140625 130.231445312 504.662109375 c 0
 140.248046875 481.3671875 175.454101562 434.305664062 203.690429688 400.018554688 c 1
 215.930664062 429.403320312 222.108398438 468.66796875 222.108398438 517.418945312 c 0
 222.108398438 542.272460938 242.254882812 562.418945312 267.108398438 562.418945312 c 0
 291.9609375 562.418945312 312.108398438 542.272460938 312.108398438 517.418945312 c 0
 312.108398438 414.485351562 288.440429688 341.756835938 239.752929688 295.079101562 c 0
 231.0703125 286.754882812 219.846679688 282.561523438 208.60546875 282.561523438 c 0
EndSplineSet
EndChar

StartChar: w
Encoding: 119 119 86
Width: 438
Flags: HW
LayerCount: 2
Fore
SplineSet
116.609375 255.001953125 m 0
 101.5859375 255.000976562 87.623046875 259.981445312 76.3076171875 269.709960938 c 0
 73.42578125 272.188476562 70.8701171875 275.022460938 68.7001953125 278.142578125 c 0
 49.0146484375 306.456054688 44.873046875 362.049804688 44.0068359375 384.637695312 c 0
 42.865234375 414.385742188 44.12890625 470.631835938 65.4208984375 513.099609375 c 0
 76.55859375 535.318359375 103.598632812 544.299804688 125.817382812 533.16015625 c 0
 148.034179688 522.021484375 157.014648438 494.981445312 145.875976562 472.763671875 c 0
 137.516601562 456.090820312 133.000976562 426.186523438 133.794921875 392.771484375 c 0
 134.029296875 382.928710938 134.69921875 373.823242188 135.603515625 365.717773438 c 1
 137.151367188 367.661132812 138.723632812 369.745117188 140.306640625 371.974609375 c 0
 153.916015625 391.151367188 163.220703125 413.76953125 166.504882812 435.666015625 c 0
 169.556640625 456.013671875 186.022460938 471.700195312 206.494140625 473.763671875 c 0
 226.959960938 475.829101562 246.23046875 463.743164062 253.282226562 444.4140625 c 0
 272.166015625 392.654296875 281.6796875 382.841796875 292.633789062 382.841796875 c 0
 304.7109375 382.841796875 307.123046875 386.23828125 308.153320312 387.688476562 c 0
 309.59375 389.716796875 314.296875 397.896484375 314.296875 417.95703125 c 0
 314.296875 438.842773438 294.58203125 461.319335938 278.258789062 466.002929688 c 0
 254.370117188 472.858398438 240.560546875 497.780273438 247.415039062 521.668945312 c 0
 254.268554688 545.556640625 279.190429688 559.3671875 303.081054688 552.512695312 c 0
 329.484375 544.936523438 354.4296875 527.5390625 373.322265625 503.524414062 c 0
 393.295898438 478.1328125 404.296875 447.745117188 404.296875 417.95703125 c 0
 404.296875 340.784179688 361.510742188 292.842773438 292.634765625 292.842773438 c 0
 271.578125 292.842773438 242.549804688 298.697265625 217.012695312 324.5390625 c 1
 195.310546875 292.483398438 168.102539062 269.215820312 143.443359375 260.049804688 c 0
 134.350585938 256.669921875 125.30078125 255.002929688 116.609375 255.001953125 c 0
143.501953125 328.064453125 m 1
 143.501953125 328.064453125 143.501953125 328.063476562 143.502929688 328.063476562 c 1
 143.502929688 328.061523438 143.502929688 328.063476562 143.501953125 328.064453125 c 1
EndSplineSet
EndChar

StartChar: x
Encoding: 120 120 87
Width: 418
Flags: W
LayerCount: 2
Fore
SplineSet
370.120117188 317.030273438 m 0
 362.120117188 311.209960938 352.849609375 308.41015625 343.66015625 308.41015625 c 0
 329.759765625 308.41015625 316.059570312 314.830078125 307.25 326.919921875 c 0
 290.690429688 349.66015625 270 373.450195312 248.33984375 396.139648438 c 1
 234.940429688 369.650390625 221.509765625 342.25 208.5703125 315.83984375 c 0
 204.459960938 307.48046875 200.360351562 299.110351562 196.26953125 290.780273438 c 0
 188.450195312 274.860351562 172.469726562 265.620117188 155.849609375 265.620117188 c 0
 149.190429688 265.620117188 142.419921875 267.110351562 136.030273438 270.25 c 0
 113.73046875 281.209960938 104.540039062 308.1796875 115.5 330.48046875 c 0
 119.580078125 338.780273438 123.669921875 347.120117188 127.75 355.459960938 c 0
 145.740234375 392.150390625 163.389648438 428.16015625 180.620117188 461.490234375 c 1
 169.969726562 471 159.98046875 479.559570312 151.129882812 486.860351562 c 1
 147.809570312 484.190429688 144.16015625 480.879882812 140.400390625 476.849609375 c 0
 129.969726562 465.6796875 122.400390625 452.790039062 120.629882812 443.209960938 c 0
 116.129882812 418.76953125 92.66015625 402.599609375 68.2197265625 407.110351562 c 0
 43.7802734375 411.610351562 27.6201171875 435.0703125 32.1201171875 459.51953125 c 0
 37.1201171875 486.669921875 52.5703125 515.01953125 75.6298828125 539.349609375 c 0
 88.6904296875 553.129882812 115.41015625 577.240234375 147.549804688 583.860351562 c 0
 160.080078125 586.450195312 173.110351562 583.580078125 183.389648438 575.98046875 c 0
 194.879882812 567.48046875 209.240234375 555.91015625 225.1796875 542.16015625 c 1
 242.91015625 571.41015625 260.040039062 595.469726562 276.48046875 611.860351562 c 0
 294.0703125 629.41015625 322.5703125 629.370117188 340.120117188 611.780273438 c 0
 357.669921875 594.1796875 357.629882812 565.690429688 340.030273438 548.139648438 c 0
 326.440429688 534.58984375 310.169921875 509.98046875 292.66015625 479.450195312 c 1
 324.5703125 447.58984375 356.150390625 412.66015625 380 379.900390625 c 0
 394.629882812 359.809570312 390.209960938 331.66015625 370.120117188 317.030273438 c 0
EndSplineSet
EndChar

StartChar: y
Encoding: 121 121 88
Width: 426
Flags: W
HStem: -195.434 88.75<196.917 306.764> 284.033 88.3193<132.206 207.264>
VStem: 38.1289 90.0781<375.295 529.427>
LayerCount: 2
Fore
SplineSet
303.046875 -197.939453125 m 0
 292.596679688 -197.939453125 282.134765625 -197.178710938 272.052734375 -196.447265625 c 0
 267.198242188 -196.09375 262.176757812 -195.73046875 257.158203125 -195.43359375 c 0
 256.5703125 -195.400390625 255.983398438 -195.353515625 255.397460938 -195.295898438 c 0
 203.901367188 -190.231445312 165.25390625 -176.372070312 137.248046875 -152.930664062 c 0
 113.196289062 -132.798828125 98.1162109375 -106.765625 91.14453125 -73.3427734375 c 0
 90.5146484375 -70.322265625 90.197265625 -67.2431640625 90.197265625 -64.15625 c 0
 90.197265625 14.4326171875 184.905273438 97.6708984375 270.216796875 122.473632812 c 1
 261.065429688 184.959960938 253.946289062 249.129882812 249.110351562 312.780273438 c 1
 221.849609375 294.930664062 185.172851562 284.033203125 135.03125 284.033203125 c 0
 104.765625 284.033203125 78.6337890625 299.368164062 61.44921875 327.21484375 c 0
 40.5791015625 361.034179688 37.8798828125 405.997070312 38.12890625 429.788085938 c 0
 38.515625 466.83203125 45.78125 502.118164062 58.0615234375 526.596679688 c 0
 69.20703125 548.811523438 96.248046875 557.786132812 118.462890625 546.639648438 c 0
 140.676757812 535.495117188 149.651367188 508.453125 138.505859375 486.239257812 c 0
 132.908203125 475.08203125 127.297851562 449.811523438 128.20703125 420.6953125 c 0
 129.01171875 394.897460938 134.631835938 379.5078125 138.239257812 374.05078125 c 1
 185.087890625 374.62890625 202.189453125 387.853515625 210.997070312 397.856445312 c 0
 227.5703125 416.674804688 236.043945312 450.223632812 242.735351562 483.673828125 c 0
 247.251953125 506.258789062 268.09375 521.786132812 291.030273438 519.655273438 c 0
 313.96484375 517.521484375 331.5859375 498.413085938 331.858398438 475.380859375 c 0
 332.786132812 396.974609375 340.252929688 190.825195312 389.409179688 -29.4716796875 c 0
 389.48828125 -29.828125 389.564453125 -30.1865234375 389.634765625 -30.544921875 c 0
 400.068359375 -83.318359375 405.603515625 -136.809570312 375.739257812 -170.58203125 c 0
 355.849609375 -193.073242188 329.489257812 -197.939453125 303.046875 -197.939453125 c 0
263.375 -105.646484375 m 0
 268.66796875 -105.96484375 273.698242188 -106.331054688 278.572265625 -106.68359375 c 0
 287.489257812 -107.331054688 299.84375 -108.234375 307.608398438 -107.951171875 c 1
 308.37890625 -100.166015625 308.24609375 -83.0849609375 301.447265625 -48.525390625 c 0
 295.581054688 -22.19921875 290.087890625 4.951171875 285.001953125 32.6552734375 c 1
 262.265625 24.220703125 237.817382812 9.2568359375 217.608398438 -9.0009765625 c 0
 193.37890625 -30.8916015625 182.774414062 -50.4248046875 180.620117188 -60.6103515625 c 1
 183.512695312 -70.87109375 187.974609375 -78.0263671875 195.012695312 -83.916015625 c 0
 208.188476562 -94.943359375 231.817382812 -102.452148438 263.375 -105.646484375 c 0
139.606445312 372.352539062 m 1
 139.616210938 372.352539062 l 1
 139.606445312 372.352539062 l 1
EndSplineSet
EndChar

StartChar: z
Encoding: 122 122 89
Width: 448
Flags: W
HStem: -111.329 89.999<156.173 302.857> 75.7451 90<173.85 320.609> 469.095 89.6787<30.9047 156.87>
VStem: 51.0635 90.002<-4.35746 45.4341>
LayerCount: 2
Fore
SplineSet
220 -111.329101562 m 0
 184.329101562 -111.329101562 144.545898438 -99.5673828125 113.58203125 -79.8681640625 c 0
 73.265625 -54.21875 51.0634765625 -18.4453125 51.0634765625 20.861328125 c 0
 51.0634765625 58.4736328125 75.44140625 95.8193359375 119.706054688 126.015625 c 0
 156.171875 150.892578125 198.72265625 165.745117188 233.529296875 165.745117188 c 0
 261.627929688 165.745117188 292.13671875 165.744140625 321.301757812 158.268554688 c 1
 318.06640625 175.112304688 312.983398438 192.798828125 306.442382812 209.49609375 c 0
 293.546875 242.409179688 279.155273438 261.235351562 269.587890625 268.244140625 c 0
 235.754882812 287.541992188 189.1328125 307.819335938 126.723632812 297.345703125 c 0
 110.125976562 294.560546875 93.3642578125 301.272460938 83.26953125 314.73828125 c 0
 73.17578125 328.204101562 71.44140625 346.176757812 78.771484375 361.326171875 c 0
 90.935546875 386.466796875 117.5859375 419.790039062 148.4453125 458.375976562 c 0
 152.060546875 462.897460938 155.703125 467.451171875 159.328125 472.001953125 c 1
 126.944335938 467.626953125 95.3583984375 466.591796875 65.8662109375 469.094726562 c 0
 41.1015625 471.197265625 22.7314453125 492.975585938 24.8330078125 517.740234375 c 0
 26.935546875 542.50390625 48.712890625 560.87109375 73.4775390625 558.7734375 c 0
 125.383789062 554.366210938 186.547851562 564.092773438 245.690429688 586.161132812 c 0
 261.420898438 592.032226562 279.110351562 588.655273438 291.573242188 577.405273438 c 0
 304.037109375 566.155273438 309.201171875 548.903320312 304.96875 532.655273438 c 0
 296.80078125 501.3046875 266.94140625 462.442382812 218.733398438 402.1640625 c 0
 214.629882812 397.033203125 210.431640625 391.784179688 206.25390625 386.529296875 c 1
 252.471679688 378.889648438 289.139648438 360.852539062 316.123046875 345.306640625 c 0
 317.006835938 344.797851562 317.873046875 344.258789062 318.719726562 343.69140625 c 0
 354.375976562 319.784179688 377.29296875 275.373046875 390.241210938 242.326171875 c 0
 406.182617188 201.6328125 415.327148438 157.07421875 415.327148438 120.077148438 c 0
 415.327148438 79.9453125 412.971679688 49.205078125 407.9140625 23.3369140625 c 0
 401.751953125 -8.18359375 391.26171875 -33.185546875 375.844726562 -53.1005859375 c 0
 335.888671875 -104.7109375 271.5703125 -111.329101562 220 -111.329101562 c 0
141.065429688 20.666015625 m 0
 141.21484375 13.6689453125 149.357421875 4.0419921875 161.892578125 -3.93359375 c 0
 178.502929688 -14.5009765625 201.310546875 -21.330078125 220 -21.330078125 c 0
 279.049804688 -21.330078125 296.272460938 -8.865234375 304.6796875 1.994140625 c 0
 313.491210938 13.375 319.358398438 32.3203125 322.516601562 60.173828125 c 0
 320.755859375 61.064453125 319.03515625 62.0791015625 317.362304688 63.2236328125 c 0
 300.370117188 74.845703125 271.8984375 75.7451171875 233.530273438 75.7451171875 c 0
 220.875 75.7451171875 196.541992188 68.7529296875 173.0234375 53.4013671875 c 0
 150.63671875 38.7900390625 141.764648438 24.9169921875 141.065429688 20.666015625 c 0
EndSplineSet
EndChar

StartChar: braceleft
Encoding: 123 123 90
Width: 354
Flags: W
HStem: 160.092 90.5508<192.223 288.385>
VStem: 58.4121 90.0059<547.288 585.745>
LayerCount: 2
Fore
SplineSet
199.265625 160.091796875 m 0
 174.28125 160.08984375 148.573242188 167.024414062 126.506835938 188.21875 c 0
 123.739257812 190.876953125 121.32421875 193.877929688 119.318359375 197.150390625 c 0
 100.438476562 227.940429688 101.037109375 267.224609375 103.075195312 287.90234375 c 0
 104.973632812 307.172851562 109.370117188 325.674804688 115.887695312 342.33984375 c 1
 107.51953125 344.728515625 97.4423828125 346.778320312 86.8359375 347.561523438 c 0
 66.423828125 349.0703125 49.6005859375 364.1640625 45.896484375 384.293945312 c 0
 42.19140625 404.423828125 52.5380859375 424.517578125 71.076171875 433.1953125 c 0
 95.0703125 444.42578125 113.74609375 458.538085938 124.681640625 469.32421875 c 1
 113.703125 476.419921875 100.759765625 485.483398438 89.4091796875 497.13671875 c 0
 68.8408203125 518.252929688 58.412109375 542.51171875 58.412109375 569.23828125 c 0
 58.412109375 590.618164062 66.162109375 621.986328125 103.086914062 650.00390625 c 0
 123.375976562 665.399414062 150.688476562 678.625 186.5859375 690.439453125 c 0
 210.193359375 698.208984375 235.62890625 685.369140625 243.399414062 661.760742188 c 0
 251.16796875 638.154296875 238.329101562 612.717773438 214.720703125 604.94921875 c 0
 158.215820312 586.353515625 149.21875 570.657226562 148.41796875 569.00390625 c 0
 148.79296875 560.4453125 169.439453125 547.450195312 180.577148438 540.439453125 c 0
 196.951171875 530.131835938 212.41796875 520.397460938 220.100585938 501.926757812 c 0
 220.600585938 500.725585938 221.047851562 499.50390625 221.442382812 498.263671875 c 0
 227.904296875 477.9140625 227.55078125 445.556640625 189.389648438 406.787109375 c 1
 200.739257812 398.618164062 208.682617188 389.180664062 213.420898438 378.314453125 c 0
 221.432617188 359.939453125 219.022460938 339.654296875 207.018554688 323.706054688 c 0
 199.841796875 313.434570312 194.349609375 296.412109375 192.640625 279.075195312 c 0
 191.352539062 266.001953125 192.450195312 256.491210938 193.815429688 250.642578125 c 1
 205.654296875 247.8046875 229.801757812 255.498046875 250.565429688 262.997070312 c 0
 273.939453125 271.438476562 299.733398438 259.330078125 308.172851562 235.955078125 c 0
 316.61328125 212.580078125 304.506835938 186.787109375 281.130859375 178.346679688 c 0
 260.740234375 170.983398438 230.572265625 160.09375 199.265625 160.091796875 c 0
EndSplineSet
EndChar

StartChar: bar
Encoding: 124 124 91
Width: 208
Flags: W
VStem: 44.7715 89.9541<341.285 634.677>
LayerCount: 2
Fore
SplineSet
110.19921875 234.111328125 m 0
 87.265625 234.111328125 67.6689453125 251.559570312 65.4541015625 274.852539062 c 0
 55.8720703125 375.6015625 47.75390625 501.244140625 44.771484375 594.940429688 c 0
 43.98046875 619.780273438 63.4755859375 640.55859375 88.31640625 641.348632812 c 0
 113.172851562 642.142578125 133.934570312 622.643554688 134.725585938 597.803710938 c 0
 137.654296875 505.829101562 145.631835938 382.408203125 155.049804688 283.374023438 c 0
 157.403320312 258.6328125 139.25390625 236.66796875 114.512695312 234.315429688 c 0
 113.064453125 234.178710938 111.625 234.111328125 110.19921875 234.111328125 c 0
EndSplineSet
EndChar

StartChar: braceright
Encoding: 125 125 92
Width: 318
Flags: W
HStem: 168.428 90<98.81 165.119> 606.652 89.4336<45.9453 138.069>
VStem: 38.0518 200.56<609.634 674.498> 92.2559 166.245<191.202 251.855>
LayerCount: 2
Fore
SplineSet
137.25390625 168.427734375 m 0xd0
 112.453125 168.427734375 92.318359375 188.500976562 92.255859375 213.31640625 c 0xd0
 92.1943359375 238.169921875 112.291015625 258.366210938 137.143554688 258.427734375 c 2
 137.734375 258.428710938 l 2
 149.181640625 258.45703125 158.58984375 258.751953125 165.915039062 259.311523438 c 1
 158.329101562 297.6171875 135.501953125 349.62109375 117.067382812 372.712890625 c 0
 104.90625 387.946289062 103.934570312 409.278320312 114.663085938 425.552734375 c 0
 116.73046875 428.690429688 118.907226562 431.622070312 121.161132812 434.368164062 c 1
 118.235351562 435.7265625 115.364257812 437.227539062 112.564453125 438.903320312 c 0
 96.1748046875 448.704101562 87.7568359375 467.78125 91.5634765625 486.493164062 c 0
 99.4921875 525.4765625 116.483398438 561.125 130.135742188 589.768554688 c 0
 132.54296875 594.818359375 135.365234375 600.73828125 138.069335938 606.65234375 c 1
 123.864257812 607.497070312 106.744140625 607.052734375 91.654296875 603.740234375 c 0
 67.3828125 598.4140625 43.3818359375 613.76953125 38.0517578125 638.044921875 c 0
 32.72265625 662.319335938 48.08203125 686.318359375 72.357421875 691.647460938 c 0
 103.087890625 698.392578125 133.744140625 697.326171875 149.28515625 696.0859375 c 0
 197.03125 692.283203125 213.22265625 679.260742188 218.54296875 674.982421875 c 0
 231.296875 664.724609375 238.611328125 649.9453125 238.611328125 634.432617188 c 0xe0
 238.611328125 608.178710938 225.991210938 581.702148438 211.37890625 551.044921875 c 0
 204.81640625 537.275390625 197.778320312 522.510742188 191.793945312 507.401367188 c 1
 205.598632812 504.083007812 220.42578125 499.901367188 234.590820312 492.608398438 c 0
 255.109375 482.044921875 264.309570312 457.670898438 255.891601562 436.18359375 c 0
 246.41015625 411.982421875 226.674804688 400.075195312 211.538085938 391.494140625 c 1
 236.737304688 345.1640625 258.500976562 281.594726562 258.500976562 236.633789062 c 0
 258.500976562 215.696289062 247.775390625 196.94921875 229.07421875 185.200195312 c 0
 219.375976562 179.107421875 207.586914062 174.842773438 193.034179688 172.1640625 c 0
 173.20703125 168.514648438 151.991210938 168.462890625 137.952148438 168.4296875 c 2
 137.368164062 168.427734375 l 2
 137.331054688 168.427734375 137.291992188 168.427734375 137.25390625 168.427734375 c 0xd0
EndSplineSet
EndChar

